<svg xmlns="http://www.w3.org/2000/svg" width="699.13" height="558.797" viewBox="0 0 699.13 558.797"><rect width="63.399" height="19.167" rx="7.43" transform="translate(142.921 95.836)" fill="#6c63ff" opacity="0.1"/><rect width="63.399" height="19.167" rx="7.43" transform="translate(209.269 115.003)" fill="#6c63ff" opacity="0.1"/><rect width="63.399" height="19.167" rx="7.43" transform="translate(275.617 134.17)" fill="#6c63ff" opacity="0.1"/><rect width="63.399" height="19.167" rx="7.43" transform="translate(142.921 67.085)" fill="#6c63ff" opacity="0.1"/><rect width="63.399" height="19.167" rx="7.43" transform="translate(209.269 86.252)" fill="#6c63ff" opacity="0.1"/><rect width="63.399" height="19.167" rx="7.43" transform="translate(275.617 105.419)" fill="#6c63ff" opacity="0.1"/><rect width="63.399" height="19.167" rx="7.43" transform="translate(349.337 95.836)" fill="#6c63ff" opacity="0.1"/><rect width="63.399" height="19.167" rx="7.43" transform="translate(415.684 115.003)" fill="#6c63ff" opacity="0.1"/><rect width="63.399" height="19.167" rx="7.43" transform="translate(482.032 134.17)" fill="#6c63ff" opacity="0.1"/><rect width="63.399" height="19.167" rx="7.43" transform="translate(349.337 67.085)" fill="#6c63ff" opacity="0.1"/><rect width="63.399" height="19.167" rx="7.43" transform="translate(415.684 86.252)" fill="#6c63ff" opacity="0.1"/><rect width="63.399" height="19.167" rx="7.43" transform="translate(482.032 105.419)" fill="#6c63ff" opacity="0.1"/><rect width="63.399" height="19.167" rx="7.43" transform="translate(142.921 28.751)" fill="#6c63ff" opacity="0.1"/><rect width="63.399" height="19.167" rx="7.43" transform="translate(209.269 47.918)" fill="#6c63ff" opacity="0.1"/><rect width="63.399" height="19.167" rx="7.43" transform="translate(275.617 67.085)" fill="#6c63ff" opacity="0.1"/><rect width="63.399" height="19.167" rx="7.43" transform="translate(142.921)" fill="#6c63ff" opacity="0.1"/><rect width="63.399" height="19.167" rx="7.43" transform="translate(209.269 19.167)" fill="#6c63ff" opacity="0.1"/><rect width="63.399" height="19.167" rx="7.43" transform="translate(275.617 38.334)" fill="#6c63ff" opacity="0.1"/><rect width="63.399" height="19.167" rx="7.43" transform="translate(349.337 28.751)" fill="#6c63ff" opacity="0.1"/><rect width="63.399" height="19.167" rx="7.43" transform="translate(415.684 47.918)" fill="#6c63ff" opacity="0.1"/><rect width="63.399" height="19.167" rx="7.43" transform="translate(482.032 67.085)" fill="#6c63ff" opacity="0.1"/><rect width="63.399" height="19.167" rx="7.43" transform="translate(349.337)" fill="#6c63ff" opacity="0.1"/><rect width="63.399" height="19.167" rx="7.43" transform="translate(415.684 19.167)" fill="#6c63ff" opacity="0.1"/><rect width="63.399" height="19.167" rx="7.43" transform="translate(482.032 38.334)" fill="#6c63ff" opacity="0.1"/><rect width="63.399" height="19.167" rx="7.43" transform="translate(142.921 437.159)" fill="#6c63ff" opacity="0.1"/><rect width="63.399" height="19.167" rx="7.43" transform="translate(209.269 456.326)" fill="#6c63ff" opacity="0.1"/><rect width="63.399" height="19.167" rx="7.43" transform="translate(275.617 475.493)" fill="#6c63ff" opacity="0.1"/><rect width="63.399" height="19.167" rx="7.43" transform="translate(142.921 408.408)" fill="#6c63ff" opacity="0.1"/><rect width="63.399" height="19.167" rx="7.43" transform="translate(209.269 427.576)" fill="#6c63ff" opacity="0.1"/><rect width="63.399" height="19.167" rx="7.43" transform="translate(275.617 446.743)" fill="#6c63ff" opacity="0.1"/><rect width="63.399" height="19.167" rx="7.43" transform="translate(349.337 437.159)" fill="#6c63ff" opacity="0.1"/><rect width="63.399" height="19.167" rx="7.43" transform="translate(415.684 456.326)" fill="#6c63ff" opacity="0.1"/><rect width="63.399" height="19.167" rx="7.43" transform="translate(482.032 475.493)" fill="#6c63ff" opacity="0.1"/><rect width="63.399" height="19.167" rx="7.43" transform="translate(349.337 408.408)" fill="#6c63ff" opacity="0.1"/><rect width="63.399" height="19.167" rx="7.43" transform="translate(415.684 427.576)" fill="#6c63ff" opacity="0.1"/><rect width="63.399" height="19.167" rx="7.43" transform="translate(482.032 446.743)" fill="#6c63ff" opacity="0.1"/><rect width="63.399" height="19.167" rx="7.43" transform="translate(142.921 370.074)" fill="#6c63ff" opacity="0.1"/><rect width="63.399" height="19.167" rx="7.43" transform="translate(209.269 389.241)" fill="#6c63ff" opacity="0.1"/><rect width="63.399" height="19.167" rx="7.43" transform="translate(275.617 408.408)" fill="#6c63ff" opacity="0.1"/><rect width="63.399" height="19.167" rx="7.43" transform="translate(142.921 341.323)" fill="#6c63ff" opacity="0.1"/><rect width="63.399" height="19.167" rx="7.43" transform="translate(209.269 360.49)" fill="#6c63ff" opacity="0.1"/><rect width="63.399" height="19.167" rx="7.43" transform="translate(275.617 379.658)" fill="#6c63ff" opacity="0.1"/><rect width="63.399" height="19.167" rx="7.43" transform="translate(349.337 370.074)" fill="#6c63ff" opacity="0.1"/><rect width="63.399" height="19.167" rx="7.43" transform="translate(415.684 389.241)" fill="#6c63ff" opacity="0.1"/><rect width="63.399" height="19.167" rx="7.43" transform="translate(482.032 408.408)" fill="#6c63ff" opacity="0.1"/><rect width="63.399" height="19.167" rx="7.43" transform="translate(349.337 341.323)" fill="#6c63ff" opacity="0.1"/><rect width="63.399" height="19.167" rx="7.43" transform="translate(415.684 360.49)" fill="#6c63ff" opacity="0.1"/><rect width="63.399" height="19.167" rx="7.43" transform="translate(482.032 379.658)" fill="#6c63ff" opacity="0.1"/><ellipse cx="323.262" cy="26.539" rx="323.262" ry="26.539" transform="translate(32.341 505.719)" fill="#6c63ff" opacity="0.1"/><path d="M188.224,254.727c30.483,13.211,48,40.546,48,40.546s-31.913,5.9-62.4-7.306-48-40.546-48-40.546S157.733,241.516,188.224,254.727Z" transform="translate(-125.82 -117.018)" fill="#6c63ff"/><path d="M334.274,180.853C343.7,165.372,359.759,158,359.759,158s.737,17.649-8.662,33.085-25.492,22.8-25.492,22.8S324.838,196.246,334.274,180.853Z" transform="translate(-178.32 -93.864)" fill="#6c63ff"/><path d="M242.358,194.614c6.745,24.077,25.338,39.927,25.338,39.927s7.659-23.2.914-47.284-25.345-39.927-25.345-39.927S235.605,170.53,242.358,194.614Z" transform="translate(-155.715 -91.06)" fill="#cccaf5"/><rect width="537.418" height="269.078" rx="7.21" transform="translate(87.631 102.471)" fill="#fff"/><path d="M118.87,482H656.288v10.9a5.315,5.315,0,0,1-5.315,5.315H124.185a5.315,5.315,0,0,1-5.315-5.315Z" transform="translate(-31.239 -126.67)" opacity="0.1"/><rect width="39.809" height="19.904" rx="2.5" transform="translate(139.972 335.426)" fill="#6c63ff"/><rect width="27.276" height="2.949" rx="1.474" transform="translate(190.839 352.381)" fill="#6c63ff"/><path d="M336.261,276.868c19.455,3.59,39.3,0,58.674-2.433l58.88-7.372c2.381-.3,5.846-1.725,7.247,1.187.789,1.629.258,5.16.317,7.033.155,5.16.14,10.321,0,15.481-.265,9.864-.988,19.705-1.909,29.525-1.791,19.219-4.327,38.334-5.6,57.627-.649,9.819-.973,19.669-.686,29.488.066,2.344.162,4.689.3,7.026.155,2.617,1.327,6.5-1.526,8.249-1.629,1-4.836.951-6.7,1.246-2.949.464-5.9.833-8.905,1.135-19.823,1.983-39.9,1.157-59.8,1.039l-60.082-.31-14.656-.081c-1.327,0-6.111.8-6.93-.781-.347-.671.575-3.811.737-4.652q.339-2.079.737-4.15c1.71-9.694,3.73-19.329,5.765-28.957,4.372-20.642,8.846-41.386,10.645-62.47.892-10.579.3-21.253,1.393-31.81.509-4.9,1.113-15.842,7.637-16.277,5.529-.369,11.22,0,16.764,0a1.106,1.106,0,1,0,0-2.212c-5.234,0-10.476-.14-15.71-.037-3.48.066-5.9.892-7.556,4.092-4.239,8.212-3.8,19.167-3.937,28.132-.317,21.46-3.612,42.463-7.9,63.451-2.16,10.564-4.49,21.091-6.635,31.663-1.01,5.05-1.976,10.114-2.86,15.194-.413,2.418-2.5,7.748-.664,9.967s7.483,1.025,10.011,1.04l17.59.1,33.7.192c21.777.125,43.627.737,65.4.1,10.395-.31,21.379-.737,31.5-3.222,3.015-.737,4.467-2.123,4.585-5.337.177-4.983-.634-10.122-.737-15.127-.737-42.831,9.326-85.065,8.293-127.911-.066-2.912,1.032-10.254-2.153-12.016-1.43-.8-3.288-.361-4.792-.184-2.875.332-5.743.737-8.618,1.076l-37.339,4.659c-11.935,1.474-23.863,3.067-35.82,4.423-12.658,1.474-25.441,2.352-38.054,0-1.393-.258-1.99,1.872-.59,2.13Z" transform="translate(-169.64 -121.776)" fill="#6c63ff"/><path d="M319.621,313.366l147.307-7.225c1.423-.074,1.43-2.285,0-2.212l-147.307,7.225C318.205,311.22,318.2,313.432,319.621,313.366Z" transform="translate(-176.471 -132.214)" fill="#6c63ff"/><path d="M381.2,289.46a3.686,3.686,0,0,0,1.3,5.949c1.983.907,4.313.147,6.281-.346,2.949-.737,5.9-1.393,8.927-1.931a121.745,121.745,0,0,1,19.971-1.858c3.052-.037,6.082.1,9.134.236,2.212.088,4.593.265,6.465-1.106,2.138-1.563,2.831-4.615.737-6.517-2.949-2.691-9.3-1.128-12.709-.848a284.993,284.993,0,0,0-36.757,5.485c-1.386.295-.8,2.433.59,2.13q11.994-2.588,24.173-4.158,5.986-.737,11.994-1.246c1.887-.155,3.774-.295,5.662-.405.737-.044,1.519-.125,2.271-.1,2.337.052,2.61-.369,1.209,2.455-1.246,2.5-.848,2.212-3.008,2.131-.914,0-1.828-.1-2.742-.147q-2.809-.118-5.617-.125-5.979,0-11.928.575c-3.362.324-6.716.781-10.041,1.371-2.079.369-4.143.8-6.2,1.268-.907.214-1.821.435-2.728.663-.435.118-.877.221-1.312.332q-2.418.84-4.121-2.212c.988-1.025-.568-2.595-1.563-1.563Z" transform="translate(-192.67 -126.539)" fill="#6c63ff"/><path d="M405.251,334.073c-10.667-.413-22.19,2.47-29.215,11.058-5.5,6.716-8.633,18.238-2.809,25.8,6.259,8.109,19.986,6.679,28.264,3.222,8.758-3.686,18.341-11.287,20.973-20.8,3.281-11.876-7.372-20.855-18.467-20.988a1.106,1.106,0,0,0,0,2.212c6.325.074,12.532,2.787,15.481,8.677,3.089,6.207.428,12.724-3.686,17.693-6.591,7.91-16.9,13.874-27.394,13.7-6.3-.1-13.27-2.256-15.223-8.905-1.607-5.389-.383-11.279,2.418-16.056,6.06-10.321,18.393-13.815,29.7-13.373,1.423.052,1.423-2.16,0-2.212Z" transform="translate(-190.019 -139.688)" fill="#6c63ff"/><path d="M402.029,354.267a2.875,2.875,0,0,0-3.863,2.949c.221,2.875,3.391,3.686,5.772,3.516,2.057-.177,4.46-.936,3.738-3.509a3.3,3.3,0,0,0-1.8-2.079,4.165,4.165,0,0,0-2.079-.258c-.273,0-2.772.914-1.71-.184l-1.74-.229a1.814,1.814,0,0,1,.531,1.474,1.113,1.113,0,0,0,1.659.951,1.474,1.474,0,0,1,2,1.725,1.113,1.113,0,0,0,2.02.855c.737-1.327,1.629-3.966.523-5.352-.737-.936-2.16-.656-3.045-.111a10.674,10.674,0,0,0-1.519,1.3c-.892.789-1.474,1.157-1.143-.354.553-2.75,3.177-4.939,5.573-6.038l-1.622-1.246a23.309,23.309,0,0,1-4.46,8.736l1.887.781a4.925,4.925,0,0,1,3.008-4.8h-1.084l.575.944c-.214,1.393,1.917,1.99,2.13.582.28-1.821-.87-4.187-3-3.3-2.543,1.062-3.863,3.973-3.811,6.568,0,.885,1.253,1.57,1.895.789a25.994,25.994,0,0,0,5.02-9.724,1.121,1.121,0,0,0-1.629-1.246,12.362,12.362,0,0,0-5.367,4.674c-.9,1.474-2.027,3.774-1.113,5.47a2.344,2.344,0,0,0,3.207.907,8.625,8.625,0,0,0,1.85-1.474c.273-.243.575-.663.936-.737.324-.221.31-.1-.052.391a4.018,4.018,0,0,1-.641,2.153l2.02.848a3.686,3.686,0,0,0-5.241-4.224l1.666.958a4.018,4.018,0,0,0-.833-2.6,1.12,1.12,0,0,0-1.732-.228,2.892,2.892,0,0,0,.074,4.283c1.054.8,1.57,0,2.728-.184,3.929-.509,1.637,1.261.251,1.32a5.227,5.227,0,0,1-1.85-.133q-2.307-.781-.288-2.013c1.32.538,1.887-1.6.59-2.131Z" transform="translate(-197.39 -143.502)" fill="#6c63ff"/><path d="M397.08,361.895c.907,2.949-2.838,3.922-4.615,4.939a10.278,10.278,0,0,0-3.192,2.794c-1.858,2.492-2.551,5.662-3.163,8.647-.28,1.393,1.85,1.983,2.138.59a25.068,25.068,0,0,1,1.865-6.362c1.327-2.639,3.229-3.524,5.706-4.88s4.268-3.457,3.391-6.318C398.8,359.949,396.66,360.531,397.08,361.895Z" transform="translate(-194.218 -147.09)" fill="#6c63ff"/><path d="M401.8,360.37a2.138,2.138,0,0,0-1.843,2.212c0,.877.582,1.438.98,2.138a16.881,16.881,0,0,1,2.138,4.652c.354,1.585.7,4.423-.125,5.9-1.526,2.735-4.283,2.212-6.635,2.212-2.212,0-3.922.737-3.848-2.344.044-1.732,1.253-3.487,2.212-4.851l-2.02-.265a38.53,38.53,0,0,1,.671,6.827c0,1.025,1.57,1.592,2.057.553a42.709,42.709,0,0,0,2.809-7.77l-2.175-.295.383,5.6a1.113,1.113,0,0,0,2.057.56,2.507,2.507,0,0,0,.553-1c.074-.347-.6-2.683-.877-1.85l2.167.295.155-5.323-2.212.295a11.013,11.013,0,0,1,.413,4.644c-.14,1.231,1.931,1.511,2.212.295l1.386-7.151-2.02.258a4.887,4.887,0,0,1,.376,3.185c-.162,1.415,2.049,1.4,2.212,0a7.77,7.77,0,0,0-.678-4.3,1.113,1.113,0,0,0-2.02.265l-1.393,7.151,2.175.295a12.062,12.062,0,0,0-.494-5.227,1.106,1.106,0,0,0-2.167.288l-.155,5.323a1.111,1.111,0,0,0,2.175.295l.118-.361a1.12,1.12,0,0,0-.28-1.076c-2.293-2.492-2.757,1.474-3.553,2.573l2.064.56-.383-5.6a1.113,1.113,0,0,0-2.175-.295,39.637,39.637,0,0,1-2.58,7.247l2.064.56a41.681,41.681,0,0,0-.737-7.416c-.192-1.017-1.526-.973-2.02-.265-1.474,2.123-4.025,6.76-2.057,9.3,1.718,2.212,7.121,1.356,9.429,1.216,3.642-.206,4.961-2.514,5.359-5.949a14.566,14.566,0,0,0-.273-4.924c-.2-.87-2.212-6.384-2.816-6.273,1.4-.258.8-2.4-.59-2.138Z" transform="translate(-195.249 -147.047)" fill="#6c63ff"/><path d="M397.874,366.024l-6.038,7.969,1.909,1.113,4.423-6.4-2.02-.855-2.2,8.411a1.113,1.113,0,0,0,2.02.855,38.857,38.857,0,0,1,3.369-4.74l-1.843-1.076a12.039,12.039,0,0,1-2.779,5.109l1.85,1.076a9.879,9.879,0,0,1,.8-2.949c.568-1.275-1.231-2.4-1.909-1.121a25.948,25.948,0,0,1-2.13,3.347l2.02.265.45-2.1-2.02-.265.324,1.843a1.113,1.113,0,0,0,1.85.487,22.013,22.013,0,0,0,4.423-6.672h-1.9a9.931,9.931,0,0,1,1.039,2.949c.265,1.327,2.027.833,2.167-.295a59.927,59.927,0,0,0,.487-7.446h-2.212v4.637c0,1.2,1.968,1.555,2.175.295a8.448,8.448,0,0,1,1.084-3.17h-1.939a4.918,4.918,0,0,1,.737,2.506,1.106,1.106,0,0,0,2.212,0l.28-1.474h-2.131c.214,1.3,1.025,8.655-1.858,7.792-.487-.118-.627-.088-.42.081l.656-1.4,1.541-3.266-2.064-.56c.133,1.519.273,3.686-.641,4.983a3.819,3.819,0,0,1-4.165.855,7.374,7.374,0,0,1-1.924-2.02l-1.511,1.474c1.224.892,3.207,3.081,4.784,3.207,1.2.1,2.212-.9,3-1.7a12.849,12.849,0,0,0,3.6-9.458,1.106,1.106,0,1,0-2.212,0v2.521a1.106,1.106,0,1,0,2.212,0v-6.185a1.106,1.106,0,1,0-2.212,0,26.537,26.537,0,0,1-.383,4.423l2.175.295a50.927,50.927,0,0,1-.243-5.3,1.106,1.106,0,0,0-2.167-.295c-.332,1.408-.737,2.794-1.128,4.173l2.02-.265-.155-.59c-.1-1.408-2.315-1.415-2.212,0a4.047,4.047,0,0,0,.457,1.71,1.117,1.117,0,0,0,2.02-.265c.42-1.386.8-2.772,1.128-4.173l-2.175-.295a50.946,50.946,0,0,0,.243,5.3c.111,1.135,1.939,1.622,2.167.295a30.477,30.477,0,0,0,.464-5.043h-2.212v6.185h2.212v-2.521h-2.212a10.631,10.631,0,0,1-2.691,7.578,9.067,9.067,0,0,1-.929.914c-.523.5-1,.428-1.423-.229a18.418,18.418,0,0,1-3.045-2.212c-.914-.656-2.167.641-1.519,1.511,1.7,2.256,4.224,4.77,7.372,3.686,3.31-1.172,3.76-5.654,3.509-8.6-.081-.98-1.548-1.644-2.057-.553-.737,1.556-1.474,3.1-2.212,4.666a4.123,4.123,0,0,0-.663,1.946c.243,1.659,2.256,1.386,3.494,1.29,4.8-.361,4.04-7.166,3.487-10.586-.184-1.135-1.836-.958-2.13,0a6.511,6.511,0,0,0-.361,2.094h2.212a8.766,8.766,0,0,0-1.039-3.62,1.113,1.113,0,0,0-1.909,0,10.75,10.75,0,0,0-1.312,3.686l2.212.295v-4.637a1.106,1.106,0,1,0-2.212,0,59.941,59.941,0,0,1-.487,7.446l2.175-.295a12.659,12.659,0,0,0-1.261-3.45,1.113,1.113,0,0,0-1.909,0,20.17,20.17,0,0,1-4.077,6.222l1.85.487-.324-1.843c-.17-.98-1.556-1.01-2.02-.265a4.851,4.851,0,0,0-.671,3.8c.184,1.047,1.511.936,2.02.265a25.864,25.864,0,0,0,2.13-3.34l-1.909-1.121a12.578,12.578,0,0,0-1.032,3.472c-.133.973,1.025,1.99,1.85,1.076a14.746,14.746,0,0,0,3.347-6.089c.273-1-1.113-1.954-1.85-1.076a42.234,42.234,0,0,0-3.686,5.16l2.02.855,2.248-8.382a1.113,1.113,0,0,0-2.02-.855l-4.423,6.406c-.826,1.187,1.069,2.212,1.909,1.113l6.016-7.962c.855-1.135-1.062-2.212-1.909-1.121Z" transform="translate(-195.609 -147.732)" fill="#6c63ff"/><path d="M527.175,375.465c8.846-5.411,15.879-13.483,23.694-20.236,8.478-7.32,17.376-14.139,26.539-20.6,17.8-12.532,36.484-23.745,55.157-34.928a1.106,1.106,0,0,0-1.113-1.909c-18.673,11.183-37.369,22.374-55.165,34.928-8.4,5.9-16.594,12.149-24.453,18.784-8.551,7.225-16.167,16.218-25.8,22.05-1.216.737-.1,2.654,1.113,1.909Z" transform="translate(-230.858 -130.567)" fill="#6c63ff"/><path d="M698.906,253.848c-9.584.973-19.9,3.413-25.8,11.8-5.094,7.21-4.983,19.786-.2,27.188,5.433,8.411,16.535,8.714,25.161,5.993s17.553-7.49,17.472-17.8c-.044-5.529-2.042-11.286-4.246-16.3-1.9-4.327-5.271-8.109-10.372-7.63-1.408.133-1.423,2.344,0,2.212,6.834-.634,9.031,7.483,10.653,12.606,1.475,4.784,2.838,10.446.524,15.2s-7.9,7.18-12.665,8.92c-5.16,1.872-10.83,3.015-16.218,1.474C672.536,294.526,669.588,281,672.662,271.4c3.539-11.058,16.071-14.309,26.281-15.341,1.4-.14,1.415-2.352,0-2.212Z" transform="translate(-268.647 -119.051)" fill="#6c63ff"/><path d="M718.906,369.848c-9.583.973-19.9,3.413-25.8,11.8-5.094,7.21-4.983,19.786-.2,27.188,5.433,8.411,16.535,8.714,25.161,5.993s17.553-7.49,17.472-17.8c-.044-5.529-2.042-11.286-4.246-16.3-1.9-4.327-5.271-8.109-10.372-7.63-1.408.133-1.423,2.344,0,2.212,6.834-.634,9.031,7.483,10.652,12.606,1.474,4.784,2.838,10.446.523,15.2s-7.9,7.18-12.665,8.92c-5.16,1.872-10.829,3.015-16.218,1.474C692.536,410.526,689.588,397,692.662,387.4c3.539-11.058,16.071-14.309,26.281-15.341,1.4-.14,1.415-2.352,0-2.212Z" transform="translate(-273.903 -149.536)" fill="#6c63ff"/><path d="M689.755,269.618l6.981,7.962a1.113,1.113,0,0,0,1.843-.494c1.474-3.878,1.194-7.9,1.541-11.972a39.413,39.413,0,0,1,3.133-12.215,41.23,41.23,0,0,1,16.5-18.909c1.216-.737.1-2.654-1.113-1.909a43.288,43.288,0,0,0-16.683,18.327,42.366,42.366,0,0,0-3.686,11.7c-.737,4.784-.066,9.8-1.835,14.39l1.85-.494-6.944-7.947c-.944-1.069-2.5.5-1.563,1.563Z" transform="translate(-273.952 -113.288)" fill="#6c63ff"/><path d="M532.219,413.706q57.037-1.74,114.1-.737a1.107,1.107,0,0,0,0-2.212q-57.052-1.017-114.1.737C530.8,411.538,530.789,413.75,532.219,413.706Z" transform="translate(-232.341 -160.19)" fill="#6c63ff"/><path d="M697.909,384.521a228.475,228.475,0,0,1,37.354,18.769c1.209.737,2.322-1.157,1.113-1.909a230.909,230.909,0,0,0-37.848-18.99c-1.32-.523-1.895,1.615-.582,2.13Z" transform="translate(-275.98 -152.812)" fill="#6c63ff"/><path d="M722.451,371.59a90.307,90.307,0,0,0-21.681,54.943c-.059,1.423,2.153,1.423,2.212,0a87.83,87.83,0,0,1,21.032-53.381C724.935,372.076,723.38,370.506,722.451,371.59Z" transform="translate(-276.917 -149.899)" fill="#6c63ff"/><path d="M329.839,402.735l82.4-1.076,9.473-.125c1.7,0,3.406-.059,5.109-.066a4.063,4.063,0,0,1,3.966,4.423c-.11,5.16-3.354,4.976-7.6,5.16l-10.24.464-41.7,1.836c-7.468.332-14.943.737-22.411,1-6.738.206-19.551-1.99-16.557-11.8.413-1.364-1.718-1.946-2.138-.59-1.474,4.821,1.135,9.716,5.337,12.245,5.964,3.583,13.822,2.366,20.406,2.072l51.191-2.322L419.5,413.4c3.185-.147,7.615.5,10.542-.981,3.435-1.732,4.04-8.61,1.872-11.508-1.113-1.474-2.676-1.607-4.423-1.673-4.585-.177-9.252.125-13.845.184l-25.522.339-58.32.737a1.107,1.107,0,0,0,0,2.212Z" transform="translate(-179.148 -157.247)" fill="#6c63ff"/><g transform="translate(473.239 165.591)"><path d="M778.118,765.933c-1.858,1.165-3.981,1.821-5.9,2.846s-3.782,2.565-4.327,4.689a2.948,2.948,0,0,0,.1,2.005,3.892,3.892,0,0,0,2.064,1.637,31.323,31.323,0,0,0,24.777.28,32.672,32.672,0,0,1,4.276-1.7,27.792,27.792,0,0,1,5.477-.56,42.1,42.1,0,0,0,5.758-.737,5.065,5.065,0,0,0,2.61-1.084,4.843,4.843,0,0,0,1.172-2.816,23.186,23.186,0,0,0-3.686-16.425,5.55,5.55,0,0,0-1.607-1.7,6.2,6.2,0,0,0-2.558-.686c-3.686-.45-7.549-1.275-11.272-1.364-2.669-.059-4.01,1.209-5.9,3.045C785.2,757.264,782.925,762.933,778.118,765.933Z" transform="translate(-767.762 -415.116)" fill="#323444"/><path d="M855.345,765.262c0,3.612.435,7.439,2.625,10.321a13.633,13.633,0,0,0,3.583,3.133c4.63,2.949,10.763,4.032,15.643,1.533a4.644,4.644,0,0,0,1.946-1.637c.737-1.283.347-2.882-.066-4.3l-7.062-24.475c-4.563.7-11.272,1.194-15.326,3.509C853.746,755.023,855.345,762.033,855.345,765.262Z" transform="translate(-790.665 -414.99)" fill="#323444"/><path d="M774.9,563.959c-.428,1.349-1.976,1.976-2.823,3.111-1,1.334-.892,3.185-.531,4.807a12.708,12.708,0,0,0,3.236,6.377,7.645,7.645,0,0,0,6.635,2.256,5.528,5.528,0,0,0,4.5-4.961,9.393,9.393,0,0,0-.693-3.192L780.2,557.818a.55.55,0,0,0-.907-.4c-1.187.56-3.568,1.15-4.261,2.381S775.4,562.624,774.9,563.959Z" transform="translate(-768.69 -364.392)" fill="#fbb3b2"/><path d="M773,561.048c1.836-.287,3.443-1.364,5.16-2.072s3.87-.981,5.315.2c.413.339.811.8,1.349.8a52.787,52.787,0,0,0-3.3-10.5.819.819,0,0,0-.288-.406.833.833,0,0,0-.627,0l-4.961,1.3c-1.836.479-2.049.332-1.909,2.138C773.774,553.307,774.187,561.048,773,561.048Z" transform="translate(-769.139 -362.211)" fill="#323444"/><path d="M771.2,422.836a6.988,6.988,0,0,0-.737,3.885,132.088,132.088,0,0,0,1.032,19.543c.229,1.548.516,3.1.664,4.659a53.762,53.762,0,0,1,.1,6.539l-.737,28.382c-.089,3.472-.265,7.2-2.411,9.93a4.748,4.748,0,0,0-.863,3.148c.56,7.121,1.74,14.184,2.912,21.224a13.115,13.115,0,0,1,11.9.568,130.966,130.966,0,0,0,6.111-36.123c.17-6.038-.089-12.112.84-18.076,1.555-10.041.921-20.339-.221-30.439-.361-3.2-1.128-6.495-3.177-8.972a13.6,13.6,0,0,0-7.372-4.246C776.518,422.143,774.078,422.88,771.2,422.836Z" transform="translate(-767.887 -328.977)" fill="#5b5583"/><path d="M771.2,422.836a6.988,6.988,0,0,0-.737,3.885,132.088,132.088,0,0,0,1.032,19.543c.229,1.548.516,3.1.664,4.659a53.762,53.762,0,0,1,.1,6.539l-.737,28.382c-.089,3.472-.265,7.2-2.411,9.93a4.748,4.748,0,0,0-.863,3.148c.56,7.121,1.74,14.184,2.912,21.224a13.115,13.115,0,0,1,11.9.568,130.966,130.966,0,0,0,6.111-36.123c.17-6.038-.089-12.112.84-18.076,1.555-10.041.921-20.339-.221-30.439-.361-3.2-1.128-6.495-3.177-8.972a13.6,13.6,0,0,0-7.372-4.246C776.518,422.143,774.078,422.88,771.2,422.836Z" transform="translate(-767.887 -328.977)" opacity="0.1"/><path d="M783.621,531.051a130.2,130.2,0,0,0,7.755,75.371,20.434,20.434,0,0,1,1.8,5.573c.405,3.612-1.26,7.085-2.211,10.579-2.212,7.947-.936,16.41.479,24.541q.885,5.087,1.821,10.166c.612,3.3,1.2,6.893-.332,9.886,1.32,5.5,2.1,10.947,3.421,16.447a3.129,3.129,0,0,1,.125,1.349,3.972,3.972,0,0,1-1.349,1.806,8.065,8.065,0,0,0-2.057,7.719c3.369-2.418,8.065-1.57,11.913,0s7.637,3.686,11.8,3.686c-.6-4.88-1.187-10,.612-14.582,1.047-2.654,2.89-5.16,2.838-8-.052-2.543-1.607-4.814-1.983-7.328a18.553,18.553,0,0,1,.177-4.689c.988-9.023-.133-18.135-1.253-27.144a16.22,16.22,0,0,0-1.239-5.16c-.523-1.062-1.3-2.079-1.29-3.266,0-1.379,1.113-2.5,1.526-3.811.737-2.418-.619-5.706,1.423-7.2,5.382-3.951,3.317-13.388,3.2-20.059q-.14-8.633-.737-17.25a73.475,73.475,0,0,1,4.069,29.739c-.236,3.3-.671,6.775.619,9.827.988,2.344,2.949,4.276,3.48,6.76a28.3,28.3,0,0,1,.17,4.681,4.823,4.823,0,0,0,1.954,4.055c.1,7.107.737,14.707.848,21.814a53.811,53.811,0,0,0,.884,10.837,13.809,13.809,0,0,1,.546,3.494,14.6,14.6,0,0,1-1.165,4.3,24.645,24.645,0,0,0,3.686,22.743c1.74-3.089,5.367-4.725,8.905-4.984s7.033.634,10.461,1.533a20.486,20.486,0,0,1,2.448-12.459,10.2,10.2,0,0,0,1.29-2.772c.4-1.872-.531-3.738-1.032-5.588-.818-2.949-.531-6.126-.339-9.208a145.7,145.7,0,0,0-1.364-30.9,26.178,26.178,0,0,0-1.408-5.9c-.265-.678-.59-1.327-.811-2.013a15.868,15.868,0,0,1-.59-3.774l-.848-11.8c-.6-8.264,2.116-16.425,4.01-24.49.848-3.612,1.769-7.217,2.337-10.888.774-5,.9-10.107,2.035-15.039,1.017-4.423,2.853-8.736,3.236-13.27.59-7.026-2.33-13.815-5.16-20.258-1.18-2.654-5.64-2.388-8.507-2.86-20.339-3.34-41.762-3.362-60.944,4.165A15.164,15.164,0,0,0,783.621,531.051Z" transform="translate(-771.296 -354.883)" fill="#3c354c"/><path d="M803.3,354.932l2.256,8.773a23.443,23.443,0,0,1,1.01,6.2,4.578,4.578,0,0,1-.494,2.212,5.272,5.272,0,0,1-1.4,1.43c-1.541,1.172-2.61,3.907-4.372,4.718.907,1.578,2.16.553,3.8,1.342,2.882,1.4,5.522,3.413,8.647,4.106,2.949.649,6.045.037,8.972-.737a30.98,30.98,0,0,0,11.618-5.4c3.34-2.72,5.241-5.124,5.227-9.421-3.686.435-6.967-3.288-8.6-6.635a18.028,18.028,0,0,1-1.239-3.974l-1.976-8.692c-2.153.472-3.907,2.013-5.964,2.816a21.654,21.654,0,0,1-6.775.98,72.981,72.981,0,0,0-12.061,1.563c-.545.111-1.231.457-1.1.988" transform="translate(-776.313 -309.61)" fill="#fbb3b2"/><path d="M803.3,354.932l2.256,8.773a23.443,23.443,0,0,1,1.01,6.2,4.578,4.578,0,0,1-.494,2.212,5.272,5.272,0,0,1-1.4,1.43c-1.541,1.172-2.61,3.907-4.372,4.718.907,1.578,2.16.553,3.8,1.342,2.882,1.4,5.522,3.413,8.647,4.106,2.949.649,6.045.037,8.972-.737a30.98,30.98,0,0,0,11.618-5.4c3.34-2.72,5.241-5.124,5.227-9.421-3.686.435-6.967-3.288-8.6-6.635a18.028,18.028,0,0,1-1.239-3.974l-1.976-8.692c-2.153.472-3.907,2.013-5.964,2.816a21.654,21.654,0,0,1-6.775.98,72.981,72.981,0,0,0-12.061,1.563c-.545.111-1.231.457-1.1.988" transform="translate(-776.313 -309.61)" opacity="0.1"/><circle cx="19.521" cy="19.521" r="19.521" transform="translate(17.153 11.116)" fill="#fbb3b2"/><path d="M816.719,375.889a17.693,17.693,0,0,1,4.423-5.9c2.75-2.411,6.509-4.364,7.158-7.962l5.957,6.937a3.2,3.2,0,0,1,.737,1.135,2.86,2.86,0,0,1-.56,2.293c-1.475,2.352-3.8,4.032-5.993,5.735A182.018,182.018,0,0,0,814,390.869a1.474,1.474,0,0,1-.774.472,1.394,1.394,0,0,1-.8-.228,33.535,33.535,0,0,1-10.3-8.375c-.214-.258-.479-.553-.826-.531a1.061,1.061,0,0,0-.553.288c-1.983,1.622-4.151,3.561-6.694,3.31,3.3-2.366,5.16-6.318,5.853-10.321a19.5,19.5,0,0,1,.84-4.033,4.209,4.209,0,0,1,2.875-2.728c-1.607,2.455-.509,5.934,1.651,7.918a16.279,16.279,0,0,0,7.313,3.546C815.09,380.659,815.827,377.821,816.719,375.889Z" transform="translate(-774.671 -313.074)" fill="#323444"/><path d="M787.078,532.235c2.779.686,5.411,1.85,8.109,2.713a38.753,38.753,0,0,0,15.223,1.6,8.22,8.22,0,0,0,4.423-1.408c.346-.28.664-.612,1.032-.87a7.222,7.222,0,0,1,1.983-.818c6.76-2.116,12.422-6.679,17.914-11.146.177-.147.376-.332.361-.568a.738.738,0,0,0-.221-.42L833.013,518c-7.578,1.29-15.341.8-23.03.612a33.424,33.424,0,0,0-4.733.125c-1.519.177-3.015.56-4.512.885-5.684,1.238-11.493,1.71-17.25,2.521a2.663,2.663,0,0,0-1.143.354,2.575,2.575,0,0,0-.612.678l-2.02,2.838a8.928,8.928,0,0,0-1.7,3.251c-.472,2.212.516,2.949,2.4,2.661A17.5,17.5,0,0,1,787.078,532.235Z" transform="translate(-770.427 -354.063)" fill="#323444"/><path d="M807.809,389.989a35.909,35.909,0,0,0-7.6-5.934,10.77,10.77,0,0,0-3.686-1.474,4.6,4.6,0,0,0-3.775.929c-.656.582-1.069,1.393-1.7,2.005a8.47,8.47,0,0,1-2.7,1.526,47.859,47.859,0,0,0-9.48,5.4,21.743,21.743,0,0,0-4.3,3.966c-3.339,4.276-3.841,10.092-3.752,15.518.066,3.774,3.686,6.576,6.178,9.4a69.265,69.265,0,0,1,6.325,8.846c1.342,2.123,2.742,4.423,2.573,6.952-.14,2.071-1.349,4.018-1.157,6.082.066.737.3,1.415.369,2.13.133,1.474-.45,2.949-.6,4.423-.2,2.086.479,4.158.516,6.259a19.91,19.91,0,0,1-.546,4.268c-1.415,6.738-3.192,13.513-2.831,20.391l-4.084.737a3.45,3.45,0,0,1-.789,5.507c6.377,2.131,13.27,1.054,20.03,1.047,5.6,0,11.169.737,16.756.634s11.353-1.113,15.96-4.276c1.253-.855,2.4-1.858,3.723-2.6a18.365,18.365,0,0,1,5.639-1.843,55.951,55.951,0,0,1,11.058-.988c1.813,0,3.789.074,5.234-1.017,1.592-1.209,2-3.4,2.212-5.382.214-2.094.347-4.195.383-6.3a27.147,27.147,0,0,0-.258-4.9,32.109,32.109,0,0,0-.862-3.509l-2.779-9.79c-1.15-4.04.45-8.47.789-12.658.081-.988.1-2.138-.663-2.772-.273-.229-.649-.383-.737-.737a1.261,1.261,0,0,1,.177-.988,54.57,54.57,0,0,1,5.706-8.212,167.861,167.861,0,0,0,9.436-14.5,46.658,46.658,0,0,0-12.488-27.925,13.513,13.513,0,0,0-5.227-3.856,15.478,15.478,0,0,0-4.158-.671c-5.78-.391-11.8-.737-16.83-3.642a3.2,3.2,0,0,0-1.2-.509c-1.113-.125-1.924.973-2.647,1.843-1.858,2.212-4.593,3.48-7,5.109C814.547,381.533,811.046,385.72,807.809,389.989Z" transform="translate(-768.562 -315.569)" fill="#5b5583"/><path d="M893.861,422.284c1.15,3.642,1.039,7.534,1.415,11.331a44.066,44.066,0,0,0,1.2,6.79,10.841,10.841,0,0,0,1.4,3.457,15.2,15.2,0,0,1,2.035,2.86,6.909,6.909,0,0,1,.3,2.3l.089,5.087a18.291,18.291,0,0,1-1.2,7.917l-3.177,9.665c-1.718,5.234-3.48,10.549-6.576,15.105a4.357,4.357,0,0,1-1.895,1.777,9.207,9.207,0,0,1-1.909.295,4.91,4.91,0,0,0-4.047,4.77,11.2,11.2,0,0,0-2.72-2.779l-6.465-5.16a27.635,27.635,0,0,0-7.2-4.667,19.529,19.529,0,0,0,13.579-16.41,7.372,7.372,0,0,1,.737-3.229c.538-.87,1.533-1.533,1.607-2.558.088-1.29-1.371-2.263-1.371-3.553,0-.855.634-1.563.914-2.366a5.943,5.943,0,0,0,0-3.03l-.892-4.954a3.783,3.783,0,0,0-.442-1.415,9.155,9.155,0,0,0-1.106-1.165c-1.533-1.718-.855-4.423,0-6.539a62.505,62.505,0,0,1,7.534-13.218,45.182,45.182,0,0,0,3-4.29c.781-1.356.958-3.236,1.784-4.423C891.516,416.667,892.954,419.416,893.861,422.284Z" transform="translate(-793.345 -326.7)" fill="#5b5583"/><path d="M863.31,505.139a3.553,3.553,0,0,0-.84.885,7.453,7.453,0,0,1-3.339,2.381c.737.531,1.408,1.054,2.1,1.592a92.066,92.066,0,0,1,14.007,13.395c.464-1.659,3.244-1.541,3.922-3.126a3.059,3.059,0,0,0,.148-1.415,43.17,43.17,0,0,0-1.062-7.372,8.343,8.343,0,0,0-1.474-3.45,8.848,8.848,0,0,0-4.172-2.359C870.277,504.859,865.669,503.716,863.31,505.139Z" transform="translate(-791.774 -350.505)" fill="#323444"/><path d="M848.051,512.4c-2.212,1.637-4.15,3.686-6.635,4.806-1.755.8-3.752,1.143-5.286,2.33a5.252,5.252,0,0,0,5.013,2.713,11.913,11.913,0,0,0,5.61-2.057c1.32-.811,2.868-1.754,4.305-1.187.221,1.121-.737,2.175-.737,3.31a3.337,3.337,0,0,0,1.873,2.558c4.423,2.853,10.114,2.617,15.385,2.285a1.387,1.387,0,0,0,.848-.251,1.335,1.335,0,0,0,.317-.973c.066-1.165.1-2.322.1-3.487a5,5,0,0,0-2.138-4.925A60.166,60.166,0,0,0,857.494,511C854.25,509.119,850.962,510.232,848.051,512.4Z" transform="translate(-785.729 -351.971)" fill="#fbb3b2"/><path d="M824.9,326.092c-3.273.391-5.654,2.949-5.323,5.728s3.251,4.7,6.524,4.3,5.654-2.949,5.323-5.721S828.175,325.7,824.9,326.092Zm1.113,9.259c-2.772.332-5.242-1.3-5.529-3.642s1.74-4.512,4.5-4.843,5.242,1.3,5.529,3.642S828.779,335.02,826.015,335.351Z" transform="translate(-781.371 -303.616)" fill="#3c354c"/><path d="M803.262,328.692c-3.273.391-5.654,2.949-5.323,5.721s3.251,4.7,6.524,4.305,5.654-2.949,5.323-5.728S806.535,328.3,803.262,328.692Zm1.113,9.252c-2.772.332-5.242-1.3-5.522-3.634s1.732-4.512,4.5-4.851,5.241,1.3,5.521,3.642-1.74,4.512-4.5,4.843Z" transform="translate(-775.684 -304.299)" fill="#3c354c"/><path d="M663.175,259.64l7.114,1.519-.7,1.872-6.708-1.968Z" transform="translate(-647.445 -233.824)" fill="#3c354c"/><path d="M714.731,253.18l-6.561,3.163,1.128,1.651,6.052-3.5Z" transform="translate(-659.347 -232.127)" fill="#3c354c"/><path d="M687.31,260.847l4.991-.6-.258,1.239-4.283.287Z" transform="translate(-653.865 -233.985)" fill="#3c354c"/><path d="M795.68,320.81a7.922,7.922,0,0,0,.737-3.222,6.881,6.881,0,0,1,.339-1.961,5.485,5.485,0,0,1,1.607-2.057,14.869,14.869,0,0,1,8.846-3.089,20.451,20.451,0,0,1,10.232,2.212,7.962,7.962,0,0,1,2.543,1.887c1.032,1.261,1.253,2.89,2.293,4.136a6.023,6.023,0,0,0,5.647,1.769c.361-1.283-.111-2.639.074-3.951a19.1,19.1,0,0,1,1.172-3.273c1.143-3.369-.524-7.276-3.959-9.289-1.2-.737-2.624-1.216-3.524-2.212a16.675,16.675,0,0,1-1.732-3.022c-1.644-2.632-5.9-3.863-9.134-2.647-1.017.383-1.917.966-2.949,1.379a24.3,24.3,0,0,1-6.207,1.194,19.011,19.011,0,0,0-6.016,1.578,6.737,6.737,0,0,0-3.767,4.069c-.2.8-.155,1.622-.354,2.411-1.017,4-7.586,5.949-7.954,10.033a5.855,5.855,0,0,0,1.674,4.092c.693.818,2.352,3.008,3.524,3.325s2.064-.8,3.185-1.18C793.726,322.44,794.795,322.322,795.68,320.81Z" transform="translate(-771.914 -295.621)" fill="#333"/></g><path d="M912.81,682c0,37.037,23.237,67.011,51.95,67.011" transform="translate(-332.642 -231.571)" fill="#d4d2ff"/><path d="M983.28,748.753c0-37.457,25.935-67.763,57.981-67.763" transform="translate(-351.161 -231.306)" fill="#6c63ff"/><path d="M938.35,686.56c0,35.187,14.818,63.657,33.122,63.657" transform="translate(-339.354 -232.77)" fill="#6c63ff"/><path d="M983.28,742.042c0-47.859,29.974-86.592,67.011-86.592" transform="translate(-351.161 -224.594)" fill="#d4d2ff"/><ellipse cx="12.916" cy="2.182" rx="12.916" ry="2.182" transform="translate(616.955 525.881)" fill="#6c63ff" opacity="0.1"/><path d="M968.46,772.131s7.372-.228,9.584-1.806,11.331-3.472,11.883-.936,11.058,12.613,2.75,12.68-19.329-1.3-21.541-2.646S968.46,772.131,968.46,772.131Z" transform="translate(-347.267 -254.212)" fill="#a8a8a8"/><path d="M992.832,782.6c-8.316.066-19.322-1.3-21.541-2.647-1.688-1.025-2.359-4.718-2.588-6.414h-.243s.465,5.942,2.684,7.291,13.225,2.713,21.541,2.647c2.4,0,3.229-.877,3.185-2.138C995.537,782.106,994.66,782.585,992.832,782.6Z" transform="translate(-347.267 -255.628)" opacity="0.2"/><path d="M148.31,711.36c0,29.488,18.482,53.314,41.327,53.314" transform="translate(-131.73 -239.287)" fill="#d4d2ff"/><path d="M204.37,764.461c0-29.8,20.642-53.911,46.127-53.911" transform="translate(-146.463 -239.074)" fill="#6c63ff"/><path d="M168.62,715c0,28.014,11.8,50.646,26.355,50.646" transform="translate(-137.068 -240.244)" fill="#6c63ff"/><path d="M204.37,759.121c0-38.076,23.848-68.891,53.314-68.891" transform="translate(-146.463 -233.734)" fill="#d4d2ff"/><ellipse cx="10.277" cy="1.74" rx="10.277" ry="1.74" transform="translate(45.839 532.096)" fill="#6c63ff" opacity="0.1"/><path d="M192.58,783.045s5.861-.184,7.623-1.474,9.023-2.764,9.458-.737,8.81,10.033,2.212,10.085-15.378-1.032-17.14-2.1S192.58,783.045,192.58,783.045Z" transform="translate(-143.365 -257.282)" fill="#a8a8a8"/><path d="M211.968,791.43c-6.635.052-15.378-1.032-17.14-2.108-1.342-.811-1.872-3.752-2.057-5.1h-.192s.369,4.725,2.131,5.8,10.527,2.153,17.14,2.1c1.909,0,2.573-.693,2.536-1.7C214.121,791.01,213.391,791.386,211.968,791.43Z" transform="translate(-143.365 -258.435)" opacity="0.2"/></svg>