<svg xmlns="http://www.w3.org/2000/svg" width="626.715" height="730.589" viewBox="0 0 626.715 730.589"><g transform="translate(-828 -175)"><g transform="translate(464.996 175)"><path d="M971.763,257.784h-4V148.239a63.4,63.4,0,0,0-63.4-63.4H672.276a63.4,63.4,0,0,0-63.4,63.4V749.213a63.4,63.4,0,0,0,63.4,63.4H904.362a63.4,63.4,0,0,0,63.4-63.4V335.76h4Z" transform="translate(-104.506 -84.839)" fill="#3f3d56"/><path d="M906.921,101.332H876.626A22.5,22.5,0,0,1,855.8,132.326H722.839a22.5,22.5,0,0,1-20.827-30.991h-28.3a47.348,47.348,0,0,0-47.348,47.348h0V748.772a47.348,47.348,0,0,0,47.348,47.348h233.2a47.348,47.348,0,0,0,47.348-47.348h0V148.68a47.348,47.348,0,0,0-47.348-47.348h0Z" transform="translate(-104.506 -84.839)" fill="#fff"/><circle cx="26" cy="26" r="26" transform="translate(656.382 653.242) rotate(-80.783)" fill="#e6e6e6"/><rect width="287.492" height="56.761" transform="translate(542.06 330.46)" fill="#e6e6e6"/><path d="M652.7,465.932H927.93v-44.5H652.7Z" transform="translate(-104.506 -84.839)" fill="#fff"/><path d="M676.789,426.357a16.955,16.955,0,1,1-16.955,16.955A16.955,16.955,0,0,1,676.789,426.357Z" transform="translate(-104.506 -84.839)" fill="#6c63ff"/><rect width="167.335" height="3.686" transform="translate(612.827 351.838)" fill="#e6e6e6"/><rect width="167.335" height="3.686" transform="translate(612.827 361.421)" fill="#e6e6e6"/><rect width="287.492" height="56.761" transform="translate(542.06 411.46)" fill="#e6e6e6"/><path d="M652.7,546.932H927.93v-44.5H652.7Z" transform="translate(-104.506 -84.839)" fill="#fff"/><circle cx="16.955" cy="16.955" r="16.955" transform="translate(555.328 422.518)" fill="#6c63ff"/><rect width="167.335" height="3.686" transform="translate(612.827 432.838)" fill="#e6e6e6"/><rect width="167.335" height="3.686" transform="translate(612.827 442.421)" fill="#e6e6e6"/><rect width="287.492" height="56.761" transform="translate(542.06 492.46)" fill="#e6e6e6"/><path d="M652.7,627.932H927.93v-44.5H652.7Z" transform="translate(-104.506 -84.839)" fill="#fff"/><circle cx="16.955" cy="16.955" r="16.955" transform="translate(555.328 503.518)" fill="#6c63ff"/><rect width="167.335" height="3.686" transform="translate(612.827 513.838)" fill="#e6e6e6"/><rect width="167.335" height="3.686" transform="translate(612.827 523.421)" fill="#e6e6e6"/><circle cx="80" cy="80" r="80" transform="translate(605.806 113.918)" fill="#6c63ff"/><path d="M829.094,252.147l-37.7,28.062a1.787,1.787,0,0,1-2.159,0l-37.7-28.062a3.59,3.59,0,0,1,2.875-2.367L790.312,276.5l35.907-26.719a3.589,3.589,0,0,1,2.875,2.367Z" transform="translate(-104.506 -84.839)" fill="#6c63ff"/><path d="M44.445,3.856,6.427,20.753V46.1c0,23.465,16.2,45.347,38.018,50.69C66.262,91.445,82.462,69.563,82.462,46.1V20.753Zm0,46.424H74.014c-2.239,17.4-13.834,32.906-29.569,37.743v-37.7H14.875V26.244L44.445,13.107V50.28Z" transform="translate(641.577 145.144)" fill="#fff"/></g><g transform="translate(1249.713 381.146)"><path d="M770.621,178.331s-1.918-6.9-4.8-8.631v8.631s-11.508-1.726-19.66,6.9l7.672,1.726s-11.269,3.74-13.666,19.851l4.8-2.3,12.947,27.619,8.152-14.96,16.3,16.686-3.836-9.206,6.234,2.877-4.316-7.48,19.181,8.631-1.439-4.6,7.028,11.776s24.141-25.01-2.233-51.478C802.988,184.373,791,171.714,770.621,178.331Z" transform="translate(-711.934 -169.701)" fill="#2f2e41"/><path d="M773.81,251s7.148,27.164,5,30.738,20.73,22.875,20.73,22.875l22.16-4.289,1.43-30.738S803.114,252.43,807.4,239.563Z" transform="translate(-717.337 -180.921)" fill="#ffb9b9"/><path d="M773.81,251s7.148,27.164,5,30.738,20.73,22.875,20.73,22.875l22.16-4.289,1.43-30.738S803.114,252.43,807.4,239.563Z" transform="translate(-717.337 -180.921)" opacity="0.1"/><path d="M751.089,457.578s-5.719,35.742-1.43,65.05,6.434,50.753,4.289,55.042-4.289,3.574-2.859,8.578,4.289,2.859,1.43,7.863-2.144,13.582-2.144,15.726-3.574,48.609,0,53.613,5,4.289,5,4.289l4.289,25.734,22.875-3.574-3.574-23.59s8.578-4.289,5-7.148-5.719-2.859-3.574-2.859,5.719-.715,2.859-2.145-.715-40.031-.715-40.031,5-70.769,25.019-68.624S843.3,589.108,843.3,589.108l5.719,18.586s2.144,35.027,3.574,37.886.715,3.574,0,5-5.719-2.145-.715,3.574,5,7.863,5,7.863l3.217,37.529L883.334,684.9V662.74s4.289-7.148,2.859-12.867-1.43-32.883,0-37.886.715-6.434-.715-8.578-5-.715-2.145-5.719,5-17.871.715-27.164-27.879-100.792-37.886-105.8S751.089,457.578,751.089,457.578Z" transform="translate(-713.202 -215.934)" fill="#2f2e41"/><path d="M784.129,719.694s-16.441-2.859-17.156,1.43a48.942,48.942,0,0,0,0,10.722s-5.719.715-5,5.719,1.43,18.586,1.43,18.586-8.935,21.088-3.932,26.092c.05.05,9.871-.357,15.516-.357H795.57s2.859-10.008,0-11.437-9.293-14.3-8.578-17.156,0-23.59,0-23.59l-3.157.178Z" transform="translate(-714.789 -257.881)" fill="#3f3d56"/><path d="M886.594,732.74l-8.578,6.434s3.574,12.152,1.43,14.3-6.791,26.807-2.5,28.236,30.738-.715,30.738-.715,29.666,1.072,30.38-.357,2.145-10.008-6.433-12.867-13.582-2.144-16.441-10.723S905.9,735.6,905.9,735.6l-1.43-15.726s-8.578,1.43-10.008,1.43-8.578,3.574-7.863,6.434a9.727,9.727,0,0,1,0,5Z" transform="translate(-733.618 -258.06)" fill="#3f3d56"/><circle cx="29.666" cy="29.666" r="29.666" transform="translate(38.959 19.686)" fill="#ffb9b9"/><path d="M802.117,285.32l10.723-18.742s25.019-1.274,26.449,1.586,13.582,144.4,13.582,144.4,5.719,7.863,2.144,12.867l-3.574,5v10.008s-17.871,14.3-42.175,11.437-55.042-15.726-55.042-15.726l6.434-40.031-.715-117.948,14.4-7.02s16.335,11.309,19.194,14.883S802.117,285.32,802.117,285.32Z" transform="translate(-714.191 -185.214)" fill="#6c63ff"/><path d="M772.447,285.335l-3.217-18.943-43.963,31.1,24.3,71.484s-15.012,27.164-12.152,37.172,4.289,25.019,4.289,25.019,38.6,10.008,37.886,5,0-27.164,0-27.164,12.5-92.574,6.249-106.691S772.447,285.335,772.447,285.335Z" transform="translate(-709.541 -185.229)" fill="#e6e6e6"/><path d="M827.013,275.355l-6.791-13.225c0-.414,48.249,6.26,50.4,10.365L864.9,382.581s.715,15.726,4.289,20.015,2.859,11.437,1.43,12.152-25.019,7.863-25.019,7.863-22.875-39.316-20.73-86.5S827.013,275.355,827.013,275.355Z" transform="translate(-724.791 -184.542)" fill="#e6e6e6"/><path d="M869.768,275.025l7.571-1.612a16.011,16.011,0,0,1,6.726,7.33c2.145,5,27.164,58.617,27.164,62.191s.715,30.023-15.012,30.023-27.879-67.2-27.879-67.2Z" transform="translate(-732.518 -186.357)" fill="#e6e6e6"/><path d="M624.055,388.761l12.867,19.3,7.148-24.3-5-7.148Z" transform="translate(-594.031 -114.95)" fill="#ffb9b9"/><path d="M610.447,199.337l-6.433-.714-15.727,84.35,27.164,84.351,23.59-17.871L622.6,292.981l5.718-43.6Z" transform="translate(-588.287 -86.365)" fill="#e6e6e6"/><path d="M814.389,213.785c-3.928-14.318-16.212-24.768-30.767-24.768a31.329,31.329,0,0,0-25.655,13.814l7.34,14.066,7.319-12.066,14.637,13.458-3.444-7.425,5.6,2.32-3.875-6.033,17.22,6.961-1.292-3.713,8.18,10.674A32.178,32.178,0,0,0,814.389,213.785Z" transform="translate(-714.793 -172.803)" fill="#2f2e41"/><path d="M746.261,210.865l19.261,16.793-9.968-21.8Z" transform="translate(-613.658 -87.527)" opacity="0.1"/><path d="M900.48,349.566,850.441,310.25,832.57,336.7s47.179,50.039,57.9,40.031S900.48,349.566,900.48,349.566Z" transform="translate(-726.774 -192.273)" fill="#e6e6e6"/></g><g transform="translate(828.005 644)"><path d="M314.557,419.585a48.454,48.454,0,0,1-12.012-1.554l-.773-.214-.717-.359c-25.933-13-47.811-30.177-65.027-51.046a193.241,193.241,0,0,1-32.833-58.3,224.4,224.4,0,0,1-12.689-79.049c.011-.565.02-1,.02-1.3,0-13.075,7.258-24.547,18.489-29.227,8.6-3.582,86.647-35.64,92.286-37.957,10.62-5.322,21.951-.88,23.764-.1,4.067,1.663,76.22,31.174,91.812,38.6,16.069,7.652,20.357,21.4,20.357,28.315,0,31.312-5.423,60.575-16.118,86.977a201.394,201.394,0,0,1-36.192,58.328c-29.545,33.249-59.1,45.035-59.383,45.139a32.291,32.291,0,0,1-10.983,1.754Zm-6.95-17.215c2.562.574,8.461,1.436,12.306.034,4.884-1.781,29.619-14.608,52.734-40.62,31.936-35.939,48.14-81.117,48.164-134.281-.057-1.077-.822-8.759-10.995-13.6-15.29-7.281-90.286-37.947-91.042-38.256l-.207-.088c-1.572-.659-6.574-2.046-10.021-.239l-.69.322c-.836.343-83.687,34.372-92.524,38.054-6.181,2.575-8.383,8.956-8.383,14.068,0,.374-.01.917-.023,1.619-.706,36.376,7.712,125.886,100.683,172.989Z" transform="translate(-190.465 -158)" fill="#3f3d56"/><path d="M309.261,172.579s-83.6,34.338-92.562,38.07-13.436,12.69-13.436,21.648-6.718,125.843,106,182.356c0,0,10.23,2.831,17.992,0s106.3-50.6,106.3-182.73c0,0,0-13.436-15.676-20.9s-91.466-38.443-91.466-38.443S317.1,168.474,309.261,172.579Z" transform="translate(-194.99 -162.535)" fill="#6c63ff"/><path d="M335.556,215.286V398.465s-84.351-40.6-83.6-147.348Z" transform="translate(-212.328 -178.369)" opacity="0.1"/><path d="M251.946,215.286V398.465s84.351-40.6,83.6-147.348Z" transform="translate(-128.328 -176.37)" fill="#fff" opacity="0.1"/><path d="M178.105,219.8l-26.87-34.549L166.861,173.1l12.723,16.358,42.98-45.372,14.373,13.617Z" transform="translate(-53.777 -51.234)" fill="#fff"/></g><g transform="translate(1169.776 578.166) rotate(-43)"><path d="M577.147,273.92h-4.206v-8.17a16.8,16.8,0,1,0-33.6-.227v8.4h-4.2a7.021,7.021,0,0,0-7,7v33.592a7.021,7.021,0,0,0,7,7h42a7.018,7.018,0,0,0,7-7V280.92A7.018,7.018,0,0,0,577.147,273.92ZM558.6,295.758v12.031a2.511,2.511,0,0,1-2.328,2.521,2.455,2.455,0,0,1-2.57-2.452V295.751a5.587,5.587,0,1,1,4.9,0Zm9.449-21.837H544.244v-8.4a11.9,11.9,0,0,1,23.8,0Z" transform="translate(-364.037 -180.546)" opacity="0.1"/><path d="M577.147,271.92h-4.206v-8.17a16.8,16.8,0,1,0-33.6-.227v8.4h-4.2a7.021,7.021,0,0,0-7,7v33.592a7.021,7.021,0,0,0,7,7h42a7.018,7.018,0,0,0,7-7V278.92A7.018,7.018,0,0,0,577.147,271.92ZM558.6,293.757v12.031a2.511,2.511,0,0,1-2.328,2.52,2.455,2.455,0,0,1-2.57-2.452V293.751a5.587,5.587,0,1,1,4.9,0Zm9.449-21.837H544.244v-8.4a11.9,11.9,0,0,1,23.8,0Z" transform="translate(-364.037 -179.167)" fill="#6c63ff"/></g><path d="M849.948,309.03s-9.293-28.594-20.73-23.59,4.289,35.027,4.289,35.027l10.008,6.434Z" transform="translate(524.147 192.952)" fill="#ffb9b9"/></g></svg>