<svg xmlns="http://www.w3.org/2000/svg" width="1920" height="973.913" viewBox="0 0 1920 973.913"><g transform="translate(0 -16.748)"><rect width="1920" height="973.913" transform="translate(0 16.748)" fill="#8f50f5"/><path d="M1321.917,9.63,499.864,573.978l-56.1-81.722L1146.786,9.63Z" transform="translate(327.997 7.118)" opacity="0.1"/><path d="M1619.351,9.63V91.352L462.864,885.282l-56.1-81.722L1563.264,9.63Z" transform="translate(300.649 7.118)" opacity="0.1"/><path d="M1558.011,147.95V268.176L664.9,881.306H489.75Z" transform="translate(361.989 109.354)" opacity="0.1"/><path d="M866.042,646.511a20.87,20.87,0,1,1,20.87-20.87,20.87,20.87,0,0,1-20.87,20.87Zm0-38.261a17.391,17.391,0,1,0,17.391,17.391A17.391,17.391,0,0,0,866.042,608.25Z" transform="translate(541.214 170.223)" fill="#3f3d56"/><path d="M627.042,277.511a20.87,20.87,0,1,1,20.87-20.87,20.869,20.869,0,0,1-20.87,20.87Zm0-38.261a17.391,17.391,0,1,0,17.391,17.391,17.391,17.391,0,0,0-17.391-17.391Z" transform="translate(364.562 -102.516)" fill="#f0f0f0"/><path d="M1038.591,294.653h-34.332V260.321h34.332Zm-31.692-2.641h29.051v-29.05H1006.9Z" transform="translate(658.8 -84.371)" fill="#3f3d56"/><path d="M1045.593,747.765l-23.418-25.107,25.106-23.417,23.417,25.106Zm-19.687-24.977,19.815,21.244,21.244-19.815-19.815-21.244Z" transform="translate(672.042 240.048)" fill="#f0f0f0"/><circle cx="17.528" cy="17.528" r="17.528" transform="translate(221.272 158.658)" fill="#f0f0f0"/></g></svg>