<svg width="253" height="189" viewBox="0 0 253 189" fill="none" xmlns="http://www.w3.org/2000/svg">
<path d="M252.177 165.935H0V166.061H252.177V165.935Z" fill="#EBEBEB"/>
<path d="M224.569 171.71H198.897V171.836H224.569V171.71Z" fill="#EBEBEB"/>
<path d="M50.2691 170.217H26.4585V170.343H50.2691V170.217Z" fill="#EBEBEB"/>
<path d="M200.733 169.37H191.055V169.496H200.733V169.37Z" fill="#EBEBEB"/>
<path d="M167.052 172.714H159.951V172.84H167.052V172.714Z" fill="#EBEBEB"/>
<path d="M155.457 172.714H137.583V172.84H155.457V172.714Z" fill="#EBEBEB"/>
<path d="M127.203 170.585H98.4602V170.711H127.203V170.585Z" fill="#EBEBEB"/>
<path d="M119.532 143.441H22.1463C21.3834 143.44 20.6522 143.136 20.1132 142.596C19.5742 142.056 19.2715 141.324 19.2715 140.561V3.66416C19.2781 2.90562 19.5838 2.18033 20.1221 1.64584C20.6603 1.11134 21.3877 0.810809 22.1463 0.809509H119.532C120.296 0.809509 121.028 1.11292 121.569 1.653C122.109 2.19308 122.412 2.92559 122.412 3.68937V140.561C122.412 141.325 122.109 142.057 121.569 142.598C121.028 143.138 120.296 143.441 119.532 143.441V143.441ZM22.1463 0.910381C21.4168 0.911717 20.7177 1.20243 20.2024 1.71872C19.687 2.23501 19.3976 2.93468 19.3976 3.66416V140.561C19.3976 141.291 19.687 141.99 20.2024 142.507C20.7177 143.023 21.4168 143.314 22.1463 143.315H119.532C120.262 143.314 120.962 143.023 121.478 142.507C121.994 141.991 122.285 141.291 122.286 140.561V3.66416C122.285 2.93422 121.994 2.23456 121.478 1.71842C120.962 1.20227 120.262 0.911714 119.532 0.910381H22.1463Z" fill="#EBEBEB"/>
<path d="M228.629 143.441H131.238C130.475 143.44 129.743 143.136 129.203 142.596C128.664 142.056 128.36 141.325 128.358 140.561V3.66416C128.366 2.90516 128.673 2.17988 129.212 1.64552C129.751 1.11117 130.479 0.810795 131.238 0.809509H228.629C229.387 0.812134 230.113 1.11326 230.65 1.64761C231.187 2.18196 231.492 2.90649 231.499 3.66416V140.561C231.499 141.323 231.197 142.054 230.659 142.594C230.121 143.134 229.391 143.438 228.629 143.441V143.441ZM131.238 0.910381C130.508 0.911714 129.809 1.20227 129.293 1.71842C128.776 2.23456 128.486 2.93422 128.484 3.66416V140.561C128.486 141.291 128.776 141.991 129.293 142.507C129.809 143.023 130.508 143.314 131.238 143.315H228.629C229.359 143.314 230.059 143.023 230.575 142.507C231.091 141.991 231.382 141.291 231.383 140.561V3.66416C231.382 2.93422 231.091 2.23456 230.575 1.71842C230.059 1.20227 229.359 0.911714 228.629 0.910381H131.238Z" fill="#EBEBEB"/>
<path d="M113.223 17.4631H29.5098V123.993H113.223V17.4631Z" fill="#E6E6E6"/>
<path d="M112.179 17.4631H28.4658V123.993H112.179V17.4631Z" fill="#FAFAFA"/>
<path d="M109.838 121.653V19.8085L30.811 19.8085V121.653H109.838Z" fill="white"/>
<path d="M70.3221 112.242C76.2218 112.242 81.0044 107.459 81.0044 101.559C81.0044 95.6597 76.2218 90.8771 70.3221 90.8771C64.4225 90.8771 59.6399 95.6597 59.6399 101.559C59.6399 107.459 64.4225 112.242 70.3221 112.242Z" fill="#FAFAFA"/>
<path d="M81.645 70.7281C81.645 72.6749 79.9302 74.1778 79.0224 75.7716C78.1146 77.3654 77.6102 79.6198 75.9963 80.5579C74.3823 81.496 72.2792 80.7899 70.3324 80.7899C68.3856 80.7899 66.2421 81.4658 64.6685 80.5579C63.0949 79.6501 62.5754 77.3906 61.6423 75.7716C60.7093 74.1526 59.0146 72.695 59.0146 70.7281C59.0146 68.7611 60.7295 67.2783 61.6423 65.7097C62.5552 64.1412 63.0545 61.8615 64.6685 60.9234C66.2824 59.9853 68.3805 60.6863 70.3273 60.6863C72.2741 60.6863 74.4227 60.0156 75.9912 60.9234C77.5598 61.8312 78.0893 64.0857 79.0174 65.7097C79.9454 67.3337 81.645 68.7863 81.645 70.7281Z" fill="#EBEBEB"/>
<path d="M82.6235 39.897L78.9468 42.7012L80.2732 47.1294L75.6533 47.2353L74.1251 51.6031L70.3223 48.9653L66.5245 51.6031L64.9963 47.2353L60.3714 47.1294L61.6978 42.7012L58.0261 39.897L61.6978 37.0978L60.3714 32.6696L64.9963 32.5637L66.5245 28.201L70.3223 30.8337L74.1251 28.201L75.6533 32.5637L80.2732 32.6696L78.9468 37.0978L82.6235 39.897Z" fill="#E0E0E0"/>
<path d="M210.27 164.069H220.231V123.499H210.27V164.069Z" fill="#F0F0F0"/>
<path d="M135.444 165.935H217.604V164.069H135.444V165.935Z" fill="#F0F0F0"/>
<path d="M210.271 123.499H132.817V164.069H210.271V123.499Z" fill="#F5F5F5"/>
<path d="M204.884 138.16H138.198V147.814H204.884V138.16Z" fill="#F0F0F0"/>
<path d="M204.884 150.795H138.198V160.448H204.884V150.795Z" fill="#F0F0F0"/>
<path d="M151.937 138.821H191.156C191.507 138.821 191.791 138.537 191.791 138.186V138.135C191.791 137.784 191.507 137.5 191.156 137.5H151.937C151.586 137.5 151.301 137.784 151.301 138.135V138.186C151.301 138.537 151.586 138.821 151.937 138.821Z" fill="#F5F5F5"/>
<path d="M151.937 151.455H191.156C191.507 151.455 191.791 151.171 191.791 150.82V150.769C191.791 150.418 191.507 150.134 191.156 150.134H151.937C151.586 150.134 151.301 150.418 151.301 150.769V150.82C151.301 151.171 151.586 151.455 151.937 151.455Z" fill="#F5F5F5"/>
<path d="M204.884 125.526H138.198V135.18H204.884V125.526Z" fill="#F0F0F0"/>
<path d="M151.937 126.192H191.156C191.507 126.192 191.791 125.907 191.791 125.557V125.506C191.791 125.155 191.507 124.871 191.156 124.871H151.937C151.586 124.871 151.301 125.155 151.301 125.506V125.557C151.301 125.907 151.586 126.192 151.937 126.192Z" fill="#F5F5F5"/>
<path d="M209.828 18.9478C213.316 15.4596 213.316 9.80411 209.828 6.3159C206.34 2.82769 200.685 2.82768 197.196 6.31589C193.708 9.8041 193.708 15.4596 197.196 18.9478C200.685 22.436 206.34 22.436 209.828 18.9478Z" fill="#F5F5F5"/>
<path d="M206.696 17.2884C209.267 14.718 209.267 10.5506 206.696 7.98028C204.126 5.40992 199.959 5.40992 197.388 7.98029C194.818 10.5507 194.818 14.718 197.388 17.2884C199.959 19.8588 204.126 19.8588 206.696 17.2884Z" fill="#EBEBEB"/>
<path d="M201.888 12.6315C201.888 12.8679 201.818 13.099 201.687 13.2956C201.555 13.4921 201.369 13.6453 201.15 13.7358C200.932 13.8263 200.692 13.85 200.46 13.8038C200.228 13.7577 200.015 13.6439 199.848 13.4767C199.68 13.3095 199.567 13.0965 199.521 12.8647C199.474 12.6328 199.498 12.3925 199.589 12.1741C199.679 11.9556 199.832 11.7689 200.029 11.6376C200.225 11.5063 200.456 11.4362 200.693 11.4362C201.01 11.4362 201.314 11.5621 201.538 11.7863C201.762 12.0104 201.888 12.3145 201.888 12.6315V12.6315Z" fill="white"/>
<path d="M206.135 23.6768C205.199 23.6796 204.266 23.5815 203.351 23.3843C203.183 23.3356 203.041 23.224 202.954 23.073C202.867 22.922 202.842 22.7432 202.884 22.5739C202.925 22.4047 203.031 22.2581 203.178 22.1647C203.325 22.0714 203.503 22.0385 203.674 22.073C203.719 22.073 208.344 23.1674 211.491 20.6911C213.508 19.1124 214.517 16.399 214.517 12.6214C214.517 12.4421 214.588 12.2702 214.715 12.1435C214.842 12.0168 215.014 11.9456 215.193 11.9456C215.372 11.9456 215.544 12.0168 215.671 12.1435C215.798 12.2702 215.869 12.4421 215.869 12.6214C215.869 16.8277 214.674 19.8992 212.313 21.7452C210.527 23.06 208.352 23.7399 206.135 23.6768V23.6768Z" fill="#EBEBEB"/>
<path d="M214.618 13.7109C214.286 13.7109 213.968 13.5792 213.734 13.3446C213.499 13.11 213.367 12.7919 213.367 12.4601V10.0947C213.367 9.76031 213.5 9.4396 213.736 9.20314C213.973 8.96667 214.294 8.83383 214.628 8.83383C214.962 8.83383 215.283 8.96667 215.52 9.20314C215.756 9.4396 215.889 9.76031 215.889 10.0947V12.4601C215.888 12.6259 215.855 12.7899 215.79 12.9427C215.726 13.0955 215.632 13.234 215.514 13.3503C215.396 13.4666 215.256 13.5583 215.102 13.6202C214.948 13.6821 214.784 13.7129 214.618 13.7109V13.7109Z" fill="#EBEBEB"/>
<path d="M126.089 188.712C180.096 188.712 223.878 186.156 223.878 183.002C223.878 179.849 180.096 177.293 126.089 177.293C72.0811 177.293 28.2993 179.849 28.2993 183.002C28.2993 186.156 72.0811 188.712 126.089 188.712Z" fill="#F5F5F5"/>
<path d="M225.139 29.7694H127.909V100.596H225.139V29.7694Z" fill="#263238"/>
<path d="M153.747 62.4214C153.25 62.3895 152.764 62.2556 152.32 62.028C152.021 61.8892 151.708 61.781 151.387 61.7052C151.054 61.6523 150.716 61.632 150.378 61.6447C149.891 61.6833 149.4 61.6233 148.936 61.4681C148.493 61.2455 148.099 60.9369 147.776 60.5603C147.549 60.3169 147.301 60.0941 147.035 59.8946C146.745 59.7223 146.441 59.5754 146.127 59.4558C145.658 59.3046 145.226 59.0592 144.856 58.7345C144.533 58.3651 144.288 57.9346 144.134 57.4686C144.021 57.1512 143.874 56.8469 143.696 56.5608C143.5 56.2894 143.277 56.0392 143.03 55.8143C142.652 55.494 142.345 55.0991 142.127 54.6543C141.973 54.1918 141.911 53.7033 141.946 53.2169C141.96 52.8797 141.941 52.5418 141.89 52.2082C141.813 51.8884 141.703 51.5774 141.562 51.2802C141.305 50.8477 141.169 50.3537 141.169 49.8503C141.169 49.347 141.305 48.8529 141.562 48.4205C141.703 48.1213 141.812 47.8087 141.89 47.4874C141.942 47.1538 141.96 46.816 141.946 46.4787C141.911 45.9907 141.973 45.5006 142.127 45.0363C142.346 44.5938 142.654 44.2008 143.03 43.8813C143.277 43.6564 143.5 43.4063 143.696 43.1348C143.873 42.8482 144.02 42.544 144.134 42.227C144.289 41.76 144.534 41.328 144.856 40.956C145.229 40.636 145.661 40.3911 146.127 40.2348C146.444 40.1203 146.748 39.9733 147.035 39.796C147.303 39.6026 147.551 39.3829 147.776 39.1404C148.101 38.7679 148.495 38.4614 148.936 38.2376C149.4 38.0824 149.891 38.0224 150.378 38.061C150.716 38.0737 151.054 38.0534 151.387 38.0005C151.708 37.9247 152.021 37.8165 152.32 37.6777C152.764 37.4501 153.25 37.3162 153.747 37.2843C154.247 37.3168 154.734 37.4506 155.18 37.6777C155.477 37.8172 155.788 37.9254 156.108 38.0005C156.441 38.0534 156.779 38.0737 157.117 38.061C157.604 38.0224 158.095 38.0824 158.559 38.2376C159.001 38.4601 159.395 38.7668 159.719 39.1404C160.153 39.657 160.725 40.04 161.368 40.2449C161.857 40.3644 162.304 40.6156 162.659 40.9714C163.015 41.3271 163.266 41.7736 163.386 42.2623C163.5 42.5793 163.647 42.8835 163.824 43.1702C164.02 43.4416 164.243 43.6917 164.49 43.9166C164.867 44.2361 165.174 44.6291 165.393 45.0716C165.547 45.5359 165.609 46.026 165.575 46.514C165.56 46.8513 165.579 47.1891 165.63 47.5227C165.708 47.844 165.818 48.1566 165.958 48.4558C166.215 48.8883 166.351 49.3823 166.351 49.8856C166.351 50.389 166.215 50.883 165.958 51.3155C165.817 51.6127 165.707 51.9237 165.63 52.2435C165.579 52.5771 165.56 52.915 165.575 53.2522C165.609 53.7386 165.548 54.2271 165.393 54.6896C165.175 55.1344 164.868 55.5293 164.49 55.8496C164.243 56.0745 164.02 56.3247 163.824 56.5961C163.646 56.8822 163.499 57.1865 163.386 57.5039C163.263 57.988 163.011 58.4293 162.655 58.7797C162.299 59.1301 161.854 59.3761 161.368 59.4911C161.054 59.6108 160.75 59.7576 160.46 59.9299C160.194 60.1294 159.946 60.3522 159.719 60.5956C159.396 60.9722 159.002 61.2808 158.559 61.5034C158.095 61.6586 157.604 61.7186 157.117 61.68C156.779 61.6673 156.441 61.6876 156.108 61.7405C155.788 61.8156 155.477 61.9238 155.18 62.0633C154.731 62.2781 154.244 62.3999 153.747 62.4214V62.4214ZM150.575 61.4127C150.864 61.405 151.153 61.4253 151.438 61.4732C151.775 61.5534 152.103 61.6683 152.416 61.8161C152.817 62.0602 153.278 62.1893 153.747 62.1893C154.217 62.1893 154.678 62.0602 155.079 61.8161C155.392 61.6683 155.72 61.5534 156.057 61.4732C156.411 61.4177 156.769 61.3975 157.127 61.4127C157.58 61.4492 158.036 61.3943 158.468 61.2513C158.879 61.0436 159.245 60.7555 159.543 60.404C159.779 60.1458 160.041 59.9126 160.324 59.7079C160.625 59.5212 160.945 59.3658 161.277 59.2439C161.712 59.1009 162.115 58.8748 162.463 58.5782C162.762 58.2321 162.989 57.8289 163.128 57.393C163.252 57.0611 163.408 56.7419 163.592 56.4397C163.799 56.1542 164.034 55.8906 164.294 55.6529C164.643 55.3535 164.931 54.9886 165.141 54.5787C165.282 54.1464 165.335 53.6902 165.297 53.2371C165.284 52.881 165.305 52.5245 165.363 52.1729C165.442 51.8263 165.555 51.4885 165.701 51.1642C165.945 50.7639 166.074 50.3041 166.074 49.8352C166.074 49.3663 165.945 48.9065 165.701 48.5062C165.556 48.1816 165.443 47.8438 165.363 47.4975C165.306 47.1458 165.284 46.7894 165.297 46.4333C165.335 45.9802 165.282 45.524 165.141 45.0917C164.931 44.6818 164.643 44.3169 164.294 44.0175C164.034 43.7798 163.799 43.5162 163.592 43.2307C163.408 42.9285 163.252 42.6093 163.128 42.2774C163.022 41.8278 162.792 41.4167 162.465 41.0899C162.138 40.7631 161.727 40.5334 161.277 40.4265C160.945 40.3046 160.625 40.1492 160.324 39.9625C160.042 39.7565 159.78 39.5234 159.543 39.2664C159.246 38.9134 158.881 38.625 158.468 38.4191C158.036 38.2761 157.58 38.2212 157.127 38.2577C156.42 38.3188 155.71 38.1789 155.079 37.8543C154.678 37.6102 154.217 37.4811 153.747 37.4811C153.278 37.4811 152.817 37.6102 152.416 37.8543C151.785 38.1789 151.075 38.3188 150.368 38.2577C149.915 38.223 149.46 38.2761 149.027 38.4141C148.615 38.6236 148.25 38.9134 147.952 39.2664C147.716 39.5246 147.454 39.7578 147.171 39.9625C146.87 40.1492 146.55 40.3046 146.217 40.4265C145.782 40.5669 145.379 40.7933 145.032 41.0922C144.733 41.4383 144.506 41.8415 144.366 42.2774C144.244 42.6097 144.088 42.929 143.902 43.2307C143.696 43.5162 143.461 43.7798 143.201 44.0175C142.85 44.3155 142.562 44.6807 142.354 45.0917C142.213 45.524 142.16 45.9802 142.198 46.4333C142.211 46.7894 142.189 47.1458 142.132 47.4975C142.052 47.8438 141.939 48.1816 141.794 48.5062C141.55 48.9065 141.421 49.3663 141.421 49.8352C141.421 50.3041 141.55 50.7639 141.794 51.1642C141.94 51.4885 142.053 51.8263 142.132 52.1729C142.189 52.5245 142.211 52.881 142.198 53.2371C142.16 53.6902 142.213 54.1464 142.354 54.5787C142.564 54.9886 142.852 55.3535 143.201 55.6529C143.461 55.8906 143.696 56.1542 143.902 56.4397C144.087 56.7419 144.243 57.0611 144.366 57.393C144.507 57.8284 144.734 58.2314 145.032 58.5782C145.38 58.8748 145.783 59.1009 146.217 59.2439C146.55 59.3658 146.87 59.5212 147.171 59.7079C147.454 59.9126 147.716 60.1458 147.952 60.404C148.25 60.7555 148.616 61.0436 149.027 61.2513C149.459 61.3918 149.915 61.4466 150.368 61.4127H150.575Z" fill="white"/>
<path d="M153.747 56.9139C157.656 56.9139 160.824 53.7459 160.824 49.8379C160.824 45.9298 157.656 42.7617 153.747 42.7617C149.839 42.7617 146.671 45.9298 146.671 49.8379C146.671 53.7459 149.839 56.9139 153.747 56.9139Z" fill="white"/>
<path d="M158.801 42.8877C158.784 42.8884 158.768 42.8857 158.752 42.8796C158.737 42.8735 158.722 42.8643 158.71 42.8524C158.698 42.8406 158.689 42.8265 158.682 42.8109C158.675 42.7953 158.672 42.7786 158.672 42.7616C158.672 42.7447 158.675 42.7279 158.682 42.7123C158.689 42.6967 158.698 42.6826 158.71 42.6708L164.258 37.1229C164.27 37.1111 164.284 37.1018 164.3 37.0958C164.316 37.0897 164.332 37.0869 164.349 37.0876H175.294C175.327 37.0876 175.359 37.1009 175.383 37.1246C175.406 37.1482 175.42 37.1803 175.42 37.2137C175.42 37.2472 175.406 37.2792 175.383 37.3029C175.359 37.3265 175.327 37.3398 175.294 37.3398H164.4L158.872 42.8524C158.853 42.8724 158.828 42.885 158.801 42.8877Z" fill="white"/>
<path d="M145.032 69.78H134.088C134.054 69.78 134.022 69.7667 133.999 69.743C133.975 69.7194 133.962 69.6873 133.962 69.6539C133.962 69.6204 133.975 69.5884 133.999 69.5647C134.022 69.5411 134.054 69.5278 134.088 69.5278H144.982L150.474 64.0354C150.499 64.0171 150.529 64.0083 150.559 64.0104C150.589 64.0126 150.618 64.0256 150.639 64.0471C150.661 64.0685 150.674 64.097 150.676 64.1273C150.678 64.1576 150.669 64.1876 150.651 64.2119L145.103 69.7598C145.081 69.7724 145.057 69.7793 145.032 69.78V69.78Z" fill="white"/>
<path d="M181.679 37.5567C181.662 37.5569 181.645 37.5529 181.63 37.545C181.615 37.537 181.602 37.5255 181.593 37.5113C181.574 37.4907 181.563 37.4637 181.563 37.4356C181.563 37.4076 181.574 37.3805 181.593 37.36C182.026 37.0504 182.482 36.7723 182.955 36.5278C183.171 36.399 183.415 36.3246 183.666 36.3109V36.3109C183.909 36.3241 184.145 36.3931 184.357 36.5127C184.439 36.5522 184.523 36.5876 184.609 36.6186C185.325 36.8909 186.122 36.6841 186.954 36.4622C187.681 36.2098 188.455 36.1236 189.219 36.2101C189.389 36.2523 189.558 36.3028 189.723 36.3614L190.036 36.4572C191.099 36.6627 192.193 36.6438 193.249 36.4017L193.924 36.3059C195.078 36.0787 196.271 36.1658 197.379 36.5581C197.521 36.6186 197.662 36.6892 197.798 36.7598C198.118 36.9489 198.473 37.0724 198.842 37.1229C199.264 37.1282 199.684 37.0457 200.073 36.8808L200.476 36.7497C201.697 36.3916 203.043 36.5228 204.344 36.6438H204.582C208.127 36.9716 211.694 36.9969 215.244 36.7195C215.257 36.7181 215.272 36.7194 215.285 36.7235C215.298 36.7276 215.311 36.7343 215.322 36.7432C215.332 36.7521 215.341 36.7631 215.348 36.7754C215.354 36.7878 215.358 36.8013 215.36 36.8153C215.362 36.8439 215.354 36.8726 215.336 36.8952C215.318 36.9178 215.292 36.9325 215.264 36.9363C211.701 37.2138 208.12 37.1885 204.561 36.8607H204.324C203.043 36.7396 201.717 36.6135 200.537 36.9615C200.405 36.9968 200.274 37.0422 200.143 37.0876C199.724 37.2606 199.275 37.3464 198.822 37.3398C198.427 37.2854 198.046 37.1534 197.702 36.9515C197.566 36.8808 197.435 36.8153 197.294 36.7548C196.22 36.3801 195.066 36.2982 193.95 36.5177L193.284 36.6186C192.196 36.8638 191.07 36.8809 189.975 36.669L189.658 36.5681C189.493 36.5094 189.324 36.4622 189.153 36.4269C188.421 36.3451 187.68 36.4296 186.985 36.6741C186.152 36.8909 185.29 37.1179 184.503 36.8254L184.241 36.7094C184.053 36.6103 183.847 36.5486 183.636 36.5278C183.42 36.5421 183.211 36.6078 183.025 36.7195C182.562 36.9585 182.117 37.2316 181.694 37.5365C181.689 37.5436 181.684 37.5503 181.679 37.5567V37.5567Z" fill="white"/>
<path d="M200.789 40.4466C200.341 40.418 199.902 40.3158 199.488 40.144C199.063 39.9647 198.611 39.8606 198.151 39.8364C197.833 39.8546 197.518 39.9105 197.213 40.0028C197.011 40.0628 196.805 40.1116 196.598 40.1491C196.047 40.2172 195.489 40.2172 194.938 40.1491H194.868C192.406 39.912 189.885 39.8212 187.444 39.7304C186.601 39.7002 185.658 39.8364 185.542 40.3054C185.538 40.3269 185.527 40.3464 185.51 40.3609C185.494 40.3755 185.473 40.3843 185.451 40.3861C185.429 40.389 185.407 40.3852 185.387 40.3753C185.368 40.3654 185.351 40.3499 185.34 40.3306C185.088 39.8717 184.306 39.675 183.666 39.7203C182.991 39.798 182.333 39.9872 181.719 40.2802C181.706 40.2859 181.692 40.2888 181.677 40.2888C181.663 40.2888 181.649 40.2859 181.636 40.2803C181.622 40.2746 181.61 40.2663 181.6 40.2559C181.591 40.2455 181.583 40.2331 181.578 40.2197C181.568 40.1929 181.568 40.1632 181.58 40.1369C181.591 40.1106 181.612 40.0896 181.638 40.0784C182.275 39.7772 182.956 39.583 183.656 39.5035C183.973 39.4671 184.293 39.4977 184.597 39.5933C184.902 39.6888 185.182 39.8473 185.421 40.0583C185.774 39.5186 186.934 39.4934 187.439 39.5136C189.885 39.6044 192.411 39.6951 194.883 39.9322H194.948C195.481 40.0002 196.02 40.0002 196.552 39.9322C196.753 39.8975 196.952 39.852 197.147 39.796C197.475 39.6946 197.814 39.6352 198.156 39.6195C198.639 39.6479 199.115 39.7552 199.563 39.9372C200.064 40.1788 200.627 40.2648 201.177 40.1844C201.352 40.1344 201.522 40.065 201.681 39.9776L201.944 39.8515C202.808 39.5734 203.724 39.4975 204.622 39.6296C205.15 39.6773 205.681 39.6874 206.211 39.6598C206.225 39.6584 206.239 39.6598 206.252 39.6639C206.265 39.668 206.278 39.6747 206.289 39.6836C206.299 39.6925 206.308 39.7034 206.315 39.7158C206.321 39.7282 206.325 39.7417 206.327 39.7557C206.329 39.7843 206.321 39.813 206.303 39.8356C206.285 39.8582 206.259 39.8729 206.231 39.8767C205.689 39.9044 205.147 39.8943 204.607 39.8464C203.743 39.7168 202.861 39.7876 202.029 40.0532C201.944 40.0885 201.863 40.1339 201.782 40.1743C201.612 40.2647 201.433 40.3373 201.248 40.3911C201.098 40.4313 200.944 40.45 200.789 40.4466V40.4466Z" fill="white"/>
<path d="M181.679 43.7755C181.654 43.7743 181.63 43.7647 181.611 43.7484C181.593 43.7321 181.58 43.7099 181.575 43.6855C181.571 43.661 181.574 43.6357 181.586 43.6137C181.597 43.5916 181.616 43.574 181.638 43.5637C182.478 43.2211 183.341 42.9379 184.221 42.7164C184.689 42.5809 185.176 42.5213 185.663 42.5399C185.957 42.5736 186.248 42.6343 186.531 42.7214C186.804 42.8032 187.084 42.8606 187.368 42.8929C187.705 42.9051 188.043 42.8849 188.376 42.8324C188.877 42.7293 189.396 42.7448 189.89 42.8778C190.031 42.9311 190.168 42.9969 190.298 43.0745C190.422 43.1514 190.554 43.2156 190.691 43.2661C191.347 43.4931 192.003 43.1955 192.709 42.8778C193.308 42.5384 193.987 42.3644 194.676 42.3734C195.133 42.4521 195.569 42.6238 195.957 42.8778C196.367 43.1528 196.846 43.3066 197.339 43.3216C197.569 43.2988 197.796 43.2498 198.015 43.1753H198.08C199.914 42.631 201.834 42.4377 203.739 42.6054H203.84C204.105 42.6331 204.372 42.6331 204.637 42.6054C204.798 42.5815 204.958 42.5478 205.116 42.5045L205.469 42.4188C206.204 42.3298 206.948 42.3828 207.663 42.5752L208.077 42.6559C209.958 42.9922 211.889 42.9304 213.746 42.4743C213.771 42.4733 213.796 42.4812 213.817 42.4967C213.837 42.5123 213.852 42.5344 213.858 42.5595C213.864 42.5845 213.861 42.6108 213.85 42.6339C213.838 42.657 213.819 42.6754 213.796 42.6861C211.911 43.1473 209.951 43.2092 208.041 42.8677L207.618 42.787C206.931 42.6019 206.215 42.5505 205.509 42.6357C205.393 42.6357 205.282 42.6861 205.171 42.7113C205.006 42.7587 204.837 42.7958 204.667 42.8223C204.387 42.8501 204.105 42.8501 203.825 42.8223H203.724C201.846 42.659 199.954 42.8488 198.146 43.3821H198.08C197.847 43.4635 197.605 43.516 197.359 43.5385C196.821 43.5277 196.296 43.3651 195.846 43.0694C195.48 42.8387 195.072 42.6828 194.646 42.6105C193.995 42.6123 193.356 42.7863 192.795 43.1148C192.094 43.4376 191.372 43.7654 190.631 43.5133C190.482 43.4576 190.338 43.3884 190.202 43.3065C190.081 43.2342 189.955 43.1718 189.824 43.1199C189.365 43.003 188.885 42.9927 188.422 43.0896C188.075 43.1426 187.724 43.1628 187.373 43.1501C187.075 43.1169 186.781 43.0561 186.495 42.9685C186.225 42.8873 185.948 42.8299 185.668 42.7971C185.203 42.7802 184.738 42.8381 184.291 42.9685C183.422 43.1875 182.569 43.4672 181.739 43.8058L181.679 43.7755Z" fill="white"/>
<path d="M181.679 46.5091C181.654 46.5086 181.63 46.4999 181.611 46.4844C181.592 46.4689 181.578 46.4474 181.573 46.4234C181.569 46.4094 181.568 46.3949 181.57 46.3806C181.572 46.3664 181.577 46.3527 181.585 46.3404C181.592 46.3281 181.602 46.3175 181.614 46.3092C181.626 46.3009 181.639 46.2952 181.653 46.2922C182.645 46.0435 183.659 45.8882 184.68 45.8282C184.978 45.7926 185.281 45.8132 185.572 45.8887C185.638 45.9096 185.702 45.9348 185.764 45.9644C185.845 46.0012 185.929 46.0299 186.016 46.0501C186.21 46.0825 186.407 46.0825 186.601 46.0501C187.502 45.9069 188.413 45.8411 189.325 45.8534C189.353 45.8559 189.379 45.8685 189.399 45.8889C189.418 45.9093 189.429 45.9362 189.431 45.9644C189.431 45.9787 189.428 45.9929 189.422 46.0061C189.416 46.0193 189.408 46.0312 189.398 46.0411C189.387 46.051 189.375 46.0587 189.362 46.0637C189.348 46.0687 189.334 46.071 189.32 46.0703C188.428 46.0556 187.537 46.1197 186.657 46.262C186.431 46.3103 186.199 46.3188 185.971 46.2872C185.87 46.2627 185.772 46.2289 185.678 46.1863L185.507 46.1207C185.24 46.053 184.963 46.0359 184.69 46.0703C183.669 46.1289 182.656 46.2826 181.663 46.5293L181.679 46.5091Z" fill="white"/>
<path d="M193.561 46.1358C193.545 46.1393 193.528 46.1391 193.512 46.1353C193.496 46.1315 193.481 46.1241 193.468 46.1137C193.455 46.1033 193.445 46.0901 193.438 46.0752C193.43 46.0603 193.427 46.0439 193.427 46.0273C193.427 46.0108 193.43 45.9944 193.438 45.9794C193.445 45.9645 193.455 45.9513 193.468 45.9409C193.481 45.9305 193.496 45.9232 193.512 45.9193C193.528 45.9155 193.545 45.9154 193.561 45.9189C194.166 45.9189 194.782 45.9189 195.372 45.9189H195.417C199.75 45.9189 204.138 45.9189 208.465 45.8584C208.493 45.8597 208.52 45.8719 208.54 45.8926C208.56 45.9133 208.571 45.9407 208.571 45.9693C208.571 45.9974 208.56 46.0244 208.54 46.0442C208.52 46.0641 208.493 46.0752 208.465 46.0752C204.138 46.1257 199.745 46.1458 195.412 46.1358H195.367C194.777 46.1358 194.161 46.1358 193.561 46.1358Z" fill="white"/>
<g opacity="0.1">
<path opacity="0.1" d="M207.819 73.2499C207.819 74.4603 206.982 75.5749 206.755 76.7198C206.528 77.8647 206.866 79.2416 206.417 80.326C205.968 81.4103 204.758 82.1366 204.102 83.1201C203.447 84.1036 203.245 85.4855 202.403 86.3227C201.56 87.16 200.188 87.3315 199.2 88.0174C198.211 88.7033 197.515 89.8734 196.411 90.3324C195.306 90.7913 193.98 90.4383 192.8 90.6703C191.619 90.9023 190.545 91.7345 189.335 91.7345C188.124 91.7345 187.015 90.8972 185.87 90.6703C184.725 90.4433 183.348 90.7812 182.259 90.3324C181.169 89.8835 180.448 88.673 179.47 88.0174C178.491 87.3617 177.104 87.16 176.267 86.3227C175.43 85.4855 175.228 84.1086 174.567 83.1201C173.907 82.1316 172.711 81.4305 172.257 80.326C171.803 79.2214 172.146 77.895 171.914 76.7198C171.682 75.5447 170.855 74.4603 170.855 73.2499C170.855 72.0394 171.687 70.9298 171.914 69.785C172.141 68.6401 171.808 67.2632 172.257 66.1788C172.706 65.0945 173.912 64.3682 174.567 63.3847C175.223 62.4012 175.43 61.0193 176.267 60.182C177.104 59.3448 178.481 59.1481 179.47 58.4824C180.458 57.8166 181.159 56.6314 182.259 56.1724C183.358 55.7135 184.69 56.0665 185.87 55.8345C187.05 55.6025 188.124 54.7754 189.335 54.7754C190.545 54.7754 191.66 55.6126 192.8 55.8395C193.94 56.0665 195.321 55.7286 196.411 56.1775C197.5 56.6263 198.222 57.8317 199.205 58.4925C200.188 59.1532 201.565 59.3499 202.408 60.1871C203.25 61.0243 203.442 62.4012 204.102 63.3897C204.763 64.3783 205.958 65.0793 206.417 66.1839C206.876 67.2884 206.523 68.6149 206.755 69.79C206.987 70.9651 207.819 72.0445 207.819 73.2499Z" fill="white"/>
</g>
<path d="M144.145 95.1743H134.753C134.216 95.1743 133.78 95.6101 133.78 96.1477V97.8675C133.78 98.4051 134.216 98.8409 134.753 98.8409H144.145C144.682 98.8409 145.118 98.4051 145.118 97.8675V96.1477C145.118 95.6101 144.682 95.1743 144.145 95.1743Z" fill="#F3AF00"/>
<path d="M144.548 93.6511H134.35C134.035 93.6511 133.78 93.9062 133.78 94.221V94.6043C133.78 94.9191 134.035 95.1742 134.35 95.1742H144.548C144.863 95.1742 145.118 94.9191 145.118 94.6043V94.221C145.118 93.9062 144.863 93.6511 144.548 93.6511Z" fill="white"/>
<path d="M177.286 100.172H175.763V180.244H177.286V100.172Z" fill="#263238"/>
<path d="M178.627 155.324H174.421C173.948 155.324 173.564 155.707 173.564 156.181V157.281C173.564 157.754 173.948 158.138 174.421 158.138H178.627C179.101 158.138 179.485 157.754 179.485 157.281V156.181C179.485 155.707 179.101 155.324 178.627 155.324Z" fill="#263238"/>
<path d="M161.454 180.249H159.931L175.763 156.731H177.286L161.454 180.249Z" fill="#263238"/>
<path d="M191.594 180.249H193.118L177.286 156.731H175.763L191.594 180.249Z" fill="#263238"/>
<path d="M225.447 30.4908H127.602C127.411 30.4908 127.227 30.4148 127.092 30.2795C126.957 30.1443 126.881 29.9608 126.881 29.7696C126.882 29.5792 126.959 29.397 127.094 29.2628C127.229 29.1287 127.411 29.0534 127.602 29.0534H225.447C225.637 29.0534 225.819 29.1288 225.953 29.2631C226.087 29.3975 226.163 29.5796 226.163 29.7696V29.7696C226.164 29.864 226.145 29.9577 226.11 30.0452C226.074 30.1327 226.021 30.2122 225.955 30.2792C225.888 30.3463 225.809 30.3995 225.722 30.4358C225.635 30.4721 225.541 30.4908 225.447 30.4908V30.4908Z" fill="#E0E0E0"/>
<path d="M229.33 98.8408H123.718L126.18 101.509H226.869L229.33 98.8408Z" fill="#E0E0E0"/>
<path d="M100.785 121.965H52.3723V123.151H100.785V121.965Z" fill="#5200FF"/>
<path d="M100.785 121.965H87.9495V123.151H100.785V121.965Z" fill="#263238"/>
<path d="M81.0197 182.039H80.2884L77.232 150.744C76.9798 148.147 75.2852 146.205 73.3031 146.205H67.2811C65.2637 146.205 63.6043 148.162 63.3522 150.744L60.2958 182.039H59.5645L62.6309 150.603C62.9285 147.531 64.9257 145.211 67.2811 145.211H73.3031C75.6534 145.211 77.6557 147.531 77.9532 150.603L81.0197 182.039Z" fill="#263238"/>
<path d="M58.238 182.039H57.4966L54.4704 150.744C54.2183 148.147 52.5287 146.205 50.5415 146.205H44.4993C42.5122 146.205 40.8226 148.162 40.5704 150.744L37.514 182.039H36.7827L39.8441 150.603C40.1417 147.531 42.144 145.211 44.4943 145.211H50.5163C52.8716 145.211 54.8689 147.531 55.1664 150.603L58.238 182.039Z" fill="#263238"/>
<path d="M54.9747 81.269C55.0856 81.5817 55.3428 81.7734 55.5547 81.7229C55.7665 81.6725 55.8422 81.3497 55.7312 81.032C55.6202 80.7142 55.363 80.5276 55.1562 80.5781C54.9494 80.6285 54.8486 80.9513 54.9747 81.269Z" fill="#263238"/>
<path d="M55.2622 81.5061C55.913 82.193 56.6525 82.7901 57.4612 83.2815C57.3294 83.4789 57.1559 83.6449 56.9528 83.7678C56.7497 83.8907 56.5221 83.9675 56.286 83.9926L55.2622 81.5061Z" fill="#F3AF00"/>
<path d="M53.6282 80.2504C53.595 80.2581 53.5605 80.2581 53.5273 80.2504C53.502 80.2461 53.4777 80.2368 53.456 80.223C53.4343 80.2092 53.4156 80.1912 53.401 80.17C53.3864 80.1489 53.3762 80.125 53.3711 80.0998C53.3659 80.0746 53.3659 80.0486 53.371 80.0234C53.4178 79.7184 53.5388 79.4296 53.7235 79.1825C53.9082 78.9353 54.1509 78.7374 54.4301 78.6062C54.477 78.5925 54.5272 78.5967 54.5712 78.618C54.6151 78.6393 54.6495 78.6762 54.6677 78.7215C54.686 78.7668 54.6867 78.8172 54.6698 78.863C54.653 78.9088 54.6196 78.9467 54.5764 78.9693C54.3593 79.0772 54.1713 79.2357 54.0282 79.4314C53.8851 79.6271 53.7912 79.8544 53.7543 80.094C53.7488 80.1288 53.7342 80.1616 53.7121 80.189C53.69 80.2164 53.661 80.2376 53.6282 80.2504V80.2504Z" fill="#263238"/>
<path d="M45.2053 86.1816L48.4433 89.2481L52.7353 91.6589C52.584 91.8001 52.6395 92.7584 52.7 93.2375C52.7172 93.7609 52.8968 94.266 53.2141 94.6826C53.5313 95.0992 53.9704 95.4068 54.4703 95.5626C54.9747 95.7794 55.479 96.0669 55.5749 96.541C55.6757 97.1261 55.247 97.8524 52.8463 98.2004C50.5438 98.5091 48.2007 98.1794 46.0728 97.2471C45.0641 96.8336 45.2356 96.3796 45.4878 95.4214C46.1333 92.9752 45.9871 88.658 45.2053 86.1816Z" fill="#F3AF00"/>
<path d="M43.9143 96.5409C44.4196 95.26 44.8292 93.9434 45.1399 92.6019C45.1399 92.6019 51.6965 92.1228 53.8804 92.9802C56.0642 93.8376 57.4108 97.5547 57.4108 97.5547L43.9143 96.5409Z" fill="#263238"/>
<path d="M44.4892 84.4516C46.0376 88.1485 46.7538 90.3878 49.326 91.6285C53.1944 93.4946 57.2292 90.06 56.8106 85.9596C56.4323 82.2677 53.966 76.8509 49.7496 76.6996C48.8156 76.671 47.8895 76.8787 47.0572 77.3035C46.2249 77.7283 45.5134 78.3565 44.9887 79.1297C44.464 79.9029 44.1431 80.7962 44.0558 81.7265C43.9685 82.6569 44.1175 83.5942 44.4892 84.4516V84.4516Z" fill="#F3AF00"/>
<path d="M52.2763 84.2599C53.7339 82.5956 52.7202 79.7208 51.429 78.596C52.6798 78.5506 55.9178 78.2682 54.9595 75.4791C54.0012 72.69 50.6675 72.3622 49.6991 73.7391C46.9453 72.226 43.6468 73.5374 44.4387 75.6405C41.2007 75.1362 40.2727 78.3489 41.6092 79.6451C39.9096 81.0623 39.2993 83.8514 41.5235 84.9055C43.7477 85.9596 43.7931 88.5873 46.0627 89.9491C48.3323 91.3108 53.5322 88.9908 52.2763 84.2599Z" fill="#263238"/>
<path d="M50.4052 84.8197C50.8859 85.5751 51.6271 86.1278 52.4882 86.3731C53.6028 86.6707 54.1425 85.435 53.7289 84.3557C53.3557 83.4075 52.2158 82.3383 51.1567 82.4946C50.0976 82.651 49.8101 83.8766 50.4052 84.8197Z" fill="#F3AF00"/>
<path d="M46.9908 101.479L43.7125 108.035C43.1628 109.13 42.6281 110.219 42.1087 111.314C41.5892 112.408 41.0697 113.482 40.6208 114.551C40.3787 115.091 40.177 115.606 39.9601 116.135L39.6827 116.887L39.6474 116.982V117.028V117.053V117.003C39.6984 116.791 39.7205 116.574 39.713 116.357C39.7184 116.198 39.6874 116.039 39.6222 115.893C39.5818 115.822 39.6222 115.959 39.6524 116.12C39.72 116.323 39.8026 116.52 39.8996 116.71C40.1165 117.149 40.4039 117.623 40.6763 118.112C41.8615 120.069 43.309 122.147 44.6203 124.205L44.6556 124.255C44.8958 124.633 44.9995 125.082 44.9494 125.527C44.8994 125.972 44.6987 126.386 44.3806 126.701C44.0625 127.016 43.6462 127.213 43.2009 127.259C42.7555 127.305 42.3078 127.197 41.9321 126.954C40.8254 126.245 39.7626 125.47 38.7497 124.634C37.7091 123.795 36.722 122.892 35.7941 121.93C35.2877 121.412 34.8144 120.863 34.3769 120.286C34.1249 119.962 33.8893 119.625 33.6708 119.277C33.3786 118.803 33.1448 118.295 32.9748 117.764C32.8314 117.315 32.7516 116.848 32.7377 116.377C32.729 116.002 32.7696 115.627 32.8588 115.263L32.9395 114.94L33.2068 113.896C33.4085 113.245 33.5951 112.569 33.8171 111.949C34.2458 110.673 34.7148 109.463 35.1889 108.252C35.663 107.042 36.1976 105.866 36.702 104.722C37.7712 102.381 38.8757 100.117 40.1366 97.8472C40.6162 96.9356 41.4382 96.2519 42.4219 95.9464C43.4056 95.6409 44.4703 95.7386 45.3819 96.2182C46.2935 96.6977 46.9773 97.5198 47.2828 98.5034C47.5883 99.4871 47.4905 100.552 47.011 101.463L46.9908 101.479Z" fill="#F3AF00"/>
<path d="M44.4438 94.9069C48.6703 95.0582 50.5919 98.2205 47.0866 103.849C44.0605 108.686 43.662 108.787 43.662 108.787L36.011 104.994C38.5832 100.097 40.1215 94.7455 44.4438 94.9069Z" fill="#5200FF"/>
<g opacity="0.3">
<path opacity="0.3" d="M44.4438 94.9069C48.6703 95.0582 50.5919 98.2205 47.0866 103.849C44.0605 108.686 43.662 108.787 43.662 108.787L36.011 104.994C38.5832 100.097 40.1215 94.7455 44.4438 94.9069Z" fill="black"/>
</g>
<path d="M46.6429 125.082L46.2142 124.603C44.8928 123.378 44.3279 123.529 42.8148 123.529L40.9639 124.916C42.0835 127.993 44.3481 127.856 44.3481 127.856L45.0038 128.467C45.1478 128.6 45.3227 128.695 45.5126 128.744C45.7026 128.793 45.9017 128.794 46.0922 128.747C46.2827 128.7 46.4585 128.607 46.6039 128.475C46.7493 128.343 46.8598 128.177 46.9253 127.993L47.117 127.448C47.2559 127.047 47.2851 126.617 47.2018 126.201C47.1184 125.785 46.9255 125.399 46.6429 125.082V125.082Z" fill="#F3AF00"/>
<path d="M91.0108 170.888L94.627 168.855L90.7788 160.044L87.1626 162.072L91.0108 170.888Z" fill="#F3AF00"/>
<path opacity="0.2" d="M89.0287 166.344L92.7004 164.447L90.7788 160.044L87.1626 162.072L89.0287 166.344Z" fill="black"/>
<path d="M94.1581 167.004L89.518 167.332C89.4395 167.336 89.3656 167.37 89.312 167.428C89.2583 167.485 89.2291 167.561 89.2305 167.64L89.2658 171.322C89.2801 171.515 89.3693 171.695 89.5144 171.823C89.6596 171.951 89.8491 172.017 90.0425 172.008C91.6514 171.866 92.3071 171.463 94.3295 171.175C95.5753 170.994 98.5661 170.822 100.246 170.358C101.925 169.894 101.648 168.341 100.276 168.411C98.4955 168.492 96.115 168.043 94.8843 167.211C94.6718 167.064 94.4164 166.991 94.1581 167.004Z" fill="#263238"/>
<path d="M62.5402 128.658C62.5402 128.658 83.6625 127.397 85.448 135.588C89.0793 152.232 92.5846 161.477 92.5846 161.477L86.9963 164.361C86.9963 164.361 78.7653 152.832 76.3393 141.02C67.735 139.729 52.6952 144.283 49.1042 137.822C45.9267 132.123 48.7158 128.028 48.7158 128.028L62.5402 128.658Z" fill="#263238"/>
<path d="M87.1022 165.865L93.6084 162.712L92.8771 160.044L85.7253 163.403L87.1022 165.865Z" fill="#5200FF"/>
<path d="M95.6712 167.625C95.2999 167.639 94.9281 167.615 94.5616 167.554C94.5426 167.552 94.5248 167.544 94.5104 167.531C94.496 167.519 94.4858 167.502 94.4809 167.484C94.4761 167.465 94.4769 167.446 94.4832 167.428C94.4895 167.41 94.5009 167.394 94.5162 167.383C94.6423 167.282 95.7519 166.399 96.2713 166.561C96.33 166.58 96.3829 166.613 96.4252 166.658C96.4675 166.703 96.4979 166.758 96.5134 166.818C96.5477 166.906 96.5582 167.002 96.5441 167.096C96.5299 167.19 96.4916 167.278 96.4327 167.352C96.2198 167.532 95.9495 167.628 95.6712 167.625ZM94.8138 167.393C95.5652 167.489 96.1049 167.428 96.2865 167.221C96.3242 167.172 96.3483 167.115 96.3562 167.053C96.3642 166.992 96.3558 166.93 96.3319 166.873C96.3236 166.845 96.3089 166.818 96.2887 166.797C96.2686 166.775 96.2437 166.758 96.2159 166.747C95.9334 166.661 95.2727 167.055 94.8188 167.393H94.8138Z" fill="#5200FF"/>
<path d="M94.5817 167.554C94.5669 167.559 94.5511 167.559 94.5363 167.554C94.5218 167.548 94.509 167.539 94.4993 167.526C94.4895 167.514 94.4832 167.499 94.4809 167.484C94.4809 167.433 94.2942 166.253 94.6826 165.819C94.733 165.765 94.7949 165.722 94.8638 165.694C94.9326 165.666 95.0068 165.654 95.081 165.658C95.164 165.655 95.2454 165.68 95.3128 165.728C95.3803 165.777 95.43 165.846 95.4543 165.925C95.5803 166.369 95.0256 167.272 94.6322 167.549C94.6162 167.556 94.5987 167.558 94.5817 167.554ZM95.0306 165.839C94.9919 165.842 94.9541 165.852 94.9194 165.869C94.8848 165.886 94.854 165.911 94.8289 165.94C94.5969 166.197 94.612 166.878 94.6473 167.272C95.0124 166.931 95.2342 166.464 95.2676 165.965C95.2676 165.91 95.2172 165.849 95.076 165.839H95.0306Z" fill="#5200FF"/>
<path d="M67.175 178.443L71.2805 178.247L71.9513 168.553L67.8458 168.75L67.175 178.443Z" fill="#F3AF00"/>
<path d="M71.694 176.945L67.0489 176.799C66.971 176.795 66.8945 176.821 66.8353 176.871C66.7762 176.922 66.7388 176.994 66.7311 177.071L66.3932 180.738C66.3892 180.834 66.4041 180.93 66.4371 181.02C66.4702 181.11 66.5207 181.193 66.5858 181.264C66.651 181.335 66.7294 181.392 66.8166 181.432C66.9039 181.473 66.9982 181.496 67.0943 181.5C68.7133 181.5 69.3941 181.318 71.4368 181.384C72.6926 181.424 74.9673 181.626 77.0855 181.626C79.2038 181.626 78.3515 179.911 77.2217 179.749C75.4565 179.497 73.5399 178.176 72.4001 177.228C72.2036 177.056 71.9546 176.957 71.694 176.945Z" fill="#263238"/>
<path d="M73.1315 177.712C72.7599 177.688 72.3916 177.627 72.0321 177.53C72.0136 177.525 71.997 177.515 71.9844 177.501C71.9718 177.486 71.9638 177.468 71.9614 177.449C71.9587 177.431 71.9616 177.412 71.9697 177.395C71.9777 177.378 71.9907 177.363 72.0068 177.354C72.138 177.268 73.3383 176.501 73.8326 176.718C73.8893 176.742 73.939 176.78 73.9769 176.829C74.0148 176.877 74.0398 176.935 74.0495 176.996C74.075 177.084 74.0758 177.178 74.0518 177.267C74.0278 177.356 73.9799 177.436 73.9133 177.5C73.6892 177.667 73.4096 177.743 73.1315 177.712V177.712ZM72.2994 177.399C73.0357 177.565 73.5804 177.56 73.7822 177.374C73.8236 177.329 73.8528 177.275 73.867 177.215C73.8811 177.156 73.8797 177.094 73.8629 177.036C73.8592 177.005 73.8474 176.976 73.8288 176.951C73.8102 176.926 73.7854 176.907 73.7569 176.895C73.4997 176.779 72.8037 177.107 72.3094 177.399H72.2994Z" fill="#5200FF"/>
<path d="M72.0624 177.53H72.0221C72.007 177.523 71.9943 177.511 71.9854 177.497C71.9765 177.483 71.9717 177.466 71.9716 177.45C71.9716 177.399 71.9111 176.209 72.3449 175.815C72.4006 175.766 72.4666 175.729 72.5381 175.709C72.6096 175.688 72.6848 175.683 72.7584 175.694C72.8402 175.701 72.9176 175.734 72.9786 175.788C73.0397 175.843 73.0811 175.916 73.0963 175.997C73.177 176.451 72.5315 177.298 72.0876 177.51C72.0807 177.518 72.0721 177.525 72.0624 177.53ZM72.6828 175.871C72.6044 175.869 72.5284 175.898 72.4709 175.952C72.2291 176.342 72.1195 176.8 72.1582 177.258C72.5264 176.965 72.9602 176.32 72.9047 176.022C72.9047 175.967 72.8694 175.896 72.7282 175.876L72.6828 175.871Z" fill="#5200FF"/>
<path opacity="0.2" d="M67.8459 168.754L71.9513 168.558L71.563 174.101L67.4727 174.096L67.8459 168.754Z" fill="black"/>
<path d="M52.8766 128.22C52.8766 128.22 78.518 132.996 78.0187 140.198C77.126 153.165 72.7785 171.695 72.7785 171.695L66.6203 171.781C66.6203 171.781 65.778 152.509 66.5396 143.128C58.8482 143.128 43.7125 142.861 40.7519 138.902C37.4787 134.534 40.8427 127.67 40.8427 127.67L52.8766 128.22Z" fill="#263238"/>
<path d="M66.1009 172.895L73.873 172.784L74.2411 170.257L65.7781 170.505L66.1009 172.895Z" fill="#5200FF"/>
<path d="M58.3841 95.1943C55.8623 94.6899 44.5043 94.8463 44.5043 94.8463C43.3682 94.8178 42.2628 95.2165 41.4065 95.9636C40.5502 96.7106 40.0052 97.7517 39.8793 98.8811C39.4809 102.381 40.656 110.133 40.7367 114.128C40.8326 119.03 40.9385 121.098 40.8426 127.695L67.286 129.082C68.2947 117.058 64.3758 111.258 62.0407 99.2947C61.6927 97.4639 60.9008 95.6835 58.3841 95.1943Z" fill="#5200FF"/>
<path opacity="0.3" d="M58.3841 95.1943C55.8623 94.6899 44.5043 94.8463 44.5043 94.8463C43.3682 94.8178 42.2628 95.2165 41.4065 95.9636C40.5502 96.7106 40.0052 97.7517 39.8793 98.8811C39.4809 102.381 40.656 110.133 40.7367 114.128C40.8326 119.03 40.9385 121.098 40.8426 127.695L67.286 129.082C68.2947 117.058 64.3758 111.258 62.0407 99.2947C61.6927 97.4639 60.9008 95.6835 58.3841 95.1943Z" fill="black"/>
<path d="M61.602 99.0628C62.7923 101.181 64.0179 103.405 65.2535 105.529C65.8638 106.603 66.4943 107.657 67.1297 108.686C67.7652 109.715 68.4209 110.703 69.0766 111.662L69.5809 112.342C69.7473 112.574 69.9087 112.756 70.0853 112.963L70.2063 113.119L70.2668 113.195L70.2265 113.154L70.1357 113.089C70.1357 113.089 70.1105 113.089 70.1357 113.119C70.286 113.244 70.4444 113.358 70.6098 113.462C71.4722 114.022 72.5919 114.592 73.6763 115.167C75.8753 116.312 78.1751 117.447 80.4044 118.697H80.4346C80.8498 118.913 81.1737 119.271 81.3477 119.706C81.5216 120.14 81.5341 120.623 81.3828 121.066C81.2315 121.509 80.9265 121.883 80.523 122.12C80.1196 122.357 79.6444 122.442 79.1838 122.359C76.5625 122.048 73.968 121.542 71.4218 120.846C70.0688 120.489 68.7411 120.043 67.4475 119.509C67.0363 119.332 66.637 119.128 66.2522 118.899C66.1513 118.844 66.005 118.743 65.8739 118.652L65.6671 118.501L65.3998 118.274L65.2687 118.158L65.1779 118.067L65.077 117.966L64.8753 117.764C64.6181 117.497 64.3255 117.22 64.0935 116.952L63.3723 116.145C61.6425 114.056 60.0537 111.854 58.6162 109.553C57.204 107.299 55.9028 105.07 54.7024 102.659C54.2539 101.753 54.1759 100.709 54.4851 99.7467C54.7943 98.7846 55.4662 97.981 56.3584 97.5064C57.2505 97.0318 58.2924 96.9236 59.263 97.2048C60.2336 97.486 61.0564 98.1344 61.5566 99.0124L61.602 99.0628Z" fill="#F3AF00"/>
<path d="M54.5106 97.686C56.7853 94.1252 60.4872 94.0748 63.5588 99.9505C66.1965 104.994 66.0805 105.403 66.0805 105.403L58.9338 110.078C56.0086 105.377 52.1805 101.332 54.5106 97.686Z" fill="#5200FF"/>
<g opacity="0.3">
<path opacity="0.3" d="M54.5106 97.686C56.7853 94.1252 60.4872 94.0748 63.5588 99.9505C66.1965 104.994 66.0805 105.403 66.0805 105.403L58.9338 110.078C56.0086 105.377 52.1805 101.332 54.5106 97.686Z" fill="black"/>
</g>
<path d="M82.2907 118.395L81.6653 118.279C79.8648 118.112 79.5168 118.581 78.3164 119.504L77.696 121.734C80.465 123.484 82.1747 121.991 82.1747 121.991L83.0674 122.077C83.2626 122.094 83.459 122.063 83.6391 121.985C83.8191 121.908 83.9771 121.787 84.0987 121.634C84.2203 121.48 84.3017 121.298 84.3356 121.105C84.3696 120.912 84.3549 120.714 84.293 120.528L84.1114 119.978C83.978 119.575 83.7386 119.216 83.4182 118.937C83.0979 118.658 82.7084 118.471 82.2907 118.395V118.395Z" fill="#F3AF00"/>
<path d="M26.8217 125.491C26.343 122.808 26.4653 120.052 27.1798 117.421L27.6841 117.558C26.9912 120.114 26.8741 122.793 27.3412 125.4L26.8217 125.491Z" fill="#5200FF"/>
<path d="M27.6796 127.464L27.1824 127.549L27.6631 130.373L28.1603 130.288L27.6796 127.464Z" fill="#5200FF"/>
<path d="M78.9821 143.037L67.7047 142.589L64.7492 125.214C63.2361 116.261 55.4791 109.009 47.4448 109.009H40.3485C32.3141 109.009 27.0386 116.261 28.5617 125.214L30.5791 137.207C31.3306 141.645 35.1738 145.246 39.1532 145.246H83.8087C83.9028 145.235 83.9907 145.193 84.0602 145.129C84.1297 145.064 84.1772 144.98 84.1961 144.887C84.2151 144.794 84.2044 144.697 84.1657 144.611C84.1269 144.524 84.0621 144.452 83.9802 144.404C82.432 143.594 80.7271 143.128 78.9821 143.037V143.037Z" fill="#F38300"/>
<path d="M81.64 144.848H78.0591V143.925H81.64C90.6427 143.925 97.971 135.74 97.971 125.678V122.561H98.894V125.678C98.894 136.249 91.1521 144.848 81.64 144.848Z" fill="#263238"/>
<path d="M155.16 121.966H106.747V123.151H155.16V121.966Z" fill="#5200FF"/>
<path d="M139.056 121.375H122.846V121.971H139.056V121.375Z" fill="#E0E0E0"/>
<path d="M155.16 121.966H142.324V123.151H155.16V121.966Z" fill="#263238"/>
<path d="M135.394 182.039H134.663L131.611 150.744C131.354 148.147 129.665 146.205 127.683 146.205H121.63C119.643 146.205 117.959 148.162 117.701 150.744L114.675 182.039H113.934L117.01 150.603C117.308 147.531 119.305 145.211 121.656 145.211H127.708C130.058 145.211 132.055 147.531 132.358 150.603L135.394 182.039Z" fill="#263238"/>
<path d="M112.612 182.039H111.881L108.825 150.744C108.573 148.147 106.883 146.205 104.896 146.205H98.8536C96.8664 146.205 95.1768 148.162 94.9247 150.744L91.8683 182.039H91.137L94.2236 150.603C94.5212 147.531 96.5184 145.211 98.8738 145.211H104.906C107.256 145.211 109.258 147.531 109.556 150.603L112.612 182.039Z" fill="#263238"/>
<path d="M102.319 109.594L101.345 116.751C101.038 119.136 100.72 121.522 100.488 123.867L100.412 124.739L100.377 125.178C100.383 125.106 100.383 125.034 100.377 124.961C100.365 124.893 100.349 124.825 100.326 124.76C100.298 124.672 100.257 124.589 100.205 124.513C100.13 124.417 100.12 124.432 100.14 124.452C100.183 124.499 100.232 124.539 100.286 124.573C100.465 124.698 100.654 124.808 100.851 124.901C101.864 125.367 102.911 125.756 103.983 126.066C106.222 126.762 108.573 127.327 110.893 127.907L110.63 129.924C108.149 129.844 105.677 129.588 103.232 129.158C101.936 128.94 100.662 128.602 99.4287 128.149C99.0652 128.007 98.7129 127.839 98.3746 127.645C98.1657 127.526 97.9666 127.391 97.7795 127.241C97.5156 127.035 97.2844 126.79 97.0936 126.515C96.9591 126.311 96.8507 126.09 96.7708 125.859C96.7283 125.72 96.6946 125.579 96.6699 125.435C96.6608 125.289 96.6608 125.143 96.6699 124.997V124.523V123.579C96.7708 121.088 96.9977 118.652 97.26 116.221C97.5223 113.79 97.8299 111.374 98.2132 108.953L102.319 109.594Z" fill="#F3AF00"/>
<path d="M116.254 130.055L114.685 131.488C114.507 131.651 114.284 131.758 114.045 131.793C113.806 131.828 113.561 131.79 113.344 131.684L111.614 130.852C111.614 130.852 109.052 130.746 108.684 129.178L109.349 127.962L113.319 127.519C113.728 127.475 114.141 127.567 114.494 127.781L116.128 128.789C116.232 128.854 116.321 128.942 116.386 129.047C116.451 129.151 116.491 129.269 116.503 129.391C116.515 129.514 116.499 129.637 116.456 129.752C116.413 129.868 116.344 129.971 116.254 130.055Z" fill="#F3AF00"/>
<path d="M106.883 94.8868C107.286 97.343 107.629 101.832 105.874 103.405C108.641 104.948 111.059 107.046 112.976 109.569C116.002 107.188 113.48 103.632 113.48 103.632C110.777 102.901 110.908 100.884 111.437 99.0023L106.883 94.8868Z" fill="#F3AF00"/>
<path d="M101.027 104.046C97.9357 105.055 97.27 109.195 97.5474 112.418L103.786 116.256C103.786 116.256 105.299 111.551 105.299 109.034C105.274 106.356 103.126 103.365 101.027 104.046Z" fill="#263238"/>
<path d="M120.672 110.068C120.415 113.598 119.623 119.595 117.676 129.657L100.972 129.153C101.411 122.984 100.75 118.39 99.2369 107.597C99.175 107.13 99.2071 106.655 99.3314 106.201C99.4557 105.747 99.6695 105.322 99.9605 104.952C100.251 104.581 100.613 104.273 101.025 104.045C101.437 103.816 101.891 103.673 102.359 103.622C103.428 103.511 104.649 103.421 105.889 103.395C108.413 103.292 110.941 103.368 113.455 103.622C114.272 103.723 115.109 103.849 115.911 103.985C117.32 104.224 118.589 104.98 119.469 106.105C120.35 107.23 120.779 108.643 120.672 110.068V110.068Z" fill="#263238"/>
<path d="M114.6 89.929C114.701 90.2467 114.953 90.4333 115.16 90.3829C115.366 90.3325 115.452 90.0046 115.351 89.6919C115.25 89.3792 114.998 89.1876 114.791 89.238C114.585 89.2884 114.489 89.6163 114.6 89.929Z" fill="#263238"/>
<path d="M114.706 89.2833L115.391 88.8193C115.391 88.8193 115.195 89.5405 114.706 89.2833Z" fill="#263238"/>
<path d="M114.812 90.4081C115.324 91.039 115.921 91.5958 116.587 92.0624C116.463 92.2297 116.304 92.3678 116.121 92.4671C115.938 92.5665 115.735 92.6246 115.528 92.6374L114.812 90.4081Z" fill="#F3AF00"/>
<path d="M114.085 87.0844C114.102 87.0553 114.111 87.0222 114.111 86.9886C114.111 86.955 114.102 86.9219 114.085 86.8928C114.054 86.8517 114.008 86.8245 113.957 86.817C113.906 86.8095 113.854 86.8222 113.813 86.8524C113.559 87.0301 113.352 87.2663 113.209 87.5411C113.065 87.8159 112.991 88.1212 112.991 88.4311C112.991 88.4565 112.997 88.4815 113.008 88.5046C113.018 88.5277 113.034 88.5483 113.052 88.5653C113.071 88.5823 113.093 88.5953 113.118 88.6034C113.142 88.6116 113.167 88.6147 113.192 88.6126C113.218 88.612 113.243 88.6062 113.267 88.5957C113.29 88.5851 113.311 88.57 113.328 88.5512C113.346 88.5324 113.359 88.5103 113.368 88.4862C113.377 88.4621 113.38 88.4365 113.379 88.4109V88.4109C113.381 88.1656 113.443 87.9245 113.559 87.7084C113.675 87.4922 113.842 87.3075 114.045 87.1702C114.066 87.1461 114.08 87.1163 114.085 87.0844Z" fill="#263238"/>
<path d="M103.428 92.0321C104.941 95.8349 105.446 97.4741 108.068 98.8358C111.982 100.883 116.325 98.2205 116.002 94.0495C115.714 90.2971 113.329 84.7088 109.032 84.3861C108.083 84.3044 107.129 84.4683 106.262 84.862C105.395 85.2557 104.644 85.866 104.081 86.6341C103.518 87.4022 103.162 88.3022 103.048 89.2476C102.934 90.193 103.065 91.1519 103.428 92.0321V92.0321Z" fill="#F3AF00"/>
<path d="M112.562 91.1545C113.298 90.9427 114.58 89.475 112.345 86.5195C113.541 86.3026 114.514 84.1087 111.236 82.8528C107.957 81.597 104.381 82.2073 102.213 85.2132C102.213 85.2132 95.298 87.2558 100.932 94.3723C106.565 101.489 113.717 98.5887 112.562 91.1545Z" fill="#263238"/>
<path d="M99.6506 85.2082C99.6497 85.409 99.6997 85.6069 99.7958 85.7832C99.8919 85.9596 100.031 86.1088 100.2 86.2169C100.525 86.49 100.929 86.6513 101.352 86.6768C101.776 86.7022 102.196 86.5904 102.551 86.3581C103.317 85.8538 104.016 85.2557 104.634 84.5777C104.816 84.3799 104.958 84.1476 105.049 83.8944C105.14 83.6412 105.18 83.3722 105.166 83.1034C105.152 82.8345 105.084 82.5712 104.967 82.329C104.849 82.0867 104.685 81.8704 104.482 81.6928C104.39 81.6152 104.292 81.5444 104.19 81.481C104.19 81.481 100.231 81.597 99.6506 85.2082Z" fill="#F38300"/>
<path d="M100.21 84.7341C102.475 84.371 103.68 82.5604 103.812 82.0207C103.307 80.6892 96.7506 72.2261 91.1624 78.4146C85.2614 84.9712 96.8111 91.5631 92.6754 99.4562C99.8625 97.0404 105.723 92.0674 100.21 84.7341Z" fill="#263238"/>
<path d="M110.928 91.9413C111.312 92.6983 111.982 93.2715 112.789 93.5351C113.858 93.873 114.433 92.9248 114.166 91.8959C113.929 90.9679 113.086 89.6717 111.997 89.7827C111.759 89.8107 111.533 89.8976 111.337 90.0354C111.142 90.1733 110.984 90.3578 110.877 90.5722C110.771 90.7866 110.72 91.0241 110.729 91.2631C110.738 91.5022 110.806 91.7353 110.928 91.9413V91.9413Z" fill="#F3AF00"/>
<path d="M137.956 175.629L141.9 175.256L139.242 165.542L135.298 165.915L137.956 175.629Z" fill="#F3AF00"/>
<path d="M147.216 177.914C144.805 177.202 144.881 176.143 142.475 174.186C142.235 173.97 141.934 173.832 141.613 173.793L137.689 173.521C137.613 173.521 137.539 173.549 137.482 173.599C137.425 173.649 137.387 173.718 137.376 173.793L136.821 176.512C136.63 177.455 137.21 178.357 138.027 178.388C139.333 178.438 140.937 178.489 142.364 178.584C144.447 178.731 144.473 179.785 146.904 179.669C148.401 179.598 148.038 178.156 147.216 177.914Z" fill="#263238"/>
<path d="M152.633 163.131L155.306 160.811L150.832 154.017L147.489 157.185L152.633 163.131Z" fill="#F3AF00"/>
<path d="M154.59 159.374L151.402 162.324C151.342 162.381 151.303 162.458 151.293 162.541C151.283 162.624 151.302 162.708 151.347 162.778L152.86 165.118C152.989 165.3 153.156 165.453 153.349 165.566C153.542 165.679 153.756 165.749 153.978 165.773C154.2 165.797 154.425 165.774 154.638 165.704C154.85 165.635 155.045 165.521 155.21 165.37C156.254 164.563 156.844 163.146 158.08 161.986C159.881 160.302 160.203 160.347 161.318 157.992C162.074 156.408 160.425 156.403 159.845 156.892C158.388 158.133 158.963 158.183 155.568 158.91C155.206 158.972 154.868 159.133 154.59 159.374V159.374Z" fill="#263238"/>
<path d="M111.851 129.369C111.851 129.369 138.894 125.365 141.694 132.3C146.566 144.359 153.617 157.946 153.617 157.946L150.439 160.861C150.439 160.861 138.335 150.013 134.138 137.893C129.13 139.517 113.187 144.732 107.347 144.732C101.113 144.732 98.5662 139.416 100.821 130.61C100.919 130.227 101.142 129.887 101.456 129.646C101.77 129.405 102.155 129.275 102.551 129.279C106.475 129.279 111.851 129.369 111.851 129.369Z" fill="#5200FF"/>
<path opacity="0.5" d="M111.851 129.369C111.851 129.369 138.894 125.365 141.694 132.3C146.566 144.359 153.617 157.946 153.617 157.946L150.439 160.861C150.439 160.861 138.335 150.013 134.138 137.893C129.13 139.517 113.187 144.732 107.347 144.732C101.113 144.732 98.5662 139.416 100.821 130.61C100.919 130.227 101.142 129.887 101.456 129.646C101.77 129.405 102.155 129.275 102.551 129.279C106.475 129.279 111.851 129.369 111.851 129.369Z" fill="white"/>
<path d="M114.443 132.89C114.443 132.89 136.635 132.219 136.827 140.082C137.134 153.089 141.124 171.69 141.124 171.69L136.751 172.098C136.751 172.098 130.124 157.275 128.384 144.55C120.475 145.055 113.188 144.712 107.347 144.712C100.79 144.712 100.286 137.525 106.636 129.142C110.53 129.163 114.443 132.89 114.443 132.89Z" fill="#5200FF"/>
<path opacity="0.5" d="M114.443 132.89C114.443 132.89 136.635 132.219 136.827 140.082C137.134 153.089 141.124 171.69 141.124 171.69L136.751 172.098C136.751 172.098 130.124 157.275 128.384 144.55C120.475 145.055 113.188 144.712 107.347 144.712C100.79 144.712 100.286 137.525 106.636 129.142C110.53 129.163 114.443 132.89 114.443 132.89Z" fill="white"/>
<path d="M100.755 128.174L100.281 129.657C100.22 129.773 100.352 129.894 100.548 129.899L117.737 130.403C117.888 130.403 118.014 130.338 118.029 130.247L118.221 128.734C118.221 128.633 118.11 128.537 117.943 128.532L101.027 128.028C100.973 128.024 100.918 128.035 100.87 128.061C100.822 128.087 100.782 128.126 100.755 128.174V128.174Z" fill="white"/>
<path d="M102.969 130.131H102.515C102.425 130.131 102.359 130.081 102.364 130.02L102.636 128.083C102.636 128.028 102.722 127.983 102.813 127.988H103.267C103.358 127.988 103.423 128.038 103.418 128.094L103.146 130.03C103.141 130.091 103.06 130.136 102.969 130.131Z" fill="#263238"/>
<path d="M116.461 130.534H116.007C115.916 130.534 115.85 130.484 115.855 130.429L116.128 128.492C116.128 128.436 116.214 128.391 116.304 128.391H116.758C116.849 128.391 116.915 128.441 116.91 128.502L116.637 130.434C116.632 130.494 116.552 130.534 116.461 130.534Z" fill="#263238"/>
<path d="M109.712 130.333H109.264C109.173 130.333 109.102 130.282 109.112 130.227L109.38 128.29C109.38 128.235 109.47 128.189 109.561 128.194H110.015C110.106 128.194 110.171 128.25 110.161 128.305L109.894 130.242C109.884 130.292 109.803 130.338 109.712 130.333Z" fill="#263238"/>
<path d="M121.308 111.984C121.373 112.342 121.469 112.806 121.555 113.22C121.64 113.634 121.746 114.077 121.857 114.501C122.074 115.348 122.316 116.191 122.589 117.023C122.863 117.83 123.178 118.623 123.532 119.398C123.874 120.135 124.277 120.842 124.737 121.512L124.818 121.638L124.788 121.597C124.767 121.573 124.743 121.551 124.717 121.532C124.675 121.491 124.63 121.454 124.581 121.421C124.457 121.331 124.313 121.272 124.162 121.249C124.026 121.249 124.102 121.249 124.213 121.249C124.557 121.213 124.896 121.135 125.221 121.017C126.039 120.735 126.841 120.407 127.622 120.034C129.251 119.272 130.91 118.415 132.54 117.563L133.725 119.237C132.29 120.526 130.761 121.706 129.15 122.767C128.308 123.327 127.427 123.824 126.512 124.255C125.973 124.512 125.406 124.706 124.823 124.835C124.38 124.932 123.924 124.946 123.476 124.876C123.094 124.81 122.731 124.662 122.412 124.442C122.316 124.375 122.225 124.301 122.14 124.22L122.014 124.089L121.918 123.988L121.792 123.827C120.476 122.205 119.441 120.374 118.73 118.41C118.375 117.474 118.07 116.519 117.817 115.55C117.691 115.046 117.58 114.582 117.474 114.093C117.369 113.603 117.288 113.134 117.212 112.58L121.308 111.984Z" fill="#F3AF00"/>
<path d="M119.3 105.912C122.226 108.166 122.226 114.794 122.226 114.794L117.182 116.191C117.182 116.191 113.556 111.798 114.474 109.715C115.437 107.546 117.722 104.707 119.3 105.912Z" fill="#263238"/>
<path d="M136.852 117.447C136.807 117.445 136.764 117.432 136.726 117.41C136.688 117.387 136.657 117.354 136.635 117.315L132.645 109.674C132.631 109.646 132.622 109.615 132.619 109.583C132.616 109.551 132.62 109.519 132.63 109.488C132.64 109.458 132.656 109.43 132.676 109.405C132.697 109.381 132.723 109.361 132.751 109.347C132.808 109.318 132.874 109.312 132.936 109.331C132.997 109.35 133.048 109.391 133.079 109.447L137.074 117.088C137.088 117.117 137.097 117.148 137.1 117.18C137.103 117.212 137.099 117.244 137.089 117.274C137.079 117.305 137.064 117.333 137.043 117.358C137.022 117.382 136.996 117.402 136.968 117.416C136.932 117.436 136.892 117.447 136.852 117.447V117.447Z" fill="#263238"/>
<path d="M135.167 113.099L133.654 114.027C133.273 114.262 132.98 114.616 132.822 115.036L131.41 118.718L130.759 121.058C132.272 121.602 135.016 118.032 135.016 118.032L136.741 116.735C136.878 116.632 136.981 116.489 137.037 116.327C137.093 116.164 137.098 115.989 137.054 115.823L136.464 113.624C136.431 113.491 136.367 113.368 136.278 113.265C136.189 113.162 136.076 113.081 135.95 113.03C135.823 112.979 135.686 112.958 135.55 112.97C135.414 112.982 135.283 113.026 135.167 113.099V113.099Z" fill="#F3AF00"/>
<path d="M133.357 143.037L122.054 142.573L119.098 125.198C117.585 116.246 109.833 108.994 101.799 108.994H94.723C86.6886 108.994 81.4131 116.246 82.9362 125.198L84.9536 137.192C85.7102 141.63 89.5534 145.231 93.5277 145.231H138.193C138.287 145.219 138.374 145.177 138.443 145.112C138.512 145.047 138.559 144.962 138.577 144.87C138.595 144.777 138.584 144.681 138.545 144.595C138.506 144.508 138.442 144.437 138.36 144.389C136.809 143.583 135.102 143.122 133.357 143.037Z" fill="#F38300"/>
<path d="M136.015 144.848H132.434V143.925H136.015C145.017 143.925 152.346 135.739 152.346 125.678V122.561H153.263V125.678C153.263 136.249 145.527 144.848 136.015 144.848Z" fill="#263238"/>
<path d="M191.816 171.765L198.277 170.394L199.492 178.11L194.096 179.265L191.816 171.765Z" fill="#F3AF00"/>
<path opacity="0.2" d="M191.816 171.765L198.282 170.394L198.963 174.716L193.092 175.967L191.816 171.765Z" fill="black"/>
<path d="M195.689 142.357C197.838 132.35 202.281 121.905 198.08 112.373L179.641 112.312C179.641 112.312 181.048 134.226 181.694 143.461C182.369 153.044 192.093 174.817 192.093 174.817L199.482 173.193C199.482 173.193 197.379 153.074 195.689 142.357Z" fill="#263238"/>
<path opacity="0.2" d="M195.881 141.403C197.203 135.613 199.17 129.687 199.684 123.897C192.694 116.271 193.576 131.821 195.881 141.403Z" fill="black"/>
<path d="M200.965 180.254L199.265 180.632L198.761 180.128L198.141 180.869L195.009 182.226C193.861 182.725 192.624 182.982 191.372 182.982H188.8C188.762 182.295 188.904 181.61 189.214 180.995C189.214 180.995 191.695 180.562 192.976 178.499C193.062 178.389 193.174 178.303 193.302 178.246C193.429 178.19 193.569 178.166 193.707 178.176C194.893 178.146 198.01 177.969 199.563 176.95C199.6 176.929 199.641 176.916 199.684 176.913C199.726 176.91 199.769 176.917 199.808 176.934C199.847 176.951 199.882 176.977 199.91 177.009C199.937 177.042 199.957 177.08 199.967 177.122C200.215 178.191 200.549 179.238 200.965 180.254V180.254Z" fill="#263238"/>
<path d="M206.785 172.719L213.397 172.784L213.685 180.582L208.162 180.536L206.785 172.719Z" fill="#F3AF00"/>
<path opacity="0.2" d="M206.785 172.724L213.403 172.784L213.564 177.152L207.557 177.102L206.785 172.724Z" fill="black"/>
<path d="M213.977 142.357C214.512 132.35 215.238 117.376 211.884 112.776L191.292 112.312C191.292 112.312 197.016 134.226 199.154 143.461C201.374 153.044 206.821 175.74 206.821 175.74H213.967C213.967 175.74 216.666 153.78 213.977 142.357Z" fill="#263238"/>
<path d="M187.877 82.6107L187.569 82.8831L187.337 83.0798L186.889 83.4378C186.596 83.6598 186.303 83.8665 186.006 84.0683C185.425 84.4656 184.822 84.8293 184.2 85.1577C182.965 85.8199 181.668 86.3588 180.327 86.7666C179.656 86.9734 178.965 87.1398 178.274 87.2709C177.583 87.4021 176.877 87.5029 176.171 87.5736C174.756 87.7065 173.33 87.6879 171.919 87.5181L171.385 87.4525C170.891 87.3932 170.418 87.2206 170.003 86.9482C168.844 86.181 167.808 85.2423 166.931 84.1641C166.17 83.232 165.495 82.2326 164.914 81.1783C164.369 80.187 163.894 79.159 163.492 78.1018C163.295 77.5974 163.123 77.0527 162.957 76.5231C162.79 75.9936 162.674 75.4741 162.538 74.8588C162.422 74.346 162.476 73.8095 162.691 73.3297C162.906 72.8499 163.27 72.4527 163.73 72.1975C164.189 71.9424 164.719 71.8432 165.24 71.9147C165.761 71.9862 166.245 72.2247 166.618 72.5942L166.871 72.8464C167.163 73.1389 167.506 73.5273 167.824 73.8551C168.142 74.1829 168.475 74.5511 168.792 74.8941C169.443 75.575 170.078 76.2357 170.729 76.8308C171.327 77.4248 171.965 77.9759 172.64 78.48C173.149 78.8655 173.707 79.181 174.3 79.4181L172.388 78.8583C173.22 78.8017 174.047 78.6803 174.86 78.4952C175.673 78.3021 176.472 78.051 177.25 77.7437C178.035 77.4226 178.8 77.0537 179.54 76.6391C179.913 76.4324 180.271 76.2054 180.619 75.9885C180.796 75.8776 180.962 75.7616 181.124 75.6557L181.351 75.4993L181.441 75.4337H181.477H181.447C182.401 74.5817 183.655 74.1436 184.932 74.216C186.209 74.2883 187.406 74.8652 188.258 75.8196C189.11 76.774 189.548 78.0278 189.476 79.3051C189.403 80.5825 188.826 81.7788 187.872 82.6309L187.877 82.6107Z" fill="#F3AF00"/>
<path d="M163.865 75.9077L165.786 73.8903C166.921 71.197 163.204 70.3346 163.204 70.3346L160.889 68.645C160.59 68.4644 160.237 68.3953 159.892 68.4497C159.547 68.5042 159.232 68.6787 159.003 68.9426L157.651 70.3447C157.502 70.4767 157.381 70.6368 157.294 70.8158C157.207 70.9947 157.156 71.1891 157.144 71.3878C157.133 71.5864 157.16 71.7854 157.226 71.9734C157.291 72.1613 157.393 72.3346 157.525 72.4831L159.457 74.2433C159.815 74.5964 160.255 74.8546 160.738 74.9948L163.865 75.9077Z" fill="#F3AF00"/>
<path d="M190.031 71.5855C185.562 71.3233 179.015 76.4627 179.015 76.4627C178.395 78.1724 179.923 84.5323 182.657 87.3063C182.657 87.3063 185.794 88.0527 188.538 84.7442C191.523 81.138 194.766 71.8579 190.031 71.5855Z" fill="#5200FF"/>
<path d="M190.918 71.419C197.035 70.8396 203.197 70.9377 209.292 71.7116C210.126 71.8348 210.927 72.1272 211.644 72.5707C212.361 73.0143 212.981 73.5997 213.464 74.291C213.947 74.9824 214.284 75.7651 214.453 76.5912C214.623 77.4173 214.623 78.2695 214.452 79.0953C211.597 93.4795 213.73 109.538 211.884 112.756C211.884 112.756 191.503 113.109 179.606 112.292C176.353 96.657 182.753 87.1196 185.966 74.9243C186.535 72.8615 188.775 71.6662 190.918 71.419Z" fill="#5200FF"/>
<path d="M215.924 77.3604L216.378 77.9303L216.782 78.4347C217.039 78.7776 217.286 79.1307 217.528 79.4787C218.032 80.1747 218.476 80.8959 218.92 81.6222C219.819 83.1039 220.611 84.6478 221.29 86.2421C222.025 87.9264 222.583 89.6826 222.955 91.4823C223.396 93.5054 223.469 95.5914 223.172 97.6405L223.111 98.054C223.058 98.3929 222.943 98.7193 222.773 99.0174C222.171 100.071 221.497 101.082 220.756 102.043C220.047 102.963 219.288 103.842 218.481 104.676C217.679 105.493 216.857 106.27 215.99 107.001C215.114 107.743 214.193 108.429 213.231 109.054C212.781 109.35 212.246 109.49 211.709 109.451C211.171 109.412 210.662 109.196 210.259 108.838C209.857 108.48 209.584 107.999 209.483 107.47C209.382 106.941 209.458 106.393 209.7 105.912L209.811 105.715C210.245 104.848 210.77 103.925 211.239 103.037C211.708 102.149 212.192 101.262 212.636 100.379C213.08 99.4965 213.498 98.624 213.907 97.7766C214.315 96.9293 214.628 96.0719 214.941 95.2549L214.542 96.6267C214.517 95.6141 214.348 94.6103 214.038 93.646C213.861 93.0708 213.653 92.5051 213.418 91.9514C213.186 91.3764 212.913 90.7913 212.626 90.2063C212.036 89.0412 211.375 87.861 210.649 86.7061C210.296 86.121 209.907 85.5511 209.534 84.9812L208.959 84.1389L208.429 83.3874L208.253 83.1352C207.508 82.1126 207.195 80.8378 207.382 79.5863C207.569 78.3348 208.241 77.2072 209.253 76.4473C210.264 75.6873 211.535 75.356 212.789 75.525C214.043 75.6939 215.18 76.3496 215.954 77.3503L215.924 77.3604Z" fill="#F3AF00"/>
<path d="M210.876 72.1756C215.092 73.6887 219.066 80.8202 219.066 80.8202C218.89 83.4177 214.754 89.2984 211.829 90.5845C209.787 88.8351 208.274 86.5503 207.461 83.9876C206.119 79.4887 208.707 72.8212 210.876 72.1756Z" fill="#5200FF"/>
<path d="M193.813 72.4984C194.217 71.7242 194.869 71.108 195.664 70.7483C195.964 69.9729 195.987 69.1179 195.73 68.3274L204.768 65.4475C204.037 68.4384 203.462 70.8038 204.576 72.2563C202.796 73.3457 199.533 75.2825 196.002 75.1917C192.472 75.1009 193.233 73.7543 193.813 72.4984Z" fill="#F3AF00"/>
<path opacity="0.2" d="M195.8 68.6097L202.594 68.2113C200.471 70.4809 197.253 71.3332 195.78 70.4103C195.943 69.8219 195.949 69.2015 195.8 68.6097V68.6097Z" fill="black"/>
<path d="M195.78 75.1815L197.253 73.9407L199.225 74.9494C199.225 74.9494 197.964 76.1347 195.78 75.1815Z" fill="#5200FF"/>
<path opacity="0.3" d="M195.78 75.1815L197.253 73.9407L199.225 74.9494C199.225 74.9494 197.964 76.1347 195.78 75.1815Z" fill="black"/>
<path d="M200.789 56.0917C200.678 53.3127 197.994 52.0569 195.669 53.5044C193.344 54.9519 193.148 59.4255 194.857 61.7607C196.567 64.0958 200.789 56.0917 200.789 56.0917Z" fill="#F5F5F5"/>
<path d="M206.548 60.868C205.469 64.7616 204.642 67.3843 201.833 68.6401C196.239 71.1266 193.763 68.4888 193.546 64.3733C193.369 60.6713 195.165 54.9267 199.654 54.0895C204.142 53.2522 207.628 56.9693 206.548 60.868Z" fill="#F3AF00"/>
<path d="M203.452 58.8405C202.246 59.9854 201.767 65.0491 203.588 64.9633C204.828 64.8925 206.062 64.734 207.28 64.4892C207.28 64.4892 209.595 63.6117 208.329 60.1417C207.063 56.6717 203.452 58.8405 203.452 58.8405Z" fill="#E0E0E0"/>
<path opacity="0.2" d="M200.229 60.3939C200.741 60.2619 201.284 60.3361 201.742 60.6007C201.229 60.6296 200.715 60.5593 200.229 60.3939V60.3939Z" fill="black"/>
<path opacity="0.2" d="M200.178 60.7569C200.415 60.7441 200.653 60.7825 200.874 60.8695C201.095 60.9565 201.294 61.0902 201.459 61.2613C201.001 61.1873 200.564 61.0152 200.178 60.7569V60.7569Z" fill="black"/>
<path opacity="0.2" d="M196.799 56.2884C198.077 56.2823 199.351 56.4108 200.602 56.6717C198.479 56.5204 196.799 56.2884 196.799 56.2884Z" fill="black"/>
<path opacity="0.2" d="M196.194 56.6212C196.194 56.6212 199.099 56.939 200.446 57.5644C199.01 57.3417 197.589 57.0266 196.194 56.6212Z" fill="black"/>
<path d="M207.35 65.4273C206.983 65.8222 206.541 66.1409 206.05 66.365C205.56 66.5891 205.03 66.7144 204.49 66.7336C203.043 66.7689 202.66 65.3869 203.346 64.2118C203.966 63.1476 205.464 61.8464 206.775 62.3759C207.059 62.4951 207.308 62.6827 207.502 62.922C207.695 63.1613 207.826 63.4447 207.883 63.747C207.94 64.0493 207.921 64.361 207.828 64.6542C207.735 64.9475 207.571 65.2131 207.35 65.4273V65.4273Z" fill="#F3AF00"/>
<path d="M198.948 60.3387C199.011 59.9905 198.877 59.6752 198.649 59.6343C198.422 59.5934 198.187 59.8426 198.124 60.1908C198.062 60.5389 198.195 60.8543 198.423 60.8952C198.651 60.936 198.886 60.6869 198.948 60.3387Z" fill="#263238"/>
<path d="M195.347 59.7735C195.286 60.1165 195.049 60.3636 194.842 60.3182C194.635 60.2728 194.484 59.9601 194.55 59.6121C194.615 59.2641 194.847 59.017 195.054 59.0624C195.261 59.1078 195.412 59.4255 195.347 59.7735Z" fill="#263238"/>
<path d="M196.492 60.2678L195.987 63.1931C195.637 63.1983 195.288 63.149 194.953 63.0468C194.887 63.0223 194.829 62.9803 194.784 62.9251C194.74 62.8699 194.712 62.8038 194.703 62.7337C194.693 62.6637 194.703 62.5924 194.731 62.5276C194.76 62.4628 194.805 62.4069 194.862 62.3659C195.536 61.7781 196.089 61.0657 196.492 60.2678V60.2678Z" fill="#F3AF00"/>
<path d="M200.985 59.7029C201.018 59.7144 201.054 59.7144 201.086 59.7029C201.111 59.6911 201.133 59.6745 201.151 59.654C201.169 59.6335 201.182 59.6095 201.191 59.5836C201.199 59.5577 201.203 59.5303 201.2 59.5031C201.198 59.4759 201.19 59.4495 201.177 59.4255C201.036 59.1245 200.825 58.8616 200.562 58.6589C200.299 58.4561 199.991 58.3195 199.664 58.2604C199.637 58.2569 199.609 58.2588 199.583 58.2661C199.556 58.2733 199.531 58.2858 199.51 58.3027C199.488 58.3196 199.47 58.3406 199.457 58.3645C199.443 58.3884 199.435 58.4148 199.432 58.442C199.427 58.4964 199.444 58.5506 199.477 58.5936C199.511 58.6366 199.56 58.6653 199.613 58.674V58.674C199.87 58.7259 200.11 58.8375 200.315 58.9996C200.52 59.1617 200.684 59.3698 200.794 59.6071C200.813 59.6399 200.841 59.6664 200.875 59.6834C200.909 59.7004 200.948 59.7072 200.985 59.7029V59.7029Z" fill="#263238"/>
<path d="M194.141 58.5682C194.175 58.5734 194.209 58.5707 194.242 58.5602C194.274 58.5497 194.304 58.5317 194.328 58.5076C194.5 58.3127 194.716 58.1615 194.958 58.0668C195.2 57.972 195.461 57.9364 195.72 57.9629C195.773 57.9718 195.828 57.9593 195.872 57.9281C195.917 57.897 195.947 57.8498 195.957 57.7965C195.966 57.7425 195.953 57.687 195.922 57.6419C195.891 57.5968 195.844 57.5654 195.79 57.5544C195.464 57.5161 195.134 57.5566 194.827 57.6725C194.52 57.7883 194.245 57.9761 194.025 58.2202C194.005 58.239 193.99 58.2617 193.979 58.2868C193.968 58.312 193.962 58.339 193.962 58.3664C193.962 58.3938 193.968 58.4209 193.979 58.446C193.99 58.4711 194.005 58.4938 194.025 58.5127C194.056 58.5447 194.097 58.5644 194.141 58.5682V58.5682Z" fill="#263238"/>
<path d="M203.971 70.2388C203.971 70.2388 201.051 73.7693 197.253 73.9609C199.462 75.01 199.835 77.4914 199.835 77.4914C199.835 77.4914 204.581 76.0489 205.474 71.0004C205.302 70.7635 205.075 70.571 204.814 70.4386C204.553 70.3062 204.264 70.2377 203.971 70.2388V70.2388Z" fill="white"/>
<path d="M195.78 75.1816L194.116 73.6685L191.998 74.2989C191.998 74.2989 193.596 76.1348 195.78 75.1816Z" fill="#5200FF"/>
<path opacity="0.3" d="M195.78 75.1816L194.116 73.6685L191.998 74.2989C191.998 74.2989 193.596 76.1348 195.78 75.1816Z" fill="black"/>
<path d="M195.69 70.7483C195.69 70.7483 194.212 72.4581 194.141 73.6937C192.366 74.1981 191.508 76.8006 191.508 76.8006C191.508 76.8006 191.186 73.0734 193.975 71.066C194.502 70.7912 195.099 70.6806 195.69 70.7483V70.7483Z" fill="white"/>
<path d="M214.623 182.997H213.186L212.797 182.412L212.041 183.003H203.366C203.314 182.319 203.442 181.634 203.739 181.015C203.739 181.015 206.331 180.778 207.33 179.502C207.365 179.452 207.413 179.413 207.47 179.39C207.526 179.367 207.588 179.36 207.648 179.371C208.515 179.553 211.945 180.203 213.831 179.522C213.878 179.504 213.929 179.497 213.979 179.502C214.029 179.507 214.077 179.524 214.119 179.552C214.161 179.579 214.196 179.617 214.221 179.661C214.245 179.705 214.259 179.754 214.26 179.805C214.298 180.877 214.419 181.944 214.623 182.997V182.997Z" fill="#263238"/>
<path d="M195.861 76.4978C196.27 75.8623 196.481 75.1865 196.022 74.8839C195.695 74.672 194.711 74.3795 194.509 75.0402C194.308 75.7009 194.333 76.2658 194.61 76.5533C194.693 76.6367 194.793 76.7019 194.903 76.7447C195.013 76.7874 195.13 76.8068 195.248 76.8016C195.366 76.7964 195.481 76.7666 195.586 76.7143C195.692 76.662 195.786 76.5883 195.861 76.4978V76.4978Z" fill="#263238"/>
<path d="M196.068 75.0252C196.925 73.8349 199.447 73.4113 199.447 74.3897C199.447 76.271 199.386 78.1724 198.579 78.6162C197.772 79.0601 196.501 76.1499 195.881 76.0944L196.068 75.0252Z" fill="#263238"/>
<path d="M194.681 74.9495C194.176 73.6937 192.578 73.2499 192.315 74.1829C191.811 75.9734 191.74 77.4562 192.315 77.9706C192.89 78.4851 194.151 76.0238 194.661 76.044L194.681 74.9495Z" fill="#263238"/>
<path d="M166.503 73.27C167.138 70.9651 165.529 69.5378 164.637 68.0449C164.48 67.7927 163.709 67.9289 163.668 68.4635C163.617 68.7893 163.632 69.122 163.713 69.4418C163.794 69.7616 163.938 70.0618 164.137 70.3245C163.668 70.9096 162.972 72.9573 164.606 74.2888C165.342 74.1931 166.017 73.8305 166.503 73.27V73.27Z" fill="#F3AF00"/>
<path d="M210.175 71.8024C209.951 71.6635 209.702 71.5709 209.442 71.5302C209.182 71.4895 208.917 71.5014 208.661 71.5654C207.088 73.376 200.254 86.5548 203.063 110.981H204.662C201.838 86.5498 208.601 73.6131 210.175 71.8024Z" fill="white"/>
<path d="M204.813 112.978L204.672 111.177C204.661 111.082 204.613 110.995 204.538 110.935C204.464 110.875 204.369 110.846 204.274 110.854L203.502 110.895C203.408 110.899 203.319 110.94 203.255 111.008C203.191 111.077 203.156 111.169 203.159 111.263L203.3 113.069C203.313 113.163 203.361 113.249 203.435 113.309C203.509 113.369 203.604 113.399 203.699 113.391L204.47 113.346C204.517 113.345 204.563 113.334 204.606 113.315C204.649 113.296 204.687 113.268 204.719 113.234C204.751 113.199 204.776 113.159 204.792 113.115C204.808 113.071 204.815 113.025 204.813 112.978Z" fill="white"/>
<path d="M204.849 111.823H203.124C203.031 111.82 202.943 111.786 202.872 111.727C202.802 111.667 202.754 111.585 202.735 111.495L202.624 110.799C202.616 110.758 202.617 110.717 202.627 110.676C202.637 110.636 202.656 110.599 202.683 110.567C202.71 110.536 202.743 110.511 202.781 110.494C202.819 110.477 202.86 110.47 202.902 110.471H204.627C204.718 110.474 204.806 110.508 204.876 110.568C204.946 110.627 204.993 110.709 205.01 110.799L205.126 111.495C205.134 111.536 205.134 111.577 205.123 111.618C205.113 111.658 205.094 111.695 205.067 111.727C205.041 111.758 205.007 111.783 204.969 111.8C204.931 111.817 204.89 111.824 204.849 111.823Z" fill="#263238"/>
<path d="M191.337 71.419C191.039 71.182 190.101 71.3181 189.632 71.5854C187.983 73.3961 180.554 86.5749 182.289 111.001H183.888C182.158 86.5497 189.688 73.2095 191.337 71.419Z" fill="white"/>
<path d="M183.963 112.978L183.903 111.177C183.9 111.131 183.887 111.085 183.866 111.043C183.845 111.002 183.816 110.965 183.78 110.934C183.744 110.904 183.703 110.882 183.658 110.868C183.613 110.854 183.566 110.85 183.52 110.855L182.743 110.895C182.648 110.9 182.558 110.941 182.492 111.009C182.425 111.077 182.387 111.168 182.385 111.263L182.445 113.069C182.454 113.162 182.499 113.248 182.571 113.308C182.643 113.369 182.735 113.398 182.829 113.391L183.605 113.346C183.701 113.342 183.791 113.302 183.858 113.233C183.924 113.165 183.962 113.073 183.963 112.978Z" fill="white"/>
<path d="M184.049 111.823H182.324C182.233 111.82 182.147 111.786 182.078 111.726C182.01 111.667 181.965 111.585 181.951 111.495L181.87 110.799C181.864 110.758 181.868 110.715 181.88 110.675C181.892 110.635 181.913 110.598 181.94 110.567C181.968 110.536 182.003 110.511 182.041 110.495C182.079 110.478 182.121 110.47 182.163 110.471H183.888C183.978 110.474 184.065 110.508 184.134 110.568C184.202 110.628 184.247 110.709 184.261 110.799L184.342 111.495C184.348 111.536 184.344 111.579 184.332 111.619C184.32 111.659 184.299 111.696 184.272 111.727C184.244 111.758 184.209 111.783 184.171 111.799C184.132 111.816 184.091 111.824 184.049 111.823V111.823Z" fill="#263238"/>
<path d="M200.138 50.8969C198.181 49.3384 194.938 53.5044 199.22 55.8194C204.586 58.7245 203.941 63.415 210.881 62.0431C207.91 59.9601 209.796 58.3714 208.541 55.3655C207.138 51.9913 203.31 53.4187 200.138 50.8969Z" fill="#F5F5F5"/>
<path d="M197.152 53.3934C197.788 55.7236 198.559 56.2683 199.275 56.8785C198.774 56.0766 198.414 55.1946 198.211 54.271L197.152 53.3934Z" fill="#F5F5F5"/>
<path d="M194.287 64.2672C194.287 64.2672 195.8 64.1512 199.891 64.7716C199.23 65.9316 198.186 66.789 196.088 66.4712C195.821 66.4566 195.559 66.3863 195.32 66.2649C195.082 66.1436 194.871 65.9738 194.701 65.7664C194.532 65.559 194.408 65.3186 194.336 65.0604C194.265 64.8023 194.248 64.5321 194.287 64.2672V64.2672Z" fill="#263238"/>
<path d="M197.203 65.6341C196.403 65.468 195.572 65.558 194.827 65.8913C195.178 66.2037 195.616 66.4009 196.083 66.4562C196.88 66.6242 197.711 66.5342 198.453 66.1989C198.107 65.8826 197.669 65.6848 197.203 65.6341Z" fill="#F3AF00"/>
<path d="M194.479 64.2621C194.497 64.4189 194.558 64.5676 194.655 64.6921C194.752 64.8166 194.881 64.9121 195.029 64.9682C196.244 65.1461 197.472 65.2237 198.7 65.2002C198.894 65.2106 199.087 65.1732 199.263 65.0914C199.439 65.0096 199.592 64.8859 199.709 64.7312C197.98 64.4405 196.232 64.2837 194.479 64.2621V64.2621Z" fill="white"/>
<path d="M194.202 67.2682C194.242 68.3626 195.342 69.2856 195.054 69.9715C196.414 70.0744 197.773 69.7688 198.958 69.0939C199.046 69.0285 199.113 68.9387 199.151 68.8357C199.189 68.7326 199.196 68.6207 199.172 68.5137C199.147 68.4067 199.092 68.3091 199.013 68.233C198.933 68.1569 198.834 68.1056 198.726 68.0852C197.861 67.9997 197.032 67.6979 196.315 67.2076C196.224 67.1308 196.109 67.0887 195.99 67.0887C195.871 67.0887 195.755 67.1308 195.664 67.2076C194.797 67.8885 194.202 67.2682 194.202 67.2682Z" fill="#F5F5F5"/>
<path d="M212.969 112.756L187.368 94.9169L187.65 94.5084L213.498 111.984L212.969 112.756Z" fill="#263238"/>
<path d="M210.76 105.423L213.241 106.679C215.218 108.837 212 110.895 212 110.895L210.856 112.509C210.636 112.781 210.326 112.966 209.982 113.031C209.639 113.095 209.283 113.035 208.979 112.862L207.234 111.994C207.05 111.92 206.881 111.809 206.739 111.669C206.598 111.529 206.485 111.363 206.407 111.179C206.33 110.995 206.29 110.798 206.289 110.599C206.288 110.399 206.326 110.202 206.402 110.017L207.159 108.469C207.377 108.016 207.704 107.624 208.112 107.329L210.76 105.423Z" fill="#F3AF00"/>
</svg>
