<svg width="253" height="188" viewBox="0 0 253 188" fill="none" xmlns="http://www.w3.org/2000/svg">
<path d="M252.177 165.126H0V165.252H252.177V165.126Z" fill="#E0E0E0"/>
<path d="M185.996 170.467H177.82V170.593H185.996V170.467Z" fill="#E0E0E0"/>
<path d="M208.636 170.527H189.693V170.653H208.636V170.527Z" fill="#E0E0E0"/>
<path d="M155.841 172.812H136.05V172.938H155.841V172.812Z" fill="#E0E0E0"/>
<path d="M118.745 168.439H87.551V168.565H118.745V168.439Z" fill="#E0E0E0"/>
<path d="M59.4532 169.559H38.0383V169.685H59.4532V169.559Z" fill="#E0E0E0"/>
<path d="M119.532 142.631H22.1463C21.3834 142.63 20.6522 142.326 20.1132 141.786C19.5742 141.246 19.2715 140.515 19.2715 139.752V2.85462C19.2781 2.09608 19.5838 1.37079 20.1221 0.8363C20.6603 0.301805 21.3877 0.0012689 22.1463 -3.05176e-05H119.532C120.296 -3.05176e-05 121.028 0.303383 121.569 0.843463C122.109 1.38354 122.412 2.11605 122.412 2.87983V139.752C122.412 140.515 122.109 141.248 121.569 141.788C121.028 142.328 120.296 142.631 119.532 142.631V142.631ZM22.1463 0.100841C21.4168 0.102177 20.7177 0.392895 20.2024 0.909183C19.687 1.42547 19.3976 2.12514 19.3976 2.85462V139.752C19.3976 140.481 19.687 141.181 20.2024 141.697C20.7177 142.213 21.4168 142.504 22.1463 142.505H119.532C120.262 142.504 120.962 142.214 121.478 141.697C121.994 141.181 122.285 140.482 122.286 139.752V2.85462C122.285 2.12468 121.994 1.42502 121.478 0.908875C120.962 0.392731 120.262 0.102174 119.532 0.100841H22.1463Z" fill="#E0E0E0"/>
<path d="M228.629 142.631H131.238C130.475 142.63 129.743 142.326 129.203 141.787C128.663 141.247 128.36 140.515 128.358 139.752V2.85462C128.366 2.09562 128.673 1.37034 129.212 0.835984C129.751 0.301628 130.479 0.00125472 131.238 -3.05176e-05H228.629C229.387 0.00259439 230.113 0.303717 230.65 0.83807C231.187 1.37242 231.492 2.09695 231.499 2.85462V139.752C231.499 140.514 231.197 141.245 230.659 141.784C230.121 142.324 229.391 142.629 228.629 142.631V142.631ZM131.238 0.100841C130.508 0.102174 129.809 0.392731 129.292 0.908875C128.776 1.42502 128.486 2.12468 128.484 2.85462V139.752C128.486 140.482 128.776 141.181 129.292 141.697C129.809 142.214 130.508 142.504 131.238 142.505H228.629C229.359 142.504 230.059 142.214 230.575 141.697C231.091 141.181 231.381 140.482 231.383 139.752V2.85462C231.381 2.12468 231.091 1.42502 230.575 0.908875C230.059 0.392731 229.359 0.102174 228.629 0.100841H131.238Z" fill="#E0E0E0"/>
<path d="M210.982 148.532C210.982 148.532 220.06 142.067 212.303 132.595C205.121 123.804 187.731 132.444 187.731 132.444C187.731 132.444 190.944 122.225 177.457 120.571C163.971 118.917 167.4 133.427 167.4 133.427C157.122 128.262 156.809 134.184 157.717 138.612C155.195 137.265 152.103 136.841 149.491 140.039C143.524 147.342 150.5 152.325 150.5 152.325C150.5 152.325 137.432 156.128 145.058 165.126H218.038C227.928 153.46 210.982 148.532 210.982 148.532Z" fill="#E0E0E0"/>
<path d="M137.048 33.1159H81.6904V155.553H137.048V33.1159Z" fill="#E6E6E6"/>
<path d="M119.668 22.817H101.703V27.2755H119.668V22.817Z" fill="#E6E6E6"/>
<path d="M120.127 22.817H102.162V27.2755H120.127V22.817Z" fill="#F5F5F5"/>
<path d="M137.053 33.1159H84.3181V155.553H137.053V33.1159Z" fill="#F5F5F5"/>
<path d="M134.274 152.774V35.8948H87.092V152.774H134.274Z" fill="#F0F0F0"/>
<path d="M130.34 52.0595V39.4658H91.0259V52.0595H130.34Z" fill="#E6E6E6"/>
<path d="M130.34 68.2493V55.6556H91.0259V68.2493H130.34Z" fill="#E6E6E6"/>
<path d="M130.34 84.439V71.8453H91.0259V84.439H130.34Z" fill="#E6E6E6"/>
<path d="M130.34 100.629V88.0351H91.0259V100.629H130.34Z" fill="#E6E6E6"/>
<path d="M130.34 116.819V104.225H91.0259V116.819H130.34Z" fill="#E6E6E6"/>
<path d="M130.34 133.008V120.415H91.0259V133.008H130.34Z" fill="#E6E6E6"/>
<path d="M130.34 149.198V136.604H91.0259V149.198H130.34Z" fill="#E6E6E6"/>
<path d="M134.274 152.774V35.8948H133.553V152.774H134.274Z" fill="#E6E6E6"/>
<path d="M131.268 94.0874C131.269 94.5565 131.131 95.0153 130.871 95.4057C130.611 95.7962 130.242 96.1008 129.809 96.281C129.376 96.4612 128.899 96.5089 128.439 96.418C127.978 96.3271 127.556 96.1017 127.224 95.7704C126.892 95.4391 126.665 95.0167 126.573 94.5568C126.482 94.0968 126.528 93.6199 126.707 93.1865C126.887 92.753 127.191 92.3825 127.58 92.1218C127.97 91.8611 128.429 91.722 128.898 91.722C129.209 91.7213 129.517 91.782 129.805 91.9006C130.092 92.0192 130.354 92.1933 130.574 92.413C130.794 92.6327 130.969 92.8937 131.088 93.181C131.207 93.4684 131.268 93.7764 131.268 94.0874V94.0874Z" fill="#FAFAFA"/>
<path d="M92.2516 155.548H81.6904V160.334H92.2516V155.548Z" fill="#E6E6E6"/>
<path d="M92.2566 160.339H147.64V155.553H92.2566V160.339Z" fill="#F5F5F5"/>
<path d="M102.813 160.339H81.6904V165.126H102.813V160.339Z" fill="#E6E6E6"/>
<path d="M102.813 165.121H158.196V160.334H102.813V165.121Z" fill="#F5F5F5"/>
<path d="M217.745 33.1159H152.265V98.4601H217.745V33.1159Z" fill="#E0E0E0"/>
<path d="M219.263 33.1159H153.783V98.4601H219.263V33.1159Z" fill="#F5F5F5"/>
<path d="M217.745 98.4551H152.265V101.491H217.745V98.4551Z" fill="#E0E0E0"/>
<path d="M224.433 98.4551H162.528V101.491H224.433V98.4551Z" fill="#F5F5F5"/>
<path d="M216.535 95.3937V36.1825L156.516 36.1825V95.3937H216.535Z" fill="#FAFAFA"/>
<path opacity="0.5" d="M156.516 36.1825V95.3887H158.282C158.282 95.3887 166.376 76.0164 168.636 36.1825H156.516Z" fill="#E0E0E0"/>
<path opacity="0.5" d="M215.385 36.1825V95.3887H213.614C213.614 95.3887 205.545 76.0164 203.265 36.1825H215.385Z" fill="#E0E0E0"/>
<path d="M216.535 95.3887V36.1774H215.385V95.3887H216.535Z" fill="#E0E0E0"/>
<path d="M184.463 95.3937V36.1825H183.313V95.3937H184.463Z" fill="#E0E0E0"/>
<path d="M218.133 63.7252H154.913V67.8407H218.133V63.7252Z" fill="#F5F5F5"/>
<path d="M188.583 97.396V34.1751H184.468V97.396H188.583Z" fill="#F5F5F5"/>
<path d="M64.6936 33.1159H31.9509V98.4601H64.6936V33.1159Z" fill="#E0E0E0"/>
<path d="M66.2117 33.1159H33.469V98.4601H66.2117V33.1159Z" fill="#F5F5F5"/>
<path d="M64.6936 98.4551H31.9509V101.491H64.6936V98.4551Z" fill="#E0E0E0"/>
<path d="M71.3763 98.4551H42.2095V101.491H71.3763V98.4551Z" fill="#F5F5F5"/>
<path d="M63.478 95.3937L63.478 36.1825H36.1975V95.3937H63.478Z" fill="#FAFAFA"/>
<path opacity="0.5" d="M36.1975 36.1825V95.3887H37.9678C37.9678 95.3887 46.0375 76.0164 48.3172 36.1825H36.1975Z" fill="#E0E0E0"/>
<path opacity="0.5" d="M62.3281 36.1825V95.3887H60.5629C60.5629 95.3887 52.4932 76.0164 50.2085 36.1825H62.3281Z" fill="#E0E0E0"/>
<path d="M63.478 95.3886L63.478 36.1774H62.3281V95.3886H63.478Z" fill="#E0E0E0"/>
<path d="M65.0818 63.7252H34.5986V67.8407H65.0818V63.7252Z" fill="#F5F5F5"/>
<path d="M42.4363 153.783C42.4363 153.783 36.1773 149.319 41.5234 142.778C46.4812 136.725 58.495 142.677 58.495 142.677C58.495 142.677 56.2758 135.616 65.5862 134.471C74.8966 133.326 72.5311 143.353 72.5311 143.353C79.6325 139.782 79.8393 143.857 79.2189 146.934C80.969 146.006 83.0974 145.708 84.903 147.917C89.0235 152.961 84.1969 156.405 84.1969 156.405C84.1969 156.405 93.2248 159.028 87.9543 165.242H37.5592C30.7302 157.187 42.4363 153.783 42.4363 153.783Z" fill="#E0E0E0"/>
<path d="M126.089 187.902C180.096 187.902 223.878 185.346 223.878 182.193C223.878 179.04 180.096 176.484 126.089 176.484C72.0811 176.484 28.2993 179.04 28.2993 182.193C28.2993 185.346 72.0811 187.902 126.089 187.902Z" fill="#F5F5F5"/>
<path d="M115.623 97.6513C134.883 96.5273 149.584 80.0033 148.46 60.7439C147.336 41.4845 130.812 26.7828 111.553 27.9068C92.2935 29.0308 77.5918 45.5548 78.7158 64.8142C79.8398 84.0736 96.3638 98.7753 115.623 97.6513Z" fill="#F38300"/>
<path d="M89.9919 35.3049L89.6641 34.9266C90.4256 34.2659 91.2276 33.6354 92.0396 33.0453L92.3371 33.4539C91.5352 34.044 90.7434 34.6694 89.9919 35.3049Z" fill="#5200FF"/>
<path opacity="0.3" d="M89.9919 35.3049L89.6641 34.9266C90.4256 34.2659 91.2276 33.6354 92.0396 33.0453L92.3371 33.4539C91.5352 34.044 90.7434 34.6694 89.9919 35.3049Z" fill="#FAFAFA"/>
<path d="M82.4518 44.3277L82.0181 44.0705C83.5084 41.5558 85.2911 39.2263 87.3289 37.1306L87.6921 37.4786C85.6817 39.5473 83.9227 41.8463 82.4518 44.3277V44.3277Z" fill="#5200FF"/>
<path opacity="0.3" d="M82.4518 44.3277L82.0181 44.0705C83.5084 41.5558 85.2911 39.2263 87.3289 37.1306L87.6921 37.4786C85.6817 39.5473 83.9227 41.8463 82.4518 44.3277V44.3277Z" fill="#FAFAFA"/>
<path d="M113.561 99.494V98.9896C116.596 98.9847 119.618 98.6 122.558 97.8448L122.684 98.3491C119.703 99.1093 116.638 99.4939 113.561 99.494V99.494Z" fill="#5200FF"/>
<path opacity="0.3" d="M113.561 99.494V98.9896C116.596 98.9847 119.618 98.6 122.558 97.8448L122.684 98.3491C119.703 99.1093 116.638 99.4939 113.561 99.494V99.494Z" fill="#FAFAFA"/>
<path d="M113.631 95.1515C105.633 95.1578 97.9159 92.1978 91.9734 86.844C86.0309 81.4903 82.2848 74.1231 81.4594 66.1673C80.6341 58.2115 82.7883 50.2322 87.5053 43.7727C92.2224 37.3131 99.1671 32.8322 106.997 31.1965C114.826 29.5608 122.984 30.8864 129.893 34.9171C136.801 38.9478 141.97 45.3972 144.399 53.018C146.828 60.6388 146.344 68.8895 143.043 76.1746C139.741 83.4598 133.854 89.2617 126.522 92.4583L126.422 92.2263L126.522 92.4583C122.457 94.2353 118.068 95.1523 113.631 95.1515V95.1515ZM113.55 30.9169C105.581 30.9037 97.8943 33.8647 91.9933 39.2204C86.0924 44.5762 82.4024 51.9412 81.6456 59.8742C80.8887 67.8072 83.1194 75.7371 87.9011 82.1121C92.6828 88.4871 99.6713 92.8483 107.499 94.3422C115.327 95.8361 123.43 94.3551 130.224 90.1892C137.017 86.0233 142.011 79.4723 144.229 71.8181C146.447 64.1639 145.729 55.9576 142.215 48.8051C138.701 41.6525 132.645 36.0687 125.231 33.1462C121.513 31.6727 117.55 30.9163 113.55 30.9169V30.9169Z" fill="#FAFAFA"/>
<path d="M118.846 94.4909C117.295 94.4795 115.759 94.1943 114.307 93.6487C107.347 91.0966 100.689 82.9463 96.8966 72.38C90.9452 55.7363 93.5628 37.8922 102.722 32.5915C105.748 30.8414 109.248 30.6094 112.839 31.9257C119.794 34.4778 126.457 42.6281 130.245 53.1944C136.196 69.8381 133.583 87.6821 124.419 92.9829L124.293 92.766L124.419 92.9829C122.729 93.9722 120.805 94.4927 118.846 94.4909V94.4909ZM108.33 31.5878C106.454 31.5854 104.611 32.0815 102.989 33.0252C94.0268 38.21 91.5151 55.7918 97.3909 72.2136C101.118 82.6386 107.675 90.673 114.499 93.1746C117.943 94.4355 121.292 94.2186 124.182 92.5492C133.15 87.3644 135.671 69.7826 129.786 53.3608C126.058 42.9358 119.502 34.9014 112.678 32.3998C111.288 31.8758 109.816 31.601 108.33 31.5878V31.5878Z" fill="#FAFAFA"/>
<path d="M82.4721 70.9929C82.4053 71.0016 82.3377 70.9834 82.2842 70.9422C82.2308 70.9011 82.1959 70.8404 82.1872 70.7735C82.1785 70.7066 82.1967 70.6391 82.2379 70.5856C82.279 70.5322 82.3397 70.4973 82.4066 70.4886L144.644 54.5863C144.676 54.5772 144.709 54.5748 144.742 54.5792C144.775 54.5836 144.806 54.5946 144.835 54.6116C144.863 54.6286 144.887 54.6512 144.907 54.6781C144.926 54.705 144.94 54.7355 144.947 54.7678C144.955 54.8 144.957 54.8334 144.952 54.8663C144.948 54.8991 144.937 54.9308 144.92 54.9594C144.903 54.9879 144.88 55.0129 144.854 55.0328C144.827 55.0528 144.797 55.0673 144.765 55.0755L82.5327 70.9828L82.4721 70.9929Z" fill="#FAFAFA"/>
<path d="M121.549 94.1581C121.493 94.1584 121.439 94.1395 121.395 94.1047C121.351 94.0699 121.32 94.0211 121.307 93.9664L105.41 31.7341C105.395 31.6693 105.405 31.601 105.439 31.5436C105.473 31.4862 105.527 31.4442 105.592 31.4264C105.624 31.4181 105.657 31.4162 105.69 31.4208C105.723 31.4254 105.755 31.4365 105.783 31.4533C105.812 31.4702 105.837 31.4925 105.857 31.5191C105.877 31.5456 105.891 31.5758 105.899 31.608L121.802 93.8403C121.81 93.8725 121.812 93.9059 121.807 93.9388C121.803 93.9716 121.792 94.0033 121.775 94.0319C121.758 94.0604 121.736 94.0854 121.709 94.1053C121.682 94.1253 121.652 94.1398 121.62 94.148L121.549 94.1581Z" fill="#FAFAFA"/>
<path d="M91.1016 85.9672C91.0448 85.9677 90.9895 85.9491 90.9447 85.9143C90.8998 85.8796 90.868 85.8307 90.8544 85.7756C90.8461 85.7438 90.8443 85.7106 90.849 85.6781C90.8536 85.6456 90.8648 85.6143 90.8817 85.5861C90.8986 85.558 90.9209 85.5334 90.9474 85.514C90.9739 85.4946 91.004 85.4806 91.036 85.473L144.24 71.8554C144.272 71.847 144.306 71.8451 144.339 71.8497C144.372 71.8544 144.403 71.8654 144.432 71.8823C144.46 71.8992 144.485 71.9215 144.505 71.948C144.525 71.9746 144.54 72.0048 144.548 72.0369C144.564 72.1018 144.553 72.17 144.519 72.2274C144.486 72.2848 144.431 72.3268 144.366 72.3446L91.1621 85.9622C91.1426 85.9688 91.1218 85.9705 91.1016 85.9672V85.9672Z" fill="#FAFAFA"/>
<path d="M82.8755 53.7087C82.8086 53.7174 82.741 53.6992 82.6875 53.658C82.6341 53.6169 82.5992 53.5562 82.5905 53.4893C82.5818 53.4224 82.6 53.3548 82.6412 53.3014C82.6823 53.2479 82.743 53.213 82.8099 53.2043L136.014 39.612C136.046 39.6036 136.08 39.6017 136.113 39.6063C136.146 39.611 136.177 39.622 136.206 39.6389C136.234 39.6558 136.259 39.6781 136.279 39.7046C136.299 39.7312 136.314 39.7614 136.322 39.7935C136.337 39.8577 136.327 39.9253 136.293 39.9819C136.259 40.0385 136.204 40.0795 136.14 40.0962L82.936 53.7137L82.8755 53.7087Z" fill="#FAFAFA"/>
<path d="M105.4 74.1201L113.586 50.0573H110.353L98.556 62.5653L90.3451 74.6547H93.578L101.083 67.1549L102.167 74.1201H105.4Z" fill="#263238"/>
<path d="M102.167 74.1201L110.353 50.0573L86.29 58.243L93.2602 62.5653L85.7554 70.0701L90.345 74.6547L97.8448 67.1549L102.167 74.1201Z" fill="#FAFAFA"/>
<path d="M159.371 178.073L163.023 177.059L161.04 168.5L157.389 169.514L159.371 178.073Z" fill="#F3AF00"/>
<path d="M121.111 169.998V170.003L120.233 174.527L119.456 178.547L115.709 177.957L116.4 174.527L117.318 170.003V169.998H121.111Z" fill="#F3AF00"/>
<path d="M119.789 178.153L115.583 177.493C115.509 177.481 115.433 177.494 115.367 177.531C115.301 177.568 115.249 177.625 115.22 177.694L113.954 180.907C113.924 180.985 113.913 181.069 113.92 181.153C113.927 181.236 113.953 181.317 113.996 181.389C114.038 181.461 114.097 181.523 114.166 181.569C114.236 181.616 114.315 181.646 114.398 181.658C115.87 181.865 116.597 181.896 118.433 182.188C121.328 182.554 124.246 182.708 127.163 182.647C128.716 182.647 128.958 181.073 128.308 180.932C125.388 180.297 121.136 179.459 120.344 178.481C120.205 178.308 120.008 178.192 119.789 178.153V178.153Z" fill="#263238"/>
<path d="M162.907 176.645L158.872 177.75C158.799 177.769 158.734 177.814 158.69 177.875C158.646 177.937 158.625 178.012 158.63 178.088L158.806 181.532C158.811 181.616 158.834 181.697 158.874 181.77C158.914 181.843 158.97 181.906 159.038 181.955C159.106 182.003 159.183 182.036 159.266 182.05C159.348 182.064 159.432 182.06 159.512 182.037C160.945 181.613 163.002 180.952 164.813 180.453C166.926 179.868 168.787 179.475 171.269 178.789C172.782 178.37 172.782 176.741 172.096 176.771C169.07 176.938 166.714 177.518 163.819 176.681C163.523 176.589 163.209 176.577 162.907 176.645Z" fill="#263238"/>
<path d="M161.04 168.5L162.064 172.913L158.408 173.927L157.389 169.514L161.04 168.5Z" fill="#F3AF00"/>
<path d="M121.111 170.003L120.233 174.527H116.4L117.318 170.003H121.111Z" fill="#F3AF00"/>
<path d="M148.084 82.3359H127.804C127.723 80.5908 128.308 75.0479 128.308 67.9315C128.332 62.9209 127.981 57.9155 127.259 52.9572C127.077 51.7568 126.864 50.5565 126.618 49.3561C128.86 48.9221 131.128 48.6357 133.407 48.4987C136.278 48.3321 139.156 48.3321 142.026 48.4987C143.994 48.6958 145.944 49.0466 147.857 49.5478C147.857 49.5478 152.315 61.0269 148.084 82.3359Z" fill="#5200FF"/>
<path opacity="0.2" d="M148.084 82.3359H127.804C127.723 80.5908 128.308 75.0479 128.308 67.9315C128.332 62.9209 127.981 57.9155 127.259 52.9572C127.077 51.7568 126.864 50.5565 126.618 49.3561C128.86 48.9221 131.128 48.6357 133.407 48.4987C136.278 48.3321 139.156 48.3321 142.026 48.4987C143.994 48.6958 145.944 49.0466 147.857 49.5478C147.857 49.5478 152.315 61.0269 148.084 82.3359Z" fill="black"/>
<path d="M130.512 59.1306C129.946 62.1045 129.209 65.0431 128.303 67.9316C128.329 62.9211 127.98 57.9157 127.259 52.9573C129.574 53.386 131.132 55.5749 130.512 59.1306Z" fill="#5200FF"/>
<path opacity="0.4" d="M130.512 59.1306C129.946 62.1045 129.209 65.0431 128.303 67.9316C128.329 62.9211 127.98 57.9157 127.259 52.9573C129.574 53.386 131.132 55.5749 130.512 59.1306Z" fill="black"/>
<path d="M143.741 57.2847H138.96C138.893 57.2847 138.829 57.2581 138.782 57.2108C138.734 57.1635 138.708 57.0994 138.708 57.0325C138.709 56.966 138.736 56.9026 138.783 56.8556C138.83 56.8086 138.893 56.7816 138.96 56.7803H143.741C143.808 56.7816 143.871 56.8086 143.918 56.8556C143.965 56.9026 143.992 56.966 143.993 57.0325C143.993 57.0994 143.967 57.1635 143.919 57.2108C143.872 57.2581 143.808 57.2847 143.741 57.2847Z" fill="#FAFAFA"/>
<path d="M143.741 59.4281H138.96C138.893 59.4281 138.829 59.4015 138.782 59.3543C138.734 59.307 138.708 59.2428 138.708 59.1759C138.708 59.1091 138.734 59.0449 138.782 58.9976C138.829 58.9503 138.893 58.9238 138.96 58.9238H143.741C143.808 58.9238 143.872 58.9503 143.919 58.9976C143.967 59.0449 143.993 59.1091 143.993 59.1759C143.993 59.2428 143.967 59.307 143.919 59.3543C143.872 59.4015 143.808 59.4281 143.741 59.4281Z" fill="#FAFAFA"/>
<path d="M143.741 61.5716H138.96C138.893 61.5703 138.83 61.5433 138.783 61.4963C138.736 61.4493 138.709 61.3859 138.708 61.3194C138.708 61.2526 138.734 61.1884 138.782 61.1411C138.829 61.0938 138.893 61.0673 138.96 61.0673H143.741C143.808 61.0673 143.872 61.0938 143.919 61.1411C143.967 61.1884 143.993 61.2526 143.993 61.3194C143.992 61.3859 143.965 61.4493 143.918 61.4963C143.871 61.5433 143.808 61.5703 143.741 61.5716V61.5716Z" fill="#FAFAFA"/>
<path d="M156.123 71.4016C156.123 71.0939 156.078 70.8165 156.037 70.5492C155.906 69.4396 155.735 68.4006 155.533 67.3566C155.145 65.2888 154.691 63.2663 154.191 61.2539C153.692 59.2416 153.157 57.2594 152.537 55.2672L146.767 56.9518C147.272 58.8835 147.831 60.8454 148.376 62.7872C148.733 64.0649 149.086 65.3392 149.435 66.6102L149.269 66.6657C149.375 67.7349 149.551 68.7587 149.773 69.7977C149.984 70.8677 150.26 71.9238 150.6 72.96C150.719 73.3069 150.864 73.6442 151.034 73.9687C151.121 74.129 151.222 74.2809 151.337 74.4226C151.47 74.5969 151.626 74.7528 151.801 74.8866C151.871 74.9421 151.987 75.0228 152.083 75.0833L152.305 75.1993C152.396 75.2448 152.491 75.2835 152.587 75.3153C152.709 75.3573 152.834 75.3893 152.961 75.4112C153.127 75.4436 153.296 75.4588 153.465 75.4566C153.861 75.4479 154.251 75.3514 154.605 75.1741C154.897 75.0257 155.159 74.8238 155.377 74.579C155.447 74.5009 155.513 74.4184 155.573 74.3319C155.626 74.2592 155.675 74.1834 155.72 74.1049C155.819 73.9237 155.901 73.7327 155.962 73.535C156.016 73.3604 156.054 73.1816 156.078 73.0004C156.108 72.7633 156.113 72.6271 156.123 72.496C156.158 72.0017 156.138 71.7143 156.123 71.4016Z" fill="#F3AF00"/>
<path d="M143.358 52.1604C142.077 55.5497 148.553 65.541 148.553 65.541L156.118 61.4254C154.981 58.3184 153.513 55.3424 151.74 52.5488C149.072 48.5493 144.75 48.4181 143.358 52.1604Z" fill="#5200FF"/>
<path opacity="0.2" d="M143.358 52.1604C142.077 55.5497 148.553 65.541 148.553 65.541L156.118 61.4254C154.981 58.3184 153.513 55.3424 151.74 52.5488C149.072 48.5493 144.75 48.4181 143.358 52.1604Z" fill="black"/>
<path d="M147.746 49.3966C146.736 48.9939 145.668 48.7555 144.583 48.6905C144.563 48.6898 144.543 48.6945 144.525 48.7041C144.506 48.7138 144.491 48.728 144.481 48.7454C144.47 48.7629 144.464 48.7828 144.463 48.8033C144.463 48.8237 144.468 48.844 144.477 48.862C145.098 50.0674 146.495 52.6497 146.349 62.9536C146.202 72.2691 148.295 76.0366 148.976 77.01C148.993 77.0332 149.016 77.0509 149.043 77.0609C149.07 77.071 149.099 77.0729 149.127 77.0664C149.155 77.06 149.181 77.0455 149.201 77.0247C149.22 77.0039 149.234 76.9777 149.239 76.9495L149.44 75.6835C149.453 75.6186 149.453 75.5518 149.44 75.4868C149.244 74.8211 148.124 70.6955 148.669 64.391C149.622 53.3255 147.963 49.7648 147.791 49.4369C147.779 49.4202 147.764 49.4064 147.746 49.3966Z" fill="#263238"/>
<path d="M145.688 62.2676L145.335 66.257L148.532 66.7311L149.138 62.3584L145.688 62.2676Z" fill="#F3AF00"/>
<path d="M151.997 64.5574L149.138 62.3433L148.532 66.7211C148.532 66.7211 151.095 68.5721 152.865 66.8422L151.997 64.5574Z" fill="#F3AF00"/>
<path d="M134.259 38.805C134.804 41.5789 135.349 46.6628 133.407 48.5138C133.407 48.5138 134.521 51.3281 139.676 51.3281C144.387 51.3281 142.026 48.5138 142.026 48.5138C138.935 47.7724 139 45.4877 139.555 43.324L134.259 38.805Z" fill="#F3AF00"/>
<path d="M136.418 40.651L139.55 43.324C139.418 43.8199 139.329 44.3261 139.283 44.8371C138.274 45.7954 136.478 43.3694 136.352 42.1338C136.286 41.6395 136.308 41.1374 136.418 40.651Z" fill="#F3AF00"/>
<path d="M143.075 30.2613C144.941 31.0532 145.955 36.2833 143.58 37.4887C141.204 38.6941 139.545 28.7785 143.075 30.2613Z" fill="#263238"/>
<path d="M133.931 34.6342C134.163 38.3866 134.108 40.5956 136.004 42.5273C138.854 45.4274 143.494 43.7025 144.387 39.9551C145.194 36.581 144.684 31.0079 141.007 29.5099C140.198 29.1765 139.317 29.0555 138.447 29.1586C137.578 29.2617 136.749 29.5853 136.04 30.0988C135.331 30.6122 134.765 31.2985 134.396 32.0923C134.027 32.8861 133.867 33.7611 133.931 34.6342V34.6342Z" fill="#F3AF00"/>
<path d="M144.805 29.8124C145.032 28.8037 144.074 27.6537 143.267 26.9829C142.473 26.3322 141.541 25.8701 140.543 25.6316C139.544 25.3931 138.505 25.3844 137.502 25.6061C136.223 25.7895 135.001 26.2527 133.921 26.9628L135.001 27.4671C133.82 28.0118 130.376 27.5075 130.996 29.9889C126.003 32.1627 133.311 37.9375 134.789 38.1645C138.012 38.6688 134.632 35.7335 136.05 33.0756C136.236 32.6732 136.341 32.238 136.36 31.7949C136.378 31.3519 136.308 30.9095 136.156 30.4933C137.583 30.2209 141.663 30.236 143.217 30.806C143.887 30.7253 144.689 30.3369 144.805 29.8124Z" fill="#263238"/>
<path d="M131.677 30.5437C131.677 30.5437 131.228 29.1416 129.276 29.4442C129.765 29.7166 131.052 30.1806 131.677 30.5437Z" fill="#263238"/>
<path d="M132.237 38.7697C132.484 39.1672 132.808 39.5115 133.19 39.7825C133.572 40.0535 134.004 40.2459 134.461 40.3484C135.686 40.6207 136.231 39.5061 135.833 38.3864C135.475 37.3777 134.4 36.0261 133.2 36.2581C132.939 36.3137 132.695 36.4338 132.492 36.6075C132.289 36.7812 132.132 37.0028 132.037 37.2524C131.941 37.502 131.909 37.7715 131.944 38.0365C131.979 38.3015 132.08 38.5535 132.237 38.7697V38.7697Z" fill="#F3AF00"/>
<path d="M148.084 82.336C148.084 82.336 155.649 112.491 157.197 123.96C158.806 135.883 162.715 171.899 162.715 171.899L156.688 173.135C156.688 173.135 148.22 138.41 145.945 126.82C143.464 114.181 134.754 82.336 134.754 82.336H148.084Z" fill="#5200FF"/>
<path opacity="0.7" d="M148.084 82.336C148.084 82.336 155.649 112.491 157.197 123.96C158.806 135.883 162.715 171.899 162.715 171.899L156.688 173.135C156.688 173.135 148.22 138.41 145.945 126.82C143.464 114.181 134.754 82.336 134.754 82.336H148.084Z" fill="black"/>
<path d="M138.98 84.5651L137.215 91.4697C138.854 97.6379 141.048 106 142.899 113.52C143.074 103.725 141.753 93.961 138.98 84.5651V84.5651Z" fill="#5200FF"/>
<path opacity="0.8" d="M138.98 84.5651L137.215 91.4697C138.854 97.6379 141.048 106 142.899 113.52C143.074 103.725 141.753 93.961 138.98 84.5651V84.5651Z" fill="black"/>
<path d="M140.892 82.336C140.892 82.336 139.167 113.329 136.806 124.197C134.219 136.085 121.892 173.665 121.892 173.665H114.948C114.948 173.665 123.955 137.043 125.433 125.277C127.037 112.501 127.804 82.3511 127.804 82.3511L140.892 82.336Z" fill="#5200FF"/>
<path opacity="0.7" d="M140.892 82.336C140.892 82.336 139.167 113.329 136.806 124.197C134.219 136.085 121.892 173.665 121.892 173.665H114.948C114.948 173.665 123.955 137.043 125.433 125.277C127.037 112.501 127.804 82.3511 127.804 82.3511L140.892 82.336Z" fill="black"/>
<path d="M117.747 169.549C117.738 169.548 117.73 169.546 117.723 169.542C117.715 169.538 117.708 169.533 117.703 169.526C117.698 169.519 117.694 169.512 117.692 169.503C117.69 169.495 117.69 169.487 117.691 169.478C117.752 169.125 126.129 136.262 127.455 125.69C128.893 114.216 129.347 86.7591 129.377 86.5019C129.381 86.4882 129.389 86.4761 129.401 86.4675C129.412 86.459 129.426 86.4543 129.44 86.4543C129.454 86.4543 129.468 86.459 129.48 86.4675C129.491 86.4761 129.499 86.4882 129.503 86.5019C129.473 86.7591 129.024 114.241 127.582 125.69C126.26 136.282 117.878 169.13 117.822 169.483C117.822 169.493 117.819 169.502 117.815 169.51C117.811 169.518 117.805 169.526 117.798 169.532C117.791 169.538 117.783 169.543 117.774 169.546C117.765 169.548 117.756 169.55 117.747 169.549V169.549Z" fill="#5200FF"/>
<path opacity="0.3" d="M117.747 169.549C117.738 169.548 117.73 169.546 117.723 169.542C117.715 169.538 117.708 169.533 117.703 169.526C117.698 169.519 117.694 169.512 117.692 169.503C117.69 169.495 117.69 169.487 117.691 169.478C117.752 169.125 126.129 136.262 127.455 125.69C128.893 114.216 129.347 86.7591 129.377 86.5019C129.381 86.4882 129.389 86.4761 129.401 86.4675C129.412 86.459 129.426 86.4543 129.44 86.4543C129.454 86.4543 129.468 86.459 129.48 86.4675C129.491 86.4761 129.499 86.4882 129.503 86.5019C129.473 86.7591 129.024 114.241 127.582 125.69C126.26 136.282 117.878 169.13 117.822 169.483C117.822 169.493 117.819 169.502 117.815 169.51C117.811 169.518 117.805 169.526 117.798 169.532C117.791 169.538 117.783 169.543 117.774 169.546C117.765 169.548 117.756 169.55 117.747 169.549V169.549Z" fill="black"/>
<path d="M139.626 35.6831C139.626 35.9857 139.792 36.2328 139.989 36.2328C140.185 36.2328 140.352 35.9857 140.352 35.6831C140.352 35.3805 140.19 35.1283 139.989 35.1283C139.787 35.1283 139.626 35.3754 139.626 35.6831Z" fill="#263238"/>
<path d="M143.085 35.6831C143.085 35.9857 143.247 36.2328 143.449 36.2328C143.65 36.2328 143.807 35.9857 143.807 35.6831C143.807 35.3805 143.645 35.1283 143.449 35.1283C143.252 35.1283 143.085 35.3754 143.085 35.6831Z" fill="#263238"/>
<path d="M141.986 35.8345C142.351 36.7687 142.843 37.6479 143.449 38.447C143.24 38.5976 143.001 38.7005 142.748 38.7485C142.495 38.7964 142.235 38.7882 141.986 38.7244V35.8345Z" fill="#F3AF00"/>
<path d="M141.093 39.5666C141.117 39.5666 141.14 39.5571 141.157 39.5401C141.174 39.523 141.184 39.4999 141.184 39.4759C141.183 39.4527 141.173 39.4309 141.156 39.4149C141.139 39.399 141.116 39.3901 141.093 39.3901C140.713 39.3992 140.336 39.318 139.993 39.1532C139.65 38.9884 139.352 38.7446 139.121 38.4419C139.115 38.432 139.106 38.4234 139.096 38.4168C139.086 38.4101 139.075 38.4055 139.063 38.4032C139.052 38.4008 139.04 38.4008 139.028 38.4031C139.016 38.4055 139.005 38.4101 138.995 38.4167C138.979 38.4328 138.97 38.4546 138.97 38.4772C138.97 38.4999 138.979 38.5217 138.995 38.5378C139.236 38.8658 139.552 39.1307 139.918 39.3099C140.283 39.4891 140.686 39.5772 141.093 39.5666V39.5666Z" fill="#263238"/>
<path d="M138.587 34.5686C138.614 34.5686 138.641 34.5622 138.666 34.55C138.69 34.5377 138.711 34.5199 138.728 34.498C138.858 34.3133 139.03 34.1625 139.23 34.0581C139.43 33.9536 139.652 33.8987 139.878 33.8978C139.925 33.9006 139.972 33.8848 140.007 33.8537C140.043 33.8225 140.066 33.7787 140.069 33.7314C140.072 33.7076 140.07 33.6836 140.063 33.6607C140.056 33.6379 140.044 33.6168 140.029 33.5987C140.013 33.5807 139.994 33.5661 139.972 33.5559C139.95 33.5458 139.927 33.5403 139.903 33.5397C139.617 33.537 139.334 33.6045 139.08 33.7364C138.826 33.8683 138.608 34.0605 138.445 34.2963C138.417 34.3331 138.404 34.3798 138.41 34.4261C138.415 34.4724 138.439 34.5146 138.476 34.5434C138.509 34.5631 138.548 34.572 138.587 34.5686V34.5686Z" fill="#263238"/>
<path d="M144.639 34.4575C144.664 34.4618 144.689 34.4618 144.714 34.4575C144.735 34.446 144.753 34.4306 144.767 34.4122C144.781 34.3937 144.792 34.3727 144.798 34.3501C144.804 34.3276 144.805 34.3041 144.802 34.281C144.799 34.2579 144.792 34.2356 144.78 34.2154C144.647 33.9629 144.454 33.7466 144.219 33.585C143.983 33.4233 143.712 33.3212 143.428 33.2874C143.386 33.2945 143.348 33.3164 143.32 33.3492C143.292 33.382 143.277 33.4235 143.277 33.4665C143.277 33.5094 143.292 33.5509 143.32 33.5837C143.348 33.6165 143.386 33.6384 143.428 33.6455V33.6455C143.652 33.6764 143.864 33.7602 144.049 33.8901C144.233 34.0199 144.383 34.192 144.488 34.392C144.506 34.414 144.529 34.4315 144.555 34.4429C144.582 34.4543 144.61 34.4593 144.639 34.4575V34.4575Z" fill="#263238"/>
<path d="M132.065 64.1993C129.831 65.5157 127.526 66.8573 125.317 67.987C124.888 68.2039 124.46 68.4056 124.041 68.5923C124.228 67.9517 124.434 67.2961 124.646 66.6454C125.055 65.435 125.468 64.2145 125.912 62.999L128.611 55.6757L123.032 53.4616C122.024 55.9834 121.101 58.5052 120.274 61.0824C119.865 62.3736 119.477 63.6798 119.129 65.0113C118.756 66.3845 118.458 67.7769 118.236 69.1823L118.155 69.7422V69.8834V70.1053C118.138 70.2594 118.13 70.4143 118.13 70.5693C118.119 70.9769 118.163 71.3841 118.261 71.7798C118.418 72.3925 118.729 72.955 119.164 73.4139C119.627 73.8853 120.215 74.2158 120.859 74.3671C121.277 74.4637 121.707 74.496 122.135 74.4629C122.678 74.4125 123.212 74.2904 123.723 74.0998C124.481 73.8222 125.209 73.4708 125.897 73.0507C126.538 72.6725 127.138 72.2791 127.713 71.8756C129.945 70.2688 132.036 68.4734 133.962 66.5093L132.065 64.1993Z" fill="#F3AF00"/>
<path d="M126.618 49.3713C123.032 49.8756 118.922 62.3231 118.922 62.3231L126.457 66.5748C126.457 66.5748 129.775 60.6638 131.41 56.2759C133.15 51.6762 130.466 48.8115 126.618 49.3713Z" fill="#5200FF"/>
<path opacity="0.2" d="M126.618 49.3713C123.032 49.8756 118.922 62.3231 118.922 62.3231L126.457 66.5748C126.457 66.5748 129.775 60.6638 131.41 56.2759C133.15 51.6762 130.466 48.8115 126.618 49.3713Z" fill="black"/>
<path d="M128.484 48.7611C129.753 48.5448 131.036 48.42 132.322 48.3878C132.389 48.3872 132.453 48.4059 132.509 48.4418C132.565 48.4776 132.608 48.529 132.635 48.5896C133.387 50.2439 137.608 61.4204 136.746 68.2594C135.979 74.3117 130.063 76.8334 128.217 77.4992C128.154 77.521 128.088 77.5275 128.022 77.518C127.956 77.5086 127.894 77.4836 127.84 77.445C127.786 77.4065 127.742 77.3555 127.712 77.2965C127.682 77.2375 127.667 77.1721 127.667 77.1058V76.1576C127.666 76.0752 127.691 75.9945 127.737 75.9261C127.782 75.8577 127.848 75.8048 127.924 75.7743C129.301 75.2246 135.631 72.2842 133.75 64.9811C132.387 59.5818 130.547 54.3141 128.252 49.2402C128.23 49.1941 128.218 49.1435 128.218 49.0922C128.218 49.0409 128.229 48.9903 128.252 48.9441C128.274 48.8979 128.306 48.8574 128.347 48.8257C128.387 48.794 128.434 48.7719 128.484 48.7611V48.7611Z" fill="#263238"/>
<path d="M120.924 179.006C121.176 179.066 121.441 179.039 121.676 178.93C121.751 178.882 121.814 178.817 121.859 178.74C121.904 178.663 121.929 178.575 121.933 178.486C121.94 178.435 121.933 178.383 121.914 178.335C121.895 178.287 121.863 178.245 121.822 178.214C121.444 177.936 120.117 178.486 119.966 178.552C119.949 178.558 119.935 178.569 119.925 178.583C119.915 178.598 119.91 178.615 119.91 178.632C119.91 178.651 119.915 178.669 119.925 178.684C119.935 178.699 119.949 178.711 119.966 178.718C120.274 178.849 120.595 178.945 120.924 179.006V179.006ZM121.605 178.32C121.645 178.324 121.683 178.338 121.716 178.36C121.716 178.36 121.761 178.4 121.751 178.471C121.751 178.531 121.736 178.591 121.707 178.644C121.678 178.697 121.636 178.741 121.585 178.774C121.136 178.9 120.656 178.849 120.243 178.632C120.673 178.441 121.135 178.335 121.605 178.32V178.32Z" fill="#5200FF"/>
<path d="M119.986 178.723H120.036C120.455 178.572 121.333 177.871 121.323 177.442C121.319 177.375 121.292 177.311 121.248 177.26C121.203 177.21 121.142 177.176 121.075 177.165C121.01 177.145 120.941 177.14 120.873 177.149C120.805 177.159 120.74 177.183 120.682 177.22C120.178 177.508 119.925 178.572 119.915 178.617C119.912 178.633 119.914 178.649 119.919 178.664C119.924 178.679 119.934 178.693 119.946 178.703C119.957 178.713 119.971 178.72 119.986 178.723ZM120.995 177.321H121.035C121.151 177.356 121.151 177.407 121.151 177.432C121.151 177.684 120.586 178.229 120.142 178.441C120.238 178.019 120.456 177.635 120.768 177.336C120.835 177.309 120.909 177.304 120.98 177.321H120.995Z" fill="#5200FF"/>
<path d="M164.581 176.862C164.9 176.803 165.19 176.638 165.403 176.393C165.448 176.324 165.476 176.246 165.484 176.164C165.492 176.082 165.48 176 165.449 175.924C165.435 175.877 165.408 175.835 165.371 175.802C165.335 175.769 165.29 175.746 165.242 175.737C164.737 175.606 163.466 176.746 163.325 176.892C163.315 176.908 163.31 176.927 163.31 176.945C163.31 176.964 163.315 176.982 163.325 176.998C163.333 177.015 163.346 177.03 163.362 177.039C163.378 177.048 163.397 177.051 163.416 177.049C163.809 177.021 164.199 176.959 164.581 176.862ZM165.03 175.924C165.086 175.91 165.145 175.91 165.201 175.924C165.22 175.928 165.238 175.938 165.252 175.951C165.266 175.964 165.276 175.981 165.282 176C165.303 176.049 165.311 176.104 165.305 176.157C165.3 176.211 165.282 176.262 165.252 176.307C165.085 176.57 164.49 176.771 163.648 176.862C164.051 176.472 164.519 176.155 165.03 175.924V175.924Z" fill="#5200FF"/>
<path d="M163.411 177.029H163.446C163.83 176.711 164.485 175.677 164.304 175.283C164.263 175.188 164.157 175.087 163.915 175.132C163.827 175.145 163.742 175.176 163.666 175.224C163.59 175.271 163.526 175.335 163.476 175.41C163.118 175.914 163.29 176.923 163.3 176.978C163.302 176.993 163.308 177.007 163.318 177.019C163.328 177.03 163.341 177.039 163.355 177.044C163.365 177.045 163.375 177.045 163.385 177.042C163.394 177.039 163.403 177.035 163.411 177.029V177.029ZM163.89 175.299H163.946C164.107 175.268 164.132 175.329 164.142 175.349C164.248 175.586 163.829 176.358 163.451 176.766C163.377 176.338 163.437 175.898 163.623 175.505C163.695 175.411 163.799 175.344 163.915 175.319L163.89 175.299Z" fill="#5200FF"/>
<path d="M130.89 65.0012L133.75 62.7871L134.355 67.1649C134.355 67.1649 131.788 69.0159 130.023 67.286L130.89 65.0012Z" fill="#F3AF00"/>
<path d="M137.195 62.6964L137.553 66.6859L134.355 67.165L133.75 62.7872L137.195 62.6964Z" fill="#F3AF00"/>
</svg>
